<?xml version="1.0" encoding="UTF-8" standalone="no"?>
<svg
   xmlns:dc="http://purl.org/dc/elements/1.1/"
   xmlns:cc="http://creativecommons.org/ns#"
   xmlns:rdf="http://www.w3.org/1999/02/22-rdf-syntax-ns#"
   xmlns:svg="http://www.w3.org/2000/svg"
   xmlns="http://www.w3.org/2000/svg"
   viewBox="0 0 1280 720"
   width="100%"
   xml:space="preserve"
   id="svg2"
   version="1.1"><metadata
     id="metadata8"><rdf:RDF><cc:Work
         rdf:about=""><dc:format>image/svg+xml</dc:format><dc:type
           rdf:resource="http://purl.org/dc/dcmitype/StillImage" /></cc:Work></rdf:RDF></metadata><defs
     id="defs6"><clipPath
       id="clipPath18"
       clipPathUnits="userSpaceOnUse"><path
         style="clip-rule:evenodd"
         id="path16"
         d="M 0,1.2207e-4 H 960 V 540.00012 H 0 Z" /></clipPath><clipPath
       id="clipPath30"
       clipPathUnits="userSpaceOnUse"><path
         style="clip-rule:evenodd"
         id="path28"
         d="M 1.4305e-5,0 H 960.00001 V 540 H 1.4305e-5 Z" /></clipPath><clipPath
       id="clipPath42"
       clipPathUnits="userSpaceOnUse"><path
         style="clip-rule:evenodd"
         id="path40"
         d="M 1.4305e-5,0 H 960.00001 V 540 H 1.4305e-5 Z" /></clipPath><clipPath
       id="clipPath58"
       clipPathUnits="userSpaceOnUse"><path
         style="clip-rule:evenodd"
         id="path56"
         d="M 1.4305e-5,0 H 960.00001 V 540 H 1.4305e-5 Z" /></clipPath><clipPath
       id="clipPath74"
       clipPathUnits="userSpaceOnUse"><path
         style="clip-rule:evenodd"
         id="path72"
         d="M 1.4305e-5,0 H 960.00001 V 540 H 1.4305e-5 Z" /></clipPath><clipPath
       id="clipPath92"
       clipPathUnits="userSpaceOnUse"><path
         style="clip-rule:evenodd"
         id="path90"
         d="M 1.4305e-5,0 H 960.00001 V 540 H 1.4305e-5 Z" /></clipPath><clipPath
       id="clipPath110"
       clipPathUnits="userSpaceOnUse"><path
         style="clip-rule:evenodd"
         id="path108"
         d="M 1.4305e-5,0 H 960.00001 V 540 H 1.4305e-5 Z" /></clipPath><clipPath
       id="clipPath128"
       clipPathUnits="userSpaceOnUse"><path
         style="clip-rule:evenodd"
         id="path126"
         d="M 1.4305e-5,0 H 960.00001 V 540 H 1.4305e-5 Z" /></clipPath><clipPath
       id="clipPath146"
       clipPathUnits="userSpaceOnUse"><path
         style="clip-rule:evenodd"
         id="path144"
         d="M 1.4305e-5,0 H 960.00001 V 540 H 1.4305e-5 Z" /></clipPath><clipPath
       id="clipPath164"
       clipPathUnits="userSpaceOnUse"><path
         style="clip-rule:evenodd"
         id="path162"
         d="M 1.4305e-5,0 H 960.00001 V 540 H 1.4305e-5 Z" /></clipPath><clipPath
       id="clipPath182"
       clipPathUnits="userSpaceOnUse"><path
         style="clip-rule:evenodd"
         id="path180"
         d="M 1.4305e-5,0 H 960.00001 V 540 H 1.4305e-5 Z" /></clipPath><clipPath
       id="clipPath200"
       clipPathUnits="userSpaceOnUse"><path
         style="clip-rule:evenodd"
         id="path198"
         d="M 1.4305e-5,0 H 960.00001 V 540 H 1.4305e-5 Z" /></clipPath><clipPath
       id="clipPath214"
       clipPathUnits="userSpaceOnUse"><path
         style="clip-rule:evenodd"
         id="path212"
         d="M -1.5259e-5,540 H 960 V 6.1035e-5 H -4.5776e-5" /></clipPath><clipPath
       id="clipPath228"
       clipPathUnits="userSpaceOnUse"><path
         style="clip-rule:evenodd"
         id="path226"
         d="M 1.4305e-5,0 H 960.00001 V 540 H 1.4305e-5 Z" /></clipPath><clipPath
       id="clipPath246"
       clipPathUnits="userSpaceOnUse"><path
         style="clip-rule:evenodd"
         id="path244"
         d="M 1.4305e-5,0 H 960.00001 V 540 H 1.4305e-5 Z" /></clipPath><clipPath
       id="clipPath262"
       clipPathUnits="userSpaceOnUse"><path
         style="clip-rule:evenodd"
         id="path260"
         d="M 1.4305e-5,0 H 960.00001 V 540 H 1.4305e-5 Z" /></clipPath><clipPath
       id="clipPath280"
       clipPathUnits="userSpaceOnUse"><path
         style="clip-rule:evenodd"
         id="path278"
         d="M 1.4305e-5,0 H 960.00001 V 540 H 1.4305e-5 Z" /></clipPath><clipPath
       id="clipPath298"
       clipPathUnits="userSpaceOnUse"><path
         style="clip-rule:evenodd"
         id="path296"
         d="M 1.4305e-5,0 H 960.00001 V 540 H 1.4305e-5 Z" /></clipPath><clipPath
       id="clipPath316"
       clipPathUnits="userSpaceOnUse"><path
         style="clip-rule:evenodd"
         id="path314"
         d="M 1.4305e-5,0 H 960.00001 V 540 H 1.4305e-5 Z" /></clipPath><clipPath
       id="clipPath334"
       clipPathUnits="userSpaceOnUse"><path
         style="clip-rule:evenodd"
         id="path332"
         d="M 1.4305e-5,0 H 960.00001 V 540 H 1.4305e-5 Z" /></clipPath><clipPath
       id="clipPath352"
       clipPathUnits="userSpaceOnUse"><path
         style="clip-rule:evenodd"
         id="path350"
         d="M 1.4305e-5,0 H 960.00001 V 540 H 1.4305e-5 Z" /></clipPath><clipPath
       id="clipPath370"
       clipPathUnits="userSpaceOnUse"><path
         style="clip-rule:evenodd"
         id="path368"
         d="M 1.4305e-5,0 H 960.00001 V 540 H 1.4305e-5 Z" /></clipPath><clipPath
       id="clipPath388"
       clipPathUnits="userSpaceOnUse"><path
         style="clip-rule:evenodd"
         id="path386"
         d="M 1.4305e-5,0 H 960.00001 V 540 H 1.4305e-5 Z" /></clipPath><clipPath
       id="clipPath406"
       clipPathUnits="userSpaceOnUse"><path
         style="clip-rule:evenodd"
         id="path404"
         d="M 1.4305e-5,0 H 960.00001 V 540 H 1.4305e-5 Z" /></clipPath></defs><g
     transform="matrix(1.3333333,0,0,-1.3333333,0,720)"
     id="g10"><g
       id="g12"><g
         clip-path="url(#clipPath18)"
         id="g14"><path
           id="path20"
           style="fill:#ffffff;fill-opacity:1;fill-rule:evenodd;stroke:none"
           d="M 0,6.1035e-5 H 960 V 540.00006 H 0 Z" /></g></g><path
       id="path22"
       style="fill:#000000;fill-opacity:1;fill-rule:nonzero;stroke:none"
       d="m 454.68,269.64 h 29.02 v -4.56 h -29.02 z m 26.74,4.56 13.68,-6.84 -13.68,-6.84 z" /><g
       id="g24"><g
         clip-path="url(#clipPath30)"
         id="g26"><text
           id="text34"
           style="font-variant:normal;font-weight:normal;font-size:27.98399925px;font-family:Calibri;-inkscape-font-specification:Calibri;writing-mode:lr-tb;fill:#000000;fill-opacity:1;fill-rule:nonzero;stroke:none"
           transform="matrix(1,0,0,-1,48.432,352.56)"><tspan
             id="tspan32"
             y="0"
             x="0">E</tspan></text>
</g></g><g
       id="g36"><g
         clip-path="url(#clipPath42)"
         id="g38"><text
           id="text46"
           style="font-variant:normal;font-weight:normal;font-size:27.95999908px;font-family:Calibri;-inkscape-font-specification:Calibri;writing-mode:lr-tb;fill:#000000;fill-opacity:1;fill-rule:nonzero;stroke:none"
           transform="matrix(1,0,0,-1,510.29,353.52)"><tspan
             id="tspan44"
             y="0"
             x="0">F</tspan></text>
</g></g><path
       id="path48"
       style="fill:#548235;fill-opacity:1;fill-rule:evenodd;stroke:none"
       d="m 231.6,378.54 c 0,9.25 7.49,16.74 16.74,16.74 9.25,0 16.74,-7.49 16.74,-16.74 0,-9.25 -7.49,-16.74 -16.74,-16.74 -9.25,0 -16.74,7.49 -16.74,16.74 z" /><path
       id="path50"
       style="fill:none;stroke:#000000;stroke-width:0.95999998;stroke-linecap:butt;stroke-linejoin:miter;stroke-miterlimit:10;stroke-dasharray:none;stroke-opacity:1"
       d="m 231.6,378.54 c 0,9.25 7.49,16.74 16.74,16.74 9.25,0 16.74,-7.49 16.74,-16.74 0,-9.25 -7.49,-16.74 -16.74,-16.74 -9.25,0 -16.74,7.49 -16.74,16.74 z" /><g
       id="g52"><g
         clip-path="url(#clipPath58)"
         id="g54"><text
           id="text62"
           style="font-variant:normal;font-weight:normal;font-size:20.04000092px;font-family:Calibri;-inkscape-font-specification:Calibri;writing-mode:lr-tb;fill:#ffffff;fill-opacity:1;fill-rule:nonzero;stroke:none"
           transform="matrix(1,0,0,-1,238.13,371.81)"><tspan
             id="tspan60"
             y="0"
             x="0 10.19998">15</tspan></text>
</g></g><path
       id="path64"
       style="fill:#bfbfbf;fill-opacity:1;fill-rule:evenodd;stroke:none"
       d="m 129.72,323.34 c 0,9.25 7.49,16.74 16.74,16.74 9.25,0 16.74,-7.49 16.74,-16.74 0,-9.25 -7.49,-16.74 -16.74,-16.74 -9.25,0 -16.74,7.49 -16.74,16.74 z" /><path
       id="path66"
       style="fill:none;stroke:#000000;stroke-width:0.95999998;stroke-linecap:butt;stroke-linejoin:miter;stroke-miterlimit:10;stroke-dasharray:none;stroke-opacity:1"
       d="m 129.72,323.34 c 0,9.25 7.49,16.74 16.74,16.74 9.25,0 16.74,-7.49 16.74,-16.74 0,-9.25 -7.49,-16.74 -16.74,-16.74 -9.25,0 -16.74,7.49 -16.74,16.74 z" /><g
       id="g68"><g
         clip-path="url(#clipPath74)"
         id="g70"><text
           id="text78"
           style="font-variant:normal;font-weight:normal;font-size:20.04000092px;font-family:Calibri;-inkscape-font-specification:Calibri;writing-mode:lr-tb;fill:#000000;fill-opacity:1;fill-rule:nonzero;stroke:none"
           transform="matrix(1,0,0,-1,136.2,316.56)"><tspan
             id="tspan76"
             y="0"
             x="0 10.19998">17</tspan></text>
</g></g><path
       id="path80"
       style="fill:none;stroke:#000000;stroke-width:0.47999999;stroke-linecap:butt;stroke-linejoin:miter;stroke-miterlimit:10;stroke-dasharray:none;stroke-opacity:1"
       d="m 158.28,335.17 78.23,31.55" /><path
       id="path82"
       style="fill:#bfbfbf;fill-opacity:1;fill-rule:evenodd;stroke:none"
       d="m 333.36,328.26 c 0,9.25 7.49,16.74 16.74,16.74 9.25,0 16.74,-7.49 16.74,-16.74 0,-9.25 -7.49,-16.74 -16.74,-16.74 -9.25,0 -16.74,7.49 -16.74,16.74 z" /><path
       id="path84"
       style="fill:none;stroke:#000000;stroke-width:0.95999998;stroke-linecap:butt;stroke-linejoin:miter;stroke-miterlimit:10;stroke-dasharray:none;stroke-opacity:1"
       d="m 333.36,328.26 c 0,9.25 7.49,16.74 16.74,16.74 9.25,0 16.74,-7.49 16.74,-16.74 0,-9.25 -7.49,-16.74 -16.74,-16.74 -9.25,0 -16.74,7.49 -16.74,16.74 z" /><g
       id="g86"><g
         clip-path="url(#clipPath92)"
         id="g88"><text
           id="text96"
           style="font-variant:normal;font-weight:normal;font-size:20.04000092px;font-family:Calibri;-inkscape-font-specification:Calibri;writing-mode:lr-tb;fill:#000000;fill-opacity:1;fill-rule:nonzero;stroke:none"
           transform="matrix(1,0,0,-1,339.94,321.46)"><tspan
             id="tspan94"
             y="0"
             x="0 10.19998">12</tspan></text>
</g></g><path
       id="path98"
       style="fill:none;stroke:#000000;stroke-width:0.47999999;stroke-linecap:butt;stroke-linejoin:miter;stroke-miterlimit:10;stroke-dasharray:none;stroke-opacity:1"
       d="m 338.26,340.08 -78.1,26.64" /><path
       id="path100"
       style="fill:#bfbfbf;fill-opacity:1;fill-rule:evenodd;stroke:none"
       d="m 76.56,266.34 c 0,9.25 7.495,16.74 16.74,16.74 9.25,0 16.74,-7.49 16.74,-16.74 0,-9.25 -7.49,-16.74 -16.74,-16.74 -9.245,0 -16.74,7.49 -16.74,16.74 z" /><path
       id="path102"
       style="fill:none;stroke:#000000;stroke-width:0.95999998;stroke-linecap:butt;stroke-linejoin:miter;stroke-miterlimit:10;stroke-dasharray:none;stroke-opacity:1"
       d="m 76.56,266.34 c 0,9.25 7.495,16.74 16.74,16.74 9.25,0 16.74,-7.49 16.74,-16.74 0,-9.25 -7.49,-16.74 -16.74,-16.74 -9.245,0 -16.74,7.49 -16.74,16.74 z" /><g
       id="g104"><g
         clip-path="url(#clipPath110)"
         id="g106"><text
           id="text114"
           style="font-variant:normal;font-weight:normal;font-size:20.06399918px;font-family:Calibri;-inkscape-font-specification:Calibri;writing-mode:lr-tb;fill:#000000;fill-opacity:1;fill-rule:nonzero;stroke:none"
           transform="matrix(1,0,0,-1,88.176,259.54)"><tspan
             id="tspan112"
             y="0"
             x="0">6</tspan></text>
</g></g><path
       id="path116"
       style="fill:none;stroke:#000000;stroke-width:0.47999999;stroke-linecap:butt;stroke-linejoin:miter;stroke-miterlimit:10;stroke-dasharray:none;stroke-opacity:1"
       d="m 93.24,283.1 41.32,28.42" /><path
       id="path118"
       style="fill:#bfbfbf;fill-opacity:1;fill-rule:evenodd;stroke:none"
       d="m 175.2,266.34 c 0,9.25 7.49,16.74 16.74,16.74 9.25,0 16.74,-7.49 16.74,-16.74 0,-9.25 -7.49,-16.74 -16.74,-16.74 -9.25,0 -16.74,7.49 -16.74,16.74 z" /><path
       id="path120"
       style="fill:none;stroke:#000000;stroke-width:0.95999998;stroke-linecap:butt;stroke-linejoin:miter;stroke-miterlimit:10;stroke-dasharray:none;stroke-opacity:1"
       d="m 175.2,266.34 c 0,9.25 7.49,16.74 16.74,16.74 9.25,0 16.74,-7.49 16.74,-16.74 0,-9.25 -7.49,-16.74 -16.74,-16.74 -9.25,0 -16.74,7.49 -16.74,16.74 z" /><g
       id="g122"><g
         clip-path="url(#clipPath128)"
         id="g124"><text
           id="text132"
           style="font-variant:normal;font-weight:normal;font-size:20.06399918px;font-family:Calibri;-inkscape-font-specification:Calibri;writing-mode:lr-tb;fill:#000000;fill-opacity:1;fill-rule:nonzero;stroke:none"
           transform="matrix(1,0,0,-1,186.91,259.54)"><tspan
             id="tspan130"
             y="0"
             x="0">8</tspan></text>
</g></g><path
       id="path134"
       style="fill:none;stroke:#000000;stroke-width:0.47999999;stroke-linecap:butt;stroke-linejoin:miter;stroke-miterlimit:10;stroke-dasharray:none;stroke-opacity:1"
       d="m 191.98,283.1 -33.7,28.42" /><path
       id="path136"
       style="fill:#bfbfbf;fill-opacity:1;fill-rule:evenodd;stroke:none"
       d="m 290.64,266.1 c 0,9.25 7.49,16.74 16.74,16.74 9.25,0 16.74,-7.49 16.74,-16.74 0,-9.25 -7.49,-16.74 -16.74,-16.74 -9.25,0 -16.74,7.49 -16.74,16.74 z" /><path
       id="path138"
       style="fill:none;stroke:#000000;stroke-width:0.95999998;stroke-linecap:butt;stroke-linejoin:miter;stroke-miterlimit:10;stroke-dasharray:none;stroke-opacity:1"
       d="m 290.64,266.1 c 0,9.25 7.49,16.74 16.74,16.74 9.25,0 16.74,-7.49 16.74,-16.74 0,-9.25 -7.49,-16.74 -16.74,-16.74 -9.25,0 -16.74,7.49 -16.74,16.74 z" /><g
       id="g140"><g
         clip-path="url(#clipPath146)"
         id="g142"><text
           id="text150"
           style="font-variant:normal;font-weight:normal;font-size:20.04000092px;font-family:Calibri;-inkscape-font-specification:Calibri;writing-mode:lr-tb;fill:#000000;fill-opacity:1;fill-rule:nonzero;stroke:none"
           transform="matrix(1,0,0,-1,302.35,259.32)"><tspan
             id="tspan148"
             y="0"
             x="0">7</tspan></text>
</g></g><path
       id="path152"
       style="fill:none;stroke:#000000;stroke-width:0.47999999;stroke-linecap:butt;stroke-linejoin:miter;stroke-miterlimit:10;stroke-dasharray:none;stroke-opacity:1"
       d="m 307.44,282.9 30.88,33.54" /><path
       id="path154"
       style="fill:#bfbfbf;fill-opacity:1;fill-rule:evenodd;stroke:none"
       d="m 380.28,265.98 c 0,9.25 7.49,16.74 16.74,16.74 9.25,0 16.74,-7.49 16.74,-16.74 0,-9.25 -7.49,-16.74 -16.74,-16.74 -9.25,0 -16.74,7.49 -16.74,16.74 z" /><path
       id="path156"
       style="fill:none;stroke:#000000;stroke-width:0.95999998;stroke-linecap:butt;stroke-linejoin:miter;stroke-miterlimit:10;stroke-dasharray:none;stroke-opacity:1"
       d="m 380.28,265.98 c 0,9.25 7.49,16.74 16.74,16.74 9.25,0 16.74,-7.49 16.74,-16.74 0,-9.25 -7.49,-16.74 -16.74,-16.74 -9.25,0 -16.74,7.49 -16.74,16.74 z" /><g
       id="g158"><g
         clip-path="url(#clipPath164)"
         id="g160"><text
           id="text168"
           style="font-variant:normal;font-weight:normal;font-size:20.04000092px;font-family:Calibri;-inkscape-font-specification:Calibri;writing-mode:lr-tb;fill:#000000;fill-opacity:1;fill-rule:nonzero;stroke:none"
           transform="matrix(1,0,0,-1,391.94,259.15)"><tspan
             id="tspan166"
             y="0"
             x="0">9</tspan></text>
</g></g><path
       id="path170"
       style="fill:none;stroke:#000000;stroke-width:0.47999999;stroke-linecap:butt;stroke-linejoin:miter;stroke-miterlimit:10;stroke-dasharray:none;stroke-opacity:1"
       d="m 397.05,282.74 -35.01,33.7" /><path
       id="path172"
       style="fill:#bfbfbf;fill-opacity:1;fill-rule:evenodd;stroke:none"
       d="m 51.72,195.18 c 0,9.25 7.495,16.74 16.74,16.74 9.245,0 16.74,-7.49 16.74,-16.74 0,-9.25 -7.495,-16.74 -16.74,-16.74 -9.245,0 -16.74,7.49 -16.74,16.74 z" /><path
       id="path174"
       style="fill:none;stroke:#000000;stroke-width:0.95999998;stroke-linecap:butt;stroke-linejoin:miter;stroke-miterlimit:10;stroke-dasharray:none;stroke-opacity:1"
       d="m 51.72,195.18 c 0,9.25 7.495,16.74 16.74,16.74 9.245,0 16.74,-7.49 16.74,-16.74 0,-9.25 -7.495,-16.74 -16.74,-16.74 -9.245,0 -16.74,7.49 -16.74,16.74 z" /><g
       id="g176"><g
         clip-path="url(#clipPath182)"
         id="g178"><text
           id="text186"
           style="font-variant:normal;font-weight:normal;font-size:20.04000092px;font-family:Calibri;-inkscape-font-specification:Calibri;writing-mode:lr-tb;fill:#000000;fill-opacity:1;fill-rule:nonzero;stroke:none"
           transform="matrix(1,0,0,-1,63.408,188.42)"><tspan
             id="tspan184"
             y="0"
             x="0">1</tspan></text>
</g></g><path
       id="path188"
       style="fill:none;stroke:#000000;stroke-width:0.47999999;stroke-linecap:butt;stroke-linejoin:miter;stroke-miterlimit:10;stroke-dasharray:none;stroke-opacity:1"
       d="M 68.52,211.91 81.45,254.4" /><path
       id="path190"
       style="fill:#bfbfbf;fill-opacity:1;fill-rule:evenodd;stroke:none"
       d="m 96.12,195.18 c 0,9.25 7.52,16.74 16.8,16.74 9.28,0 16.8,-7.49 16.8,-16.74 0,-9.25 -7.52,-16.74 -16.8,-16.74 -9.28,0 -16.8,7.49 -16.8,16.74 z" /><path
       id="path192"
       style="fill:none;stroke:#000000;stroke-width:0.95999998;stroke-linecap:butt;stroke-linejoin:miter;stroke-miterlimit:10;stroke-dasharray:none;stroke-opacity:1"
       d="m 96.12,195.18 c 0,9.25 7.52,16.74 16.8,16.74 9.28,0 16.8,-7.49 16.8,-16.74 0,-9.25 -7.52,-16.74 -16.8,-16.74 -9.28,0 -16.8,7.49 -16.8,16.74 z" /><g
       id="g194"><g
         clip-path="url(#clipPath200)"
         id="g196"><text
           id="text204"
           style="font-variant:normal;font-weight:normal;font-size:20.04000092px;font-family:Calibri;-inkscape-font-specification:Calibri;writing-mode:lr-tb;fill:#000000;fill-opacity:1;fill-rule:nonzero;stroke:none"
           transform="matrix(1,0,0,-1,107.86,188.42)"><tspan
             id="tspan202"
             y="0"
             x="0">4</tspan></text>
</g></g><path
       id="path206"
       style="fill:none;stroke:#000000;stroke-width:0.47999999;stroke-linecap:butt;stroke-linejoin:miter;stroke-miterlimit:10;stroke-dasharray:none;stroke-opacity:1"
       d="m 112.94,211.91 -7.82,42.49" /><g
       id="g208"><g
         clip-path="url(#clipPath214)"
         id="g210"><path
           id="path216"
           style="fill:#ff0000;fill-opacity:1;fill-rule:nonzero;stroke:none"
           d="m 159.75,370.78 1.04,1.93 1.01,1.52 1.06,1.44 1.13,1.38 1.19,1.31 1.24,1.25 1.31,1.18 1.36,1.12 1.39,1.04 1.45,0.97 1.5,0.91 1.53,0.83 1.57,0.75 1.59,0.68 1.64,0.61 1.67,0.52 1.68,0.44 1.71,0.37 1.73,0.28 1.75,0.2 1.76,0.12 1.77,0.02 1.78,-0.06 1.78,-0.15 1.81,-0.24 2.14,-0.49 -0.44,-1.95 -2.1,0.48 0.09,-0.02 -1.74,0.24 0.05,-0.01 -1.73,0.14 h 0.05 l -1.73,0.06 h 0.04 l -1.71,-0.02 h 0.05 l -1.72,-0.11 h 0.05 l -1.7,-0.19 h 0.05 l -1.68,-0.27 0.05,0.01 -1.66,-0.36 0.04,0.01 -1.65,-0.43 0.05,0.02 -1.62,-0.51 0.05,0.02 -1.59,-0.6 0.04,0.02 -1.55,-0.66 0.04,0.02 -1.53,-0.74 0.05,0.03 -1.49,-0.81 0.04,0.03 -1.45,-0.89 0.04,0.03 -1.41,-0.95 0.04,0.03 -1.36,-1.01 0.04,0.03 -1.32,-1.09 0.03,0.03 -1.26,-1.15 0.03,0.04 -1.2,-1.21 0.03,0.03 -1.17,-1.28 0.04,0.04 -1.1,-1.34 0.03,0.04 -1.03,-1.4 0.03,0.05 -0.97,-1.47 0.05,0.08 -1.02,-1.89 z m 4.01,-0.87 -5.29,-4.11 -0.12,6.7 z m 35.21,20.98 4.96,-4.51 -6.59,-1.26 z" /></g></g><path
       id="path218"
       style="fill:#bfbfbf;fill-opacity:1;fill-rule:evenodd;stroke:none"
       d="m 151.44,195.18 c 0,9.25 7.49,16.74 16.74,16.74 9.25,0 16.74,-7.49 16.74,-16.74 0,-9.25 -7.49,-16.74 -16.74,-16.74 -9.25,0 -16.74,7.49 -16.74,16.74 z" /><path
       id="path220"
       style="fill:none;stroke:#000000;stroke-width:0.95999998;stroke-linecap:butt;stroke-linejoin:miter;stroke-miterlimit:10;stroke-dasharray:none;stroke-opacity:1"
       d="m 151.44,195.18 c 0,9.25 7.49,16.74 16.74,16.74 9.25,0 16.74,-7.49 16.74,-16.74 0,-9.25 -7.49,-16.74 -16.74,-16.74 -9.25,0 -16.74,7.49 -16.74,16.74 z" /><g
       id="g222"><g
         clip-path="url(#clipPath228)"
         id="g224"><text
           id="text232"
           style="font-variant:normal;font-weight:normal;font-size:20.04000092px;font-family:Calibri;-inkscape-font-specification:Calibri;writing-mode:lr-tb;fill:#000000;fill-opacity:1;fill-rule:nonzero;stroke:none"
           transform="matrix(1,0,0,-1,163.06,188.42)"><tspan
             id="tspan230"
             y="0"
             x="0">4</tspan></text>
</g></g><path
       id="path234"
       style="fill:none;stroke:#000000;stroke-width:0.47999999;stroke-linecap:butt;stroke-linejoin:miter;stroke-miterlimit:10;stroke-dasharray:none;stroke-opacity:1"
       d="m 168.12,211.91 11.99,42.49" /><path
       id="path236"
       style="fill:#548235;fill-opacity:1;fill-rule:evenodd;stroke:none"
       d="m 702.6,377.22 c 0,9.25 7.49,16.74 16.74,16.74 9.25,0 16.74,-7.49 16.74,-16.74 0,-9.25 -7.49,-16.74 -16.74,-16.74 -9.25,0 -16.74,7.49 -16.74,16.74 z" /><path
       id="path238"
       style="fill:none;stroke:#000000;stroke-width:0.95999998;stroke-linecap:butt;stroke-linejoin:miter;stroke-miterlimit:10;stroke-dasharray:none;stroke-opacity:1"
       d="m 702.6,377.22 c 0,9.25 7.49,16.74 16.74,16.74 9.25,0 16.74,-7.49 16.74,-16.74 0,-9.25 -7.49,-16.74 -16.74,-16.74 -9.25,0 -16.74,7.49 -16.74,16.74 z" /><g
       id="g240"><g
         clip-path="url(#clipPath246)"
         id="g242"><text
           id="text250"
           style="font-variant:normal;font-weight:normal;font-size:20.04000092px;font-family:Calibri;-inkscape-font-specification:Calibri;writing-mode:lr-tb;fill:#ffffff;fill-opacity:1;fill-rule:nonzero;stroke:none"
           transform="matrix(1,0,0,-1,709.22,370.42)"><tspan
             id="tspan248"
             y="0"
             x="0 10.19998">17</tspan></text>
</g></g><path
       id="path252"
       style="fill:#2e75b6;fill-opacity:1;fill-rule:evenodd;stroke:none"
       d="m 600.72,321.9 c 0,9.25 7.49,16.74 16.74,16.74 9.25,0 16.74,-7.49 16.74,-16.74 0,-9.25 -7.49,-16.74 -16.74,-16.74 -9.25,0 -16.74,7.49 -16.74,16.74 z" /><path
       id="path254"
       style="fill:none;stroke:#000000;stroke-width:0.95999998;stroke-linecap:butt;stroke-linejoin:miter;stroke-miterlimit:10;stroke-dasharray:none;stroke-opacity:1"
       d="m 600.72,321.9 c 0,9.25 7.49,16.74 16.74,16.74 9.25,0 16.74,-7.49 16.74,-16.74 0,-9.25 -7.49,-16.74 -16.74,-16.74 -9.25,0 -16.74,7.49 -16.74,16.74 z" /><g
       id="g256"><g
         clip-path="url(#clipPath262)"
         id="g258"><text
           id="text266"
           style="font-variant:normal;font-weight:normal;font-size:20.04000092px;font-family:Calibri;-inkscape-font-specification:Calibri;writing-mode:lr-tb;fill:#ffffff;fill-opacity:1;fill-rule:nonzero;stroke:none"
           transform="matrix(1,0,0,-1,607.27,315.17)"><tspan
             id="tspan264"
             y="0"
             x="0 10.19998">15</tspan></text>
</g></g><path
       id="path268"
       style="fill:none;stroke:#000000;stroke-width:0.47999999;stroke-linecap:butt;stroke-linejoin:miter;stroke-miterlimit:10;stroke-dasharray:none;stroke-opacity:1"
       d="m 629.28,333.73 78.23,31.55" /><path
       id="path270"
       style="fill:#bfbfbf;fill-opacity:1;fill-rule:evenodd;stroke:none"
       d="m 804.36,326.82 c 0,9.25 7.52,16.74 16.8,16.74 9.28,0 16.8,-7.49 16.8,-16.74 0,-9.25 -7.52,-16.74 -16.8,-16.74 -9.28,0 -16.8,7.49 -16.8,16.74 z" /><path
       id="path272"
       style="fill:none;stroke:#000000;stroke-width:0.95999998;stroke-linecap:butt;stroke-linejoin:miter;stroke-miterlimit:10;stroke-dasharray:none;stroke-opacity:1"
       d="m 804.36,326.82 c 0,9.25 7.52,16.74 16.8,16.74 9.28,0 16.8,-7.49 16.8,-16.74 0,-9.25 -7.52,-16.74 -16.8,-16.74 -9.28,0 -16.8,7.49 -16.8,16.74 z" /><g
       id="g274"><g
         clip-path="url(#clipPath280)"
         id="g276"><text
           id="text284"
           style="font-variant:normal;font-weight:normal;font-size:20.04000092px;font-family:Calibri;-inkscape-font-specification:Calibri;writing-mode:lr-tb;fill:#000000;fill-opacity:1;fill-rule:nonzero;stroke:none"
           transform="matrix(1,0,0,-1,811.03,320.09)"><tspan
             id="tspan282"
             y="0"
             x="0 10.19998">12</tspan></text>
</g></g><path
       id="path286"
       style="fill:none;stroke:#000000;stroke-width:0.47999999;stroke-linecap:butt;stroke-linejoin:miter;stroke-miterlimit:10;stroke-dasharray:none;stroke-opacity:1"
       d="m 809.26,338.64 -78.1,26.64" /><path
       id="path288"
       style="fill:#bfbfbf;fill-opacity:1;fill-rule:evenodd;stroke:none"
       d="m 547.56,264.9 c 0,9.25 7.49,16.74 16.74,16.74 9.25,0 16.74,-7.49 16.74,-16.74 0,-9.25 -7.49,-16.74 -16.74,-16.74 -9.25,0 -16.74,7.49 -16.74,16.74 z" /><path
       id="path290"
       style="fill:none;stroke:#000000;stroke-width:0.95999998;stroke-linecap:butt;stroke-linejoin:miter;stroke-miterlimit:10;stroke-dasharray:none;stroke-opacity:1"
       d="m 547.56,264.9 c 0,9.25 7.49,16.74 16.74,16.74 9.25,0 16.74,-7.49 16.74,-16.74 0,-9.25 -7.49,-16.74 -16.74,-16.74 -9.25,0 -16.74,7.49 -16.74,16.74 z" /><g
       id="g292"><g
         clip-path="url(#clipPath298)"
         id="g294"><text
           id="text302"
           style="font-variant:normal;font-weight:normal;font-size:20.04000092px;font-family:Calibri;-inkscape-font-specification:Calibri;writing-mode:lr-tb;fill:#000000;fill-opacity:1;fill-rule:nonzero;stroke:none"
           transform="matrix(1,0,0,-1,559.27,258.14)"><tspan
             id="tspan300"
             y="0"
             x="0">6</tspan></text>
</g></g><path
       id="path304"
       style="fill:none;stroke:#000000;stroke-width:0.47999999;stroke-linecap:butt;stroke-linejoin:miter;stroke-miterlimit:10;stroke-dasharray:none;stroke-opacity:1"
       d="m 564.24,281.66 41.32,28.42" /><path
       id="path306"
       style="fill:#bfbfbf;fill-opacity:1;fill-rule:evenodd;stroke:none"
       d="m 646.2,264.9 c 0,9.25 7.52,16.74 16.8,16.74 9.28,0 16.8,-7.49 16.8,-16.74 0,-9.25 -7.52,-16.74 -16.8,-16.74 -9.28,0 -16.8,7.49 -16.8,16.74 z" /><path
       id="path308"
       style="fill:none;stroke:#000000;stroke-width:0.95999998;stroke-linecap:butt;stroke-linejoin:miter;stroke-miterlimit:10;stroke-dasharray:none;stroke-opacity:1"
       d="m 646.2,264.9 c 0,9.25 7.52,16.74 16.8,16.74 9.28,0 16.8,-7.49 16.8,-16.74 0,-9.25 -7.52,-16.74 -16.8,-16.74 -9.28,0 -16.8,7.49 -16.8,16.74 z" /><g
       id="g310"><g
         clip-path="url(#clipPath316)"
         id="g312"><text
           id="text320"
           style="font-variant:normal;font-weight:normal;font-size:20.04000092px;font-family:Calibri;-inkscape-font-specification:Calibri;writing-mode:lr-tb;fill:#000000;fill-opacity:1;fill-rule:nonzero;stroke:none"
           transform="matrix(1,0,0,-1,657.98,258.14)"><tspan
             id="tspan318"
             y="0"
             x="0">8</tspan></text>
</g></g><path
       id="path322"
       style="fill:none;stroke:#000000;stroke-width:0.47999999;stroke-linecap:butt;stroke-linejoin:miter;stroke-miterlimit:10;stroke-dasharray:none;stroke-opacity:1"
       d="m 662.98,281.66 -33.7,28.42" /><path
       id="path324"
       style="fill:#bfbfbf;fill-opacity:1;fill-rule:evenodd;stroke:none"
       d="m 761.64,264.72 c 0,9.28 7.52,16.8 16.8,16.8 9.28,0 16.8,-7.52 16.8,-16.8 0,-9.28 -7.52,-16.8 -16.8,-16.8 -9.28,0 -16.8,7.52 -16.8,16.8 z" /><path
       id="path326"
       style="fill:none;stroke:#000000;stroke-width:0.95999998;stroke-linecap:butt;stroke-linejoin:miter;stroke-miterlimit:10;stroke-dasharray:none;stroke-opacity:1"
       d="m 761.64,264.72 c 0,9.28 7.52,16.8 16.8,16.8 9.28,0 16.8,-7.52 16.8,-16.8 0,-9.28 -7.52,-16.8 -16.8,-16.8 -9.28,0 -16.8,7.52 -16.8,16.8 z" /><g
       id="g328"><g
         clip-path="url(#clipPath334)"
         id="g330"><text
           id="text338"
           style="font-variant:normal;font-weight:normal;font-size:20.04000092px;font-family:Calibri;-inkscape-font-specification:Calibri;writing-mode:lr-tb;fill:#000000;fill-opacity:1;fill-rule:nonzero;stroke:none"
           transform="matrix(1,0,0,-1,773.45,257.93)"><tspan
             id="tspan336"
             y="0"
             x="0">7</tspan></text>
</g></g><path
       id="path340"
       style="fill:none;stroke:#000000;stroke-width:0.47999999;stroke-linecap:butt;stroke-linejoin:miter;stroke-miterlimit:10;stroke-dasharray:none;stroke-opacity:1"
       d="M 778.44,281.46 809.32,315" /><path
       id="path342"
       style="fill:#bfbfbf;fill-opacity:1;fill-rule:evenodd;stroke:none"
       d="m 851.28,264.54 c 0,9.25 7.49,16.74 16.74,16.74 9.25,0 16.74,-7.49 16.74,-16.74 0,-9.25 -7.49,-16.74 -16.74,-16.74 -9.25,0 -16.74,7.49 -16.74,16.74 z" /><path
       id="path344"
       style="fill:none;stroke:#000000;stroke-width:0.95999998;stroke-linecap:butt;stroke-linejoin:miter;stroke-miterlimit:10;stroke-dasharray:none;stroke-opacity:1"
       d="m 851.28,264.54 c 0,9.25 7.49,16.74 16.74,16.74 9.25,0 16.74,-7.49 16.74,-16.74 0,-9.25 -7.49,-16.74 -16.74,-16.74 -9.25,0 -16.74,7.49 -16.74,16.74 z" /><g
       id="g346"><g
         clip-path="url(#clipPath352)"
         id="g348"><text
           id="text356"
           style="font-variant:normal;font-weight:normal;font-size:20.04000092px;font-family:Calibri;-inkscape-font-specification:Calibri;writing-mode:lr-tb;fill:#000000;fill-opacity:1;fill-rule:nonzero;stroke:none"
           transform="matrix(1,0,0,-1,863.04,257.78)"><tspan
             id="tspan354"
             y="0"
             x="0">9</tspan></text>
</g></g><path
       id="path358"
       style="fill:none;stroke:#000000;stroke-width:0.47999999;stroke-linecap:butt;stroke-linejoin:miter;stroke-miterlimit:10;stroke-dasharray:none;stroke-opacity:1"
       d="M 868.05,281.3 833.04,315" /><path
       id="path360"
       style="fill:#bfbfbf;fill-opacity:1;fill-rule:evenodd;stroke:none"
       d="m 522.72,193.86 c 0,9.25 7.52,16.74 16.8,16.74 9.28,0 16.8,-7.49 16.8,-16.74 0,-9.25 -7.52,-16.74 -16.8,-16.74 -9.28,0 -16.8,7.49 -16.8,16.74 z" /><path
       id="path362"
       style="fill:none;stroke:#000000;stroke-width:0.95999998;stroke-linecap:butt;stroke-linejoin:miter;stroke-miterlimit:10;stroke-dasharray:none;stroke-opacity:1"
       d="m 522.72,193.86 c 0,9.25 7.52,16.74 16.8,16.74 9.28,0 16.8,-7.49 16.8,-16.74 0,-9.25 -7.52,-16.74 -16.8,-16.74 -9.28,0 -16.8,7.49 -16.8,16.74 z" /><g
       id="g364"><g
         clip-path="url(#clipPath370)"
         id="g366"><text
           id="text374"
           style="font-variant:normal;font-weight:normal;font-size:20.06399918px;font-family:Calibri;-inkscape-font-specification:Calibri;writing-mode:lr-tb;fill:#000000;fill-opacity:1;fill-rule:nonzero;stroke:none"
           transform="matrix(1,0,0,-1,534.48,187.06)"><tspan
             id="tspan372"
             y="0"
             x="0">1</tspan></text>
</g></g><path
       id="path376"
       style="fill:none;stroke:#000000;stroke-width:0.47999999;stroke-linecap:butt;stroke-linejoin:miter;stroke-miterlimit:10;stroke-dasharray:none;stroke-opacity:1"
       d="m 539.52,210.59 12.93,42.49" /><path
       id="path378"
       style="fill:#bfbfbf;fill-opacity:1;fill-rule:evenodd;stroke:none"
       d="m 567.24,193.86 c 0,9.25 7.49,16.74 16.74,16.74 9.25,0 16.74,-7.49 16.74,-16.74 0,-9.25 -7.49,-16.74 -16.74,-16.74 -9.25,0 -16.74,7.49 -16.74,16.74 z" /><path
       id="path380"
       style="fill:none;stroke:#000000;stroke-width:0.95999998;stroke-linecap:butt;stroke-linejoin:miter;stroke-miterlimit:10;stroke-dasharray:none;stroke-opacity:1"
       d="m 567.24,193.86 c 0,9.25 7.49,16.74 16.74,16.74 9.25,0 16.74,-7.49 16.74,-16.74 0,-9.25 -7.49,-16.74 -16.74,-16.74 -9.25,0 -16.74,7.49 -16.74,16.74 z" /><g
       id="g382"><g
         clip-path="url(#clipPath388)"
         id="g384"><text
           id="text392"
           style="font-variant:normal;font-weight:normal;font-size:20.06399918px;font-family:Calibri;-inkscape-font-specification:Calibri;writing-mode:lr-tb;fill:#000000;fill-opacity:1;fill-rule:nonzero;stroke:none"
           transform="matrix(1,0,0,-1,578.93,187.06)"><tspan
             id="tspan390"
             y="0"
             x="0">4</tspan></text>
</g></g><path
       id="path394"
       style="fill:none;stroke:#000000;stroke-width:0.47999999;stroke-linecap:butt;stroke-linejoin:miter;stroke-miterlimit:10;stroke-dasharray:none;stroke-opacity:1"
       d="m 583.94,210.59 -7.82,42.49" /><path
       id="path396"
       style="fill:#bfbfbf;fill-opacity:1;fill-rule:evenodd;stroke:none"
       d="m 622.44,193.86 c 0,9.25 7.49,16.74 16.74,16.74 9.25,0 16.74,-7.49 16.74,-16.74 0,-9.25 -7.49,-16.74 -16.74,-16.74 -9.25,0 -16.74,7.49 -16.74,16.74 z" /><path
       id="path398"
       style="fill:none;stroke:#000000;stroke-width:0.95999998;stroke-linecap:butt;stroke-linejoin:miter;stroke-miterlimit:10;stroke-dasharray:none;stroke-opacity:1"
       d="m 622.44,193.86 c 0,9.25 7.49,16.74 16.74,16.74 9.25,0 16.74,-7.49 16.74,-16.74 0,-9.25 -7.49,-16.74 -16.74,-16.74 -9.25,0 -16.74,7.49 -16.74,16.74 z" /><g
       id="g400"><g
         clip-path="url(#clipPath406)"
         id="g402"><text
           id="text410"
           style="font-variant:normal;font-weight:normal;font-size:20.06399918px;font-family:Calibri;-inkscape-font-specification:Calibri;writing-mode:lr-tb;fill:#000000;fill-opacity:1;fill-rule:nonzero;stroke:none"
           transform="matrix(1,0,0,-1,634.15,187.06)"><tspan
             id="tspan408"
             y="0"
             x="0">4</tspan></text>
</g></g><path
       id="path412"
       style="fill:none;stroke:#000000;stroke-width:0.47999999;stroke-linecap:butt;stroke-linejoin:miter;stroke-miterlimit:10;stroke-dasharray:none;stroke-opacity:1"
       d="m 639.12,210.59 11.99,42.49" /></g></svg>