<?xml version="1.0" encoding="UTF-8" standalone="no"?>
<svg
   xmlns:dc="http://purl.org/dc/elements/1.1/"
   xmlns:cc="http://creativecommons.org/ns#"
   xmlns:rdf="http://www.w3.org/1999/02/22-rdf-syntax-ns#"
   xmlns:svg="http://www.w3.org/2000/svg"
   xmlns="http://www.w3.org/2000/svg"
   viewBox="0 0 1280 720"
   width="100%"
   xml:space="preserve"
   id="svg2"
   version="1.1"><metadata
     id="metadata8"><rdf:RDF><cc:Work
         rdf:about=""><dc:format>image/svg+xml</dc:format><dc:type
           rdf:resource="http://purl.org/dc/dcmitype/StillImage" /></cc:Work></rdf:RDF></metadata><defs
     id="defs6"><clipPath
       id="clipPath18"
       clipPathUnits="userSpaceOnUse"><path
         style="clip-rule:evenodd"
         id="path16"
         d="M 0,1.2207e-4 H 960 V 540.00012 H 0 Z" /></clipPath><clipPath
       id="clipPath32"
       clipPathUnits="userSpaceOnUse"><path
         style="clip-rule:evenodd"
         id="path30"
         d="M 1.4305e-5,0 H 960.00001 V 540 H 1.4305e-5 Z" /></clipPath><clipPath
       id="clipPath48"
       clipPathUnits="userSpaceOnUse"><path
         style="clip-rule:evenodd"
         id="path46"
         d="M 1.4305e-5,0 H 960.00001 V 540 H 1.4305e-5 Z" /></clipPath><clipPath
       id="clipPath66"
       clipPathUnits="userSpaceOnUse"><path
         style="clip-rule:evenodd"
         id="path64"
         d="M 1.4305e-5,0 H 960.00001 V 540 H 1.4305e-5 Z" /></clipPath><clipPath
       id="clipPath84"
       clipPathUnits="userSpaceOnUse"><path
         style="clip-rule:evenodd"
         id="path82"
         d="M 1.4305e-5,0 H 960.00001 V 540 H 1.4305e-5 Z" /></clipPath><clipPath
       id="clipPath102"
       clipPathUnits="userSpaceOnUse"><path
         style="clip-rule:evenodd"
         id="path100"
         d="M 1.4305e-5,0 H 960.00001 V 540 H 1.4305e-5 Z" /></clipPath><clipPath
       id="clipPath120"
       clipPathUnits="userSpaceOnUse"><path
         style="clip-rule:evenodd"
         id="path118"
         d="M 1.4305e-5,0 H 960.00001 V 540 H 1.4305e-5 Z" /></clipPath><clipPath
       id="clipPath138"
       clipPathUnits="userSpaceOnUse"><path
         style="clip-rule:evenodd"
         id="path136"
         d="M 1.4305e-5,0 H 960.00001 V 540 H 1.4305e-5 Z" /></clipPath><clipPath
       id="clipPath156"
       clipPathUnits="userSpaceOnUse"><path
         style="clip-rule:evenodd"
         id="path154"
         d="M 1.4305e-5,0 H 960.00001 V 540 H 1.4305e-5 Z" /></clipPath><clipPath
       id="clipPath174"
       clipPathUnits="userSpaceOnUse"><path
         style="clip-rule:evenodd"
         id="path172"
         d="M 1.4305e-5,0 H 960.00001 V 540 H 1.4305e-5 Z" /></clipPath><clipPath
       id="clipPath192"
       clipPathUnits="userSpaceOnUse"><path
         style="clip-rule:evenodd"
         id="path190"
         d="M 1.4305e-5,0 H 960.00001 V 540 H 1.4305e-5 Z" /></clipPath><clipPath
       id="clipPath208"
       clipPathUnits="userSpaceOnUse"><path
         style="clip-rule:evenodd"
         id="path206"
         d="M 1.4305e-5,0 H 960.00001 V 540 H 1.4305e-5 Z" /></clipPath><clipPath
       id="clipPath226"
       clipPathUnits="userSpaceOnUse"><path
         style="clip-rule:evenodd"
         id="path224"
         d="M 1.4305e-5,0 H 960.00001 V 540 H 1.4305e-5 Z" /></clipPath><clipPath
       id="clipPath244"
       clipPathUnits="userSpaceOnUse"><path
         style="clip-rule:evenodd"
         id="path242"
         d="M 1.4305e-5,0 H 960.00001 V 540 H 1.4305e-5 Z" /></clipPath><clipPath
       id="clipPath262"
       clipPathUnits="userSpaceOnUse"><path
         style="clip-rule:evenodd"
         id="path260"
         d="M 1.4305e-5,0 H 960.00001 V 540 H 1.4305e-5 Z" /></clipPath><clipPath
       id="clipPath280"
       clipPathUnits="userSpaceOnUse"><path
         style="clip-rule:evenodd"
         id="path278"
         d="M 1.4305e-5,0 H 960.00001 V 540 H 1.4305e-5 Z" /></clipPath><clipPath
       id="clipPath298"
       clipPathUnits="userSpaceOnUse"><path
         style="clip-rule:evenodd"
         id="path296"
         d="M 1.4305e-5,0 H 960.00001 V 540 H 1.4305e-5 Z" /></clipPath><clipPath
       id="clipPath316"
       clipPathUnits="userSpaceOnUse"><path
         style="clip-rule:evenodd"
         id="path314"
         d="M 1.4305e-5,0 H 960.00001 V 540 H 1.4305e-5 Z" /></clipPath><clipPath
       id="clipPath334"
       clipPathUnits="userSpaceOnUse"><path
         style="clip-rule:evenodd"
         id="path332"
         d="M 1.4305e-5,0 H 960.00001 V 540 H 1.4305e-5 Z" /></clipPath><clipPath
       id="clipPath394"
       clipPathUnits="userSpaceOnUse"><path
         style="clip-rule:evenodd"
         id="path392"
         d="M 1.4305e-5,0 H 960.00001 V 540 H 1.4305e-5 Z" /></clipPath><clipPath
       id="clipPath406"
       clipPathUnits="userSpaceOnUse"><path
         style="clip-rule:evenodd"
         id="path404"
         d="M 1.4305e-5,0 H 960.00001 V 540 H 1.4305e-5 Z" /></clipPath><clipPath
       id="clipPath418"
       clipPathUnits="userSpaceOnUse"><path
         style="clip-rule:evenodd"
         id="path416"
         d="M 1.4305e-5,0 H 960.00001 V 540 H 1.4305e-5 Z" /></clipPath><clipPath
       id="clipPath430"
       clipPathUnits="userSpaceOnUse"><path
         style="clip-rule:evenodd"
         id="path428"
         d="M 1.4305e-5,0 H 960.00001 V 540 H 1.4305e-5 Z" /></clipPath><clipPath
       id="clipPath442"
       clipPathUnits="userSpaceOnUse"><path
         style="clip-rule:evenodd"
         id="path440"
         d="m 427.68,0 h 62.04 v 246.36 h -62.04 z" /></clipPath><clipPath
       id="clipPath454"
       clipPathUnits="userSpaceOnUse"><path
         style="clip-rule:evenodd"
         id="path452"
         d="m 427.68,0 h 62.04 v 246.36 h -62.04 z" /></clipPath><clipPath
       id="clipPath466"
       clipPathUnits="userSpaceOnUse"><path
         style="clip-rule:evenodd"
         id="path464"
         d="M 1.4305e-5,0 H 960.00001 V 540 H 1.4305e-5 Z" /></clipPath><clipPath
       id="clipPath478"
       clipPathUnits="userSpaceOnUse"><path
         style="clip-rule:evenodd"
         id="path476"
         d="M 1.4305e-5,0 H 960.00001 V 540 H 1.4305e-5 Z" /></clipPath><clipPath
       id="clipPath490"
       clipPathUnits="userSpaceOnUse"><path
         style="clip-rule:evenodd"
         id="path488"
         d="m 613.44,0 h 62.04 v 246.36 h -62.04 z" /></clipPath><clipPath
       id="clipPath502"
       clipPathUnits="userSpaceOnUse"><path
         style="clip-rule:evenodd"
         id="path500"
         d="m 613.44,0 h 62.04 v 246.36 h -62.04 z" /></clipPath><clipPath
       id="clipPath514"
       clipPathUnits="userSpaceOnUse"><path
         style="clip-rule:evenodd"
         id="path512"
         d="M 1.4305e-5,0 H 960.00001 V 540 H 1.4305e-5 Z" /></clipPath><clipPath
       id="clipPath526"
       clipPathUnits="userSpaceOnUse"><path
         style="clip-rule:evenodd"
         id="path524"
         d="M 1.4305e-5,0 H 960.00001 V 540 H 1.4305e-5 Z" /></clipPath><clipPath
       id="clipPath548"
       clipPathUnits="userSpaceOnUse"><path
         style="clip-rule:evenodd"
         id="path546"
         d="M 1.4305e-5,0 H 960.00001 V 540 H 1.4305e-5 Z" /></clipPath><clipPath
       id="clipPath560"
       clipPathUnits="userSpaceOnUse"><path
         style="clip-rule:evenodd"
         id="path558"
         d="M 1.4305e-5,0 H 960.00001 V 540 H 1.4305e-5 Z" /></clipPath><clipPath
       id="clipPath572"
       clipPathUnits="userSpaceOnUse"><path
         style="clip-rule:evenodd"
         id="path570"
         d="M 1.4305e-5,0 H 960.00001 V 540 H 1.4305e-5 Z" /></clipPath><clipPath
       id="clipPath584"
       clipPathUnits="userSpaceOnUse"><path
         style="clip-rule:evenodd"
         id="path582"
         d="M 1.4305e-5,0 H 960.00001 V 540 H 1.4305e-5 Z" /></clipPath></defs><g
     transform="matrix(1.3333333,0,0,-1.3333333,0,720)"
     id="g10"><g
       id="g12"><g
         clip-path="url(#clipPath18)"
         id="g14"><path
           id="path20"
           style="fill:#fcfcfc;fill-opacity:1;fill-rule:evenodd;stroke:none"
           d="M 0,6.1035e-5 H 960 V 540.00006 H 0 Z" /></g></g><path
       id="path22"
       style="fill:#bfbfbf;fill-opacity:1;fill-rule:evenodd;stroke:none"
       d="m 237,472.44 c 0,13.12 10.64,23.76 23.76,23.76 13.12,0 23.76,-10.64 23.76,-23.76 0,-13.12 -10.64,-23.76 -23.76,-23.76 -13.12,0 -23.76,10.64 -23.76,23.76 z" /><path
       id="path24"
       style="fill:none;stroke:#000000;stroke-width:0.95999998;stroke-linecap:butt;stroke-linejoin:miter;stroke-miterlimit:10;stroke-dasharray:none;stroke-opacity:1"
       d="m 237,472.44 c 0,13.12 10.64,23.76 23.76,23.76 13.12,0 23.76,-10.64 23.76,-23.76 0,-13.12 -10.64,-23.76 -23.76,-23.76 -13.12,0 -23.76,10.64 -23.76,23.76 z" /><g
       id="g26"><g
         clip-path="url(#clipPath32)"
         id="g28"><text
           id="text36"
           style="font-variant:normal;font-weight:normal;font-size:18.02400017px;font-family:Calibri;-inkscape-font-specification:Calibri;writing-mode:lr-tb;fill:#ffffff;fill-opacity:1;fill-rule:nonzero;stroke:none"
           transform="matrix(1,0,0,-1,256.13,466.42)"><tspan
             id="tspan34"
             y="0"
             x="0">1</tspan></text>
</g></g><path
       id="path38"
       style="fill:#bfbfbf;fill-opacity:1;fill-rule:evenodd;stroke:none"
       d="m 164.4,391.08 c 0,13.12 10.64,23.76 23.76,23.76 13.12,0 23.76,-10.64 23.76,-23.76 0,-13.12 -10.64,-23.76 -23.76,-23.76 -13.12,0 -23.76,10.64 -23.76,23.76 z" /><path
       id="path40"
       style="fill:none;stroke:#000000;stroke-width:0.95999998;stroke-linecap:butt;stroke-linejoin:miter;stroke-miterlimit:10;stroke-dasharray:none;stroke-opacity:1"
       d="m 164.4,391.08 c 0,13.12 10.64,23.76 23.76,23.76 13.12,0 23.76,-10.64 23.76,-23.76 0,-13.12 -10.64,-23.76 -23.76,-23.76 -13.12,0 -23.76,10.64 -23.76,23.76 z" /><g
       id="g42"><g
         clip-path="url(#clipPath48)"
         id="g44"><text
           id="text52"
           style="font-variant:normal;font-weight:normal;font-size:18px;font-family:Calibri;-inkscape-font-specification:Calibri;writing-mode:lr-tb;fill:#ffffff;fill-opacity:1;fill-rule:nonzero;stroke:none"
           transform="matrix(1,0,0,-1,183.48,385.08)"><tspan
             id="tspan50"
             y="0"
             x="0">8</tspan></text>
</g></g><path
       id="path54"
       style="fill:none;stroke:#000000;stroke-width:0.47999999;stroke-linecap:butt;stroke-linejoin:miter;stroke-miterlimit:10;stroke-dasharray:none;stroke-opacity:1"
       d="m 204.96,407.92 39.03,47.72" /><path
       id="path56"
       style="fill:#bfbfbf;fill-opacity:1;fill-rule:evenodd;stroke:none"
       d="m 309.6,391.08 c 0,13.12 10.64,23.76 23.76,23.76 13.12,0 23.76,-10.64 23.76,-23.76 0,-13.12 -10.64,-23.76 -23.76,-23.76 -13.12,0 -23.76,10.64 -23.76,23.76 z" /><path
       id="path58"
       style="fill:none;stroke:#000000;stroke-width:0.95999998;stroke-linecap:butt;stroke-linejoin:miter;stroke-miterlimit:10;stroke-dasharray:none;stroke-opacity:1"
       d="m 309.6,391.08 c 0,13.12 10.64,23.76 23.76,23.76 13.12,0 23.76,-10.64 23.76,-23.76 0,-13.12 -10.64,-23.76 -23.76,-23.76 -13.12,0 -23.76,10.64 -23.76,23.76 z" /><g
       id="g60"><g
         clip-path="url(#clipPath66)"
         id="g62"><text
           id="text70"
           style="font-variant:normal;font-weight:normal;font-size:18px;font-family:Calibri;-inkscape-font-specification:Calibri;writing-mode:lr-tb;fill:#ffffff;fill-opacity:1;fill-rule:nonzero;stroke:none"
           transform="matrix(1,0,0,-1,328.75,385.08)"><tspan
             id="tspan68"
             y="0"
             x="0">9</tspan></text>
</g></g><path
       id="path72"
       style="fill:none;stroke:#000000;stroke-width:0.47999999;stroke-linecap:butt;stroke-linejoin:miter;stroke-miterlimit:10;stroke-dasharray:none;stroke-opacity:1"
       d="m 316.59,407.92 -39.03,47.72" /><path
       id="path74"
       style="fill:#548235;fill-opacity:1;fill-rule:evenodd;stroke:none"
       d="m 127.56,309.84 c 0,13.12 10.64,23.76 23.76,23.76 13.12,0 23.76,-10.64 23.76,-23.76 0,-13.12 -10.64,-23.76 -23.76,-23.76 -13.12,0 -23.76,10.64 -23.76,23.76 z" /><path
       id="path76"
       style="fill:none;stroke:#000000;stroke-width:0.95999998;stroke-linecap:butt;stroke-linejoin:miter;stroke-miterlimit:10;stroke-dasharray:none;stroke-opacity:1"
       d="m 127.56,309.84 c 0,13.12 10.64,23.76 23.76,23.76 13.12,0 23.76,-10.64 23.76,-23.76 0,-13.12 -10.64,-23.76 -23.76,-23.76 -13.12,0 -23.76,10.64 -23.76,23.76 z" /><g
       id="g78"><g
         clip-path="url(#clipPath84)"
         id="g80"><text
           id="text88"
           style="font-variant:normal;font-weight:normal;font-size:18px;font-family:Calibri;-inkscape-font-specification:Calibri;writing-mode:lr-tb;fill:#ffffff;fill-opacity:1;fill-rule:nonzero;stroke:none"
           transform="matrix(1,0,0,-1,142.18,303.77)"><tspan
             id="tspan86"
             y="0"
             x="0 9.1440001">15</tspan></text>
</g></g><path
       id="path90"
       style="fill:none;stroke:#000000;stroke-width:0.47999999;stroke-linecap:butt;stroke-linejoin:miter;stroke-miterlimit:10;stroke-dasharray:none;stroke-opacity:1"
       d="m 151.32,333.52 19.95,40.76" /><path
       id="path92"
       style="fill:#bfbfbf;fill-opacity:1;fill-rule:evenodd;stroke:none"
       d="m 195.36,309.84 c 0,13.12 10.64,23.76 23.76,23.76 13.12,0 23.76,-10.64 23.76,-23.76 0,-13.12 -10.64,-23.76 -23.76,-23.76 -13.12,0 -23.76,10.64 -23.76,23.76 z" /><path
       id="path94"
       style="fill:none;stroke:#000000;stroke-width:0.95999998;stroke-linecap:butt;stroke-linejoin:miter;stroke-miterlimit:10;stroke-dasharray:none;stroke-opacity:1"
       d="m 195.36,309.84 c 0,13.12 10.64,23.76 23.76,23.76 13.12,0 23.76,-10.64 23.76,-23.76 0,-13.12 -10.64,-23.76 -23.76,-23.76 -13.12,0 -23.76,10.64 -23.76,23.76 z" /><g
       id="g96"><g
         clip-path="url(#clipPath102)"
         id="g98"><text
           id="text106"
           style="font-variant:normal;font-weight:normal;font-size:18px;font-family:Calibri;-inkscape-font-specification:Calibri;writing-mode:lr-tb;fill:#ffffff;fill-opacity:1;fill-rule:nonzero;stroke:none"
           transform="matrix(1,0,0,-1,214.54,303.77)"><tspan
             id="tspan104"
             y="0"
             x="0">4</tspan></text>
</g></g><path
       id="path108"
       style="fill:none;stroke:#000000;stroke-width:0.47999999;stroke-linecap:butt;stroke-linejoin:miter;stroke-miterlimit:10;stroke-dasharray:none;stroke-opacity:1"
       d="m 219.2,333.52 -14.24,40.76" /><path
       id="path110"
       style="fill:#bfbfbf;fill-opacity:1;fill-rule:evenodd;stroke:none"
       d="m 278.52,309.84 c 0,13.12 10.64,23.76 23.76,23.76 13.12,0 23.76,-10.64 23.76,-23.76 0,-13.12 -10.64,-23.76 -23.76,-23.76 -13.12,0 -23.76,10.64 -23.76,23.76 z" /><path
       id="path112"
       style="fill:none;stroke:#000000;stroke-width:0.95999998;stroke-linecap:butt;stroke-linejoin:miter;stroke-miterlimit:10;stroke-dasharray:none;stroke-opacity:1"
       d="m 278.52,309.84 c 0,13.12 10.64,23.76 23.76,23.76 13.12,0 23.76,-10.64 23.76,-23.76 0,-13.12 -10.64,-23.76 -23.76,-23.76 -13.12,0 -23.76,10.64 -23.76,23.76 z" /><g
       id="g114"><g
         clip-path="url(#clipPath120)"
         id="g116"><text
           id="text124"
           style="font-variant:normal;font-weight:normal;font-size:18px;font-family:Calibri;-inkscape-font-specification:Calibri;writing-mode:lr-tb;fill:#ffffff;fill-opacity:1;fill-rule:nonzero;stroke:none"
           transform="matrix(1,0,0,-1,297.7,303.77)"><tspan
             id="tspan122"
             y="0"
             x="0">7</tspan></text>
</g></g><path
       id="path126"
       style="fill:none;stroke:#000000;stroke-width:0.47999999;stroke-linecap:butt;stroke-linejoin:miter;stroke-miterlimit:10;stroke-dasharray:none;stroke-opacity:1"
       d="m 302.28,333.52 14.24,40.76" /><path
       id="path128"
       style="fill:#bfbfbf;fill-opacity:1;fill-rule:evenodd;stroke:none"
       d="m 346.32,309.84 c 0,13.12 10.64,23.76 23.76,23.76 13.12,0 23.76,-10.64 23.76,-23.76 0,-13.12 -10.64,-23.76 -23.76,-23.76 -13.12,0 -23.76,10.64 -23.76,23.76 z" /><path
       id="path130"
       style="fill:none;stroke:#000000;stroke-width:0.95999998;stroke-linecap:butt;stroke-linejoin:miter;stroke-miterlimit:10;stroke-dasharray:none;stroke-opacity:1"
       d="m 346.32,309.84 c 0,13.12 10.64,23.76 23.76,23.76 13.12,0 23.76,-10.64 23.76,-23.76 0,-13.12 -10.64,-23.76 -23.76,-23.76 -13.12,0 -23.76,10.64 -23.76,23.76 z" /><g
       id="g132"><g
         clip-path="url(#clipPath138)"
         id="g134"><text
           id="text142"
           style="font-variant:normal;font-weight:normal;font-size:18px;font-family:Calibri;-inkscape-font-specification:Calibri;writing-mode:lr-tb;fill:#ffffff;fill-opacity:1;fill-rule:nonzero;stroke:none"
           transform="matrix(1,0,0,-1,360.94,303.77)"><tspan
             id="tspan140"
             y="0"
             x="0 9.1199999">12</tspan></text>
</g></g><path
       id="path144"
       style="fill:none;stroke:#000000;stroke-width:0.47999999;stroke-linecap:butt;stroke-linejoin:miter;stroke-miterlimit:10;stroke-dasharray:none;stroke-opacity:1"
       d="m 370.11,333.52 -19.95,40.76" /><path
       id="path146"
       style="fill:#bfbfbf;fill-opacity:1;fill-rule:evenodd;stroke:none"
       d="m 90.72,226.2 c 0,13.12 10.64,23.76 23.76,23.76 13.12,0 23.76,-10.64 23.76,-23.76 0,-13.12 -10.64,-23.76 -23.76,-23.76 -13.12,0 -23.76,10.64 -23.76,23.76 z" /><path
       id="path148"
       style="fill:none;stroke:#000000;stroke-width:0.95999998;stroke-linecap:butt;stroke-linejoin:miter;stroke-miterlimit:10;stroke-dasharray:none;stroke-opacity:1"
       d="m 90.72,226.2 c 0,13.12 10.64,23.76 23.76,23.76 13.12,0 23.76,-10.64 23.76,-23.76 0,-13.12 -10.64,-23.76 -23.76,-23.76 -13.12,0 -23.76,10.64 -23.76,23.76 z" /><g
       id="g150"><g
         clip-path="url(#clipPath156)"
         id="g152"><text
           id="text160"
           style="font-variant:normal;font-weight:normal;font-size:18px;font-family:Calibri;-inkscape-font-specification:Calibri;writing-mode:lr-tb;fill:#ffffff;fill-opacity:1;fill-rule:nonzero;stroke:none"
           transform="matrix(1,0,0,-1,109.87,220.18)"><tspan
             id="tspan158"
             y="0"
             x="0">6</tspan></text>
</g></g><path
       id="path162"
       style="fill:none;stroke:#000000;stroke-width:0.47999999;stroke-linecap:butt;stroke-linejoin:miter;stroke-miterlimit:10;stroke-dasharray:none;stroke-opacity:1"
       d="m 114.48,250.03 20.08,43.01" /><path
       id="path164"
       style="fill:#bfbfbf;fill-opacity:1;fill-rule:evenodd;stroke:none"
       d="m 158.52,226.2 c 0,13.12 10.64,23.76 23.76,23.76 13.12,0 23.76,-10.64 23.76,-23.76 0,-13.12 -10.64,-23.76 -23.76,-23.76 -13.12,0 -23.76,10.64 -23.76,23.76 z" /><path
       id="path166"
       style="fill:none;stroke:#000000;stroke-width:0.95999998;stroke-linecap:butt;stroke-linejoin:miter;stroke-miterlimit:10;stroke-dasharray:none;stroke-opacity:1"
       d="m 158.52,226.2 c 0,13.12 10.64,23.76 23.76,23.76 13.12,0 23.76,-10.64 23.76,-23.76 0,-13.12 -10.64,-23.76 -23.76,-23.76 -13.12,0 -23.76,10.64 -23.76,23.76 z" /><g
       id="g168"><g
         clip-path="url(#clipPath174)"
         id="g170"><text
           id="text178"
           style="font-variant:normal;font-weight:normal;font-size:18px;font-family:Calibri;-inkscape-font-specification:Calibri;writing-mode:lr-tb;fill:#ffffff;fill-opacity:1;fill-rule:nonzero;stroke:none"
           transform="matrix(1,0,0,-1,177.65,220.18)"><tspan
             id="tspan176"
             y="0"
             x="0">4</tspan></text>
</g></g><path
       id="path180"
       style="fill:none;stroke:#000000;stroke-width:0.47999999;stroke-linecap:butt;stroke-linejoin:miter;stroke-miterlimit:10;stroke-dasharray:none;stroke-opacity:1"
       d="m 182.23,250.03 -14.11,43.01" /><path
       id="path182"
       style="fill:#bfbfbf;fill-opacity:1;fill-rule:evenodd;stroke:none"
       d="m 687.6,472.44 c 0,13.12 10.64,23.76 23.76,23.76 13.12,0 23.76,-10.64 23.76,-23.76 0,-13.12 -10.64,-23.76 -23.76,-23.76 -13.12,0 -23.76,10.64 -23.76,23.76 z" /><path
       id="path184"
       style="fill:none;stroke:#000000;stroke-width:0.95999998;stroke-linecap:butt;stroke-linejoin:miter;stroke-miterlimit:10;stroke-dasharray:none;stroke-opacity:1"
       d="m 687.6,472.44 c 0,13.12 10.64,23.76 23.76,23.76 13.12,0 23.76,-10.64 23.76,-23.76 0,-13.12 -10.64,-23.76 -23.76,-23.76 -13.12,0 -23.76,10.64 -23.76,23.76 z" /><g
       id="g186"><g
         clip-path="url(#clipPath192)"
         id="g188"><text
           id="text196"
           style="font-variant:normal;font-weight:normal;font-size:18.02400017px;font-family:Calibri;-inkscape-font-specification:Calibri;writing-mode:lr-tb;fill:#ffffff;fill-opacity:1;fill-rule:nonzero;stroke:none"
           transform="matrix(1,0,0,-1,706.78,466.42)"><tspan
             id="tspan194"
             y="0"
             x="0">1</tspan></text>
</g></g><path
       id="path198"
       style="fill:#bfbfbf;fill-opacity:1;fill-rule:evenodd;stroke:none"
       d="m 615,391.08 c 0,13.12 10.64,23.76 23.76,23.76 13.12,0 23.76,-10.64 23.76,-23.76 0,-13.12 -10.64,-23.76 -23.76,-23.76 -13.12,0 -23.76,10.64 -23.76,23.76 z" /><path
       id="path200"
       style="fill:none;stroke:#000000;stroke-width:0.95999998;stroke-linecap:butt;stroke-linejoin:miter;stroke-miterlimit:10;stroke-dasharray:none;stroke-opacity:1"
       d="m 615,391.08 c 0,13.12 10.64,23.76 23.76,23.76 13.12,0 23.76,-10.64 23.76,-23.76 0,-13.12 -10.64,-23.76 -23.76,-23.76 -13.12,0 -23.76,10.64 -23.76,23.76 z" /><g
       id="g202"><g
         clip-path="url(#clipPath208)"
         id="g204"><text
           id="text212"
           style="font-variant:normal;font-weight:normal;font-size:18px;font-family:Calibri;-inkscape-font-specification:Calibri;writing-mode:lr-tb;fill:#ffffff;fill-opacity:1;fill-rule:nonzero;stroke:none"
           transform="matrix(1,0,0,-1,634.15,385.08)"><tspan
             id="tspan210"
             y="0"
             x="0">8</tspan></text>
</g></g><path
       id="path214"
       style="fill:none;stroke:#000000;stroke-width:0.47999999;stroke-linecap:butt;stroke-linejoin:miter;stroke-miterlimit:10;stroke-dasharray:none;stroke-opacity:1"
       d="m 655.56,407.92 39.03,47.72" /><path
       id="path216"
       style="fill:#548235;fill-opacity:1;fill-rule:evenodd;stroke:none"
       d="m 760.2,391.08 c 0,13.12 10.64,23.76 23.76,23.76 13.12,0 23.76,-10.64 23.76,-23.76 0,-13.12 -10.64,-23.76 -23.76,-23.76 -13.12,0 -23.76,10.64 -23.76,23.76 z" /><path
       id="path218"
       style="fill:none;stroke:#000000;stroke-width:0.95999998;stroke-linecap:butt;stroke-linejoin:miter;stroke-miterlimit:10;stroke-dasharray:none;stroke-opacity:1"
       d="m 760.2,391.08 c 0,13.12 10.64,23.76 23.76,23.76 13.12,0 23.76,-10.64 23.76,-23.76 0,-13.12 -10.64,-23.76 -23.76,-23.76 -13.12,0 -23.76,10.64 -23.76,23.76 z" /><g
       id="g220"><g
         clip-path="url(#clipPath226)"
         id="g222"><text
           id="text230"
           style="font-variant:normal;font-weight:normal;font-size:18px;font-family:Calibri;-inkscape-font-specification:Calibri;writing-mode:lr-tb;fill:#ffffff;fill-opacity:1;fill-rule:nonzero;stroke:none"
           transform="matrix(1,0,0,-1,779.42,385.08)"><tspan
             id="tspan228"
             y="0"
             x="0">9</tspan></text>
</g></g><path
       id="path232"
       style="fill:none;stroke:#000000;stroke-width:0.47999999;stroke-linecap:butt;stroke-linejoin:miter;stroke-miterlimit:10;stroke-dasharray:none;stroke-opacity:1"
       d="m 767.19,407.92 -39.03,47.72" /><path
       id="path234"
       style="fill:#bfbfbf;fill-opacity:1;fill-rule:evenodd;stroke:none"
       d="m 578.28,309.84 c 0,13.12 10.61,23.76 23.7,23.76 13.09,0 23.7,-10.64 23.7,-23.76 0,-13.12 -10.61,-23.76 -23.7,-23.76 -13.09,0 -23.7,10.64 -23.7,23.76 z" /><path
       id="path236"
       style="fill:none;stroke:#000000;stroke-width:0.95999998;stroke-linecap:butt;stroke-linejoin:miter;stroke-miterlimit:10;stroke-dasharray:none;stroke-opacity:1"
       d="m 578.28,309.84 c 0,13.12 10.61,23.76 23.7,23.76 13.09,0 23.7,-10.64 23.7,-23.76 0,-13.12 -10.61,-23.76 -23.7,-23.76 -13.09,0 -23.7,10.64 -23.7,23.76 z" /><g
       id="g238"><g
         clip-path="url(#clipPath244)"
         id="g240"><text
           id="text248"
           style="font-variant:normal;font-weight:normal;font-size:18px;font-family:Calibri;-inkscape-font-specification:Calibri;writing-mode:lr-tb;fill:#ffffff;fill-opacity:1;fill-rule:nonzero;stroke:none"
           transform="matrix(1,0,0,-1,592.85,303.77)"><tspan
             id="tspan246"
             y="0"
             x="0 9.1199999">15</tspan></text>
</g></g><path
       id="path250"
       style="fill:none;stroke:#000000;stroke-width:0.47999999;stroke-linecap:butt;stroke-linejoin:miter;stroke-miterlimit:10;stroke-dasharray:none;stroke-opacity:1"
       d="m 601.92,333.52 19.95,40.76" /><path
       id="path252"
       style="fill:#bfbfbf;fill-opacity:1;fill-rule:evenodd;stroke:none"
       d="m 645.96,309.84 c 0,13.12 10.64,23.76 23.76,23.76 13.12,0 23.76,-10.64 23.76,-23.76 0,-13.12 -10.64,-23.76 -23.76,-23.76 -13.12,0 -23.76,10.64 -23.76,23.76 z" /><path
       id="path254"
       style="fill:none;stroke:#000000;stroke-width:0.95999998;stroke-linecap:butt;stroke-linejoin:miter;stroke-miterlimit:10;stroke-dasharray:none;stroke-opacity:1"
       d="m 645.96,309.84 c 0,13.12 10.64,23.76 23.76,23.76 13.12,0 23.76,-10.64 23.76,-23.76 0,-13.12 -10.64,-23.76 -23.76,-23.76 -13.12,0 -23.76,10.64 -23.76,23.76 z" /><g
       id="g256"><g
         clip-path="url(#clipPath262)"
         id="g258"><text
           id="text266"
           style="font-variant:normal;font-weight:normal;font-size:18px;font-family:Calibri;-inkscape-font-specification:Calibri;writing-mode:lr-tb;fill:#ffffff;fill-opacity:1;fill-rule:nonzero;stroke:none"
           transform="matrix(1,0,0,-1,665.21,303.77)"><tspan
             id="tspan264"
             y="0"
             x="0">4</tspan></text>
</g></g><path
       id="path268"
       style="fill:none;stroke:#000000;stroke-width:0.47999999;stroke-linecap:butt;stroke-linejoin:miter;stroke-miterlimit:10;stroke-dasharray:none;stroke-opacity:1"
       d="m 669.8,333.52 -14.24,40.76" /><path
       id="path270"
       style="fill:#bfbfbf;fill-opacity:1;fill-rule:evenodd;stroke:none"
       d="m 729.12,309.84 c 0,13.12 10.64,23.76 23.76,23.76 13.12,0 23.76,-10.64 23.76,-23.76 0,-13.12 -10.64,-23.76 -23.76,-23.76 -13.12,0 -23.76,10.64 -23.76,23.76 z" /><path
       id="path272"
       style="fill:none;stroke:#000000;stroke-width:0.95999998;stroke-linecap:butt;stroke-linejoin:miter;stroke-miterlimit:10;stroke-dasharray:none;stroke-opacity:1"
       d="m 729.12,309.84 c 0,13.12 10.64,23.76 23.76,23.76 13.12,0 23.76,-10.64 23.76,-23.76 0,-13.12 -10.64,-23.76 -23.76,-23.76 -13.12,0 -23.76,10.64 -23.76,23.76 z" /><g
       id="g274"><g
         clip-path="url(#clipPath280)"
         id="g276"><text
           id="text284"
           style="font-variant:normal;font-weight:normal;font-size:18px;font-family:Calibri;-inkscape-font-specification:Calibri;writing-mode:lr-tb;fill:#ffffff;fill-opacity:1;fill-rule:nonzero;stroke:none"
           transform="matrix(1,0,0,-1,748.37,303.77)"><tspan
             id="tspan282"
             y="0"
             x="0">7</tspan></text>
</g></g><path
       id="path286"
       style="fill:none;stroke:#000000;stroke-width:0.47999999;stroke-linecap:butt;stroke-linejoin:miter;stroke-miterlimit:10;stroke-dasharray:none;stroke-opacity:1"
       d="m 752.88,333.52 14.24,40.76" /><path
       id="path288"
       style="fill:#bfbfbf;fill-opacity:1;fill-rule:evenodd;stroke:none"
       d="m 796.92,309.84 c 0,13.12 10.64,23.76 23.76,23.76 13.12,0 23.76,-10.64 23.76,-23.76 0,-13.12 -10.64,-23.76 -23.76,-23.76 -13.12,0 -23.76,10.64 -23.76,23.76 z" /><path
       id="path290"
       style="fill:none;stroke:#000000;stroke-width:0.95999998;stroke-linecap:butt;stroke-linejoin:miter;stroke-miterlimit:10;stroke-dasharray:none;stroke-opacity:1"
       d="m 796.92,309.84 c 0,13.12 10.64,23.76 23.76,23.76 13.12,0 23.76,-10.64 23.76,-23.76 0,-13.12 -10.64,-23.76 -23.76,-23.76 -13.12,0 -23.76,10.64 -23.76,23.76 z" /><g
       id="g292"><g
         clip-path="url(#clipPath298)"
         id="g294"><text
           id="text302"
           style="font-variant:normal;font-weight:normal;font-size:18px;font-family:Calibri;-inkscape-font-specification:Calibri;writing-mode:lr-tb;fill:#ffffff;fill-opacity:1;fill-rule:nonzero;stroke:none"
           transform="matrix(1,0,0,-1,811.61,303.77)"><tspan
             id="tspan300"
             y="0"
             x="0 9.1199999">12</tspan></text>
</g></g><path
       id="path304"
       style="fill:none;stroke:#000000;stroke-width:0.47999999;stroke-linecap:butt;stroke-linejoin:miter;stroke-miterlimit:10;stroke-dasharray:none;stroke-opacity:1"
       d="m 820.71,333.52 -19.95,40.76" /><path
       id="path306"
       style="fill:#bfbfbf;fill-opacity:1;fill-rule:evenodd;stroke:none"
       d="m 541.32,226.2 c 0,13.12 10.64,23.76 23.76,23.76 13.12,0 23.76,-10.64 23.76,-23.76 0,-13.12 -10.64,-23.76 -23.76,-23.76 -13.12,0 -23.76,10.64 -23.76,23.76 z" /><path
       id="path308"
       style="fill:none;stroke:#000000;stroke-width:0.95999998;stroke-linecap:butt;stroke-linejoin:miter;stroke-miterlimit:10;stroke-dasharray:none;stroke-opacity:1"
       d="m 541.32,226.2 c 0,13.12 10.64,23.76 23.76,23.76 13.12,0 23.76,-10.64 23.76,-23.76 0,-13.12 -10.64,-23.76 -23.76,-23.76 -13.12,0 -23.76,10.64 -23.76,23.76 z" /><g
       id="g310"><g
         clip-path="url(#clipPath316)"
         id="g312"><text
           id="text320"
           style="font-variant:normal;font-weight:normal;font-size:18px;font-family:Calibri;-inkscape-font-specification:Calibri;writing-mode:lr-tb;fill:#ffffff;fill-opacity:1;fill-rule:nonzero;stroke:none"
           transform="matrix(1,0,0,-1,560.52,220.18)"><tspan
             id="tspan318"
             y="0"
             x="0">6</tspan></text>
</g></g><path
       id="path322"
       style="fill:none;stroke:#000000;stroke-width:0.47999999;stroke-linecap:butt;stroke-linejoin:miter;stroke-miterlimit:10;stroke-dasharray:none;stroke-opacity:1"
       d="m 565.08,250.03 20.08,43.01" /><path
       id="path324"
       style="fill:#bfbfbf;fill-opacity:1;fill-rule:evenodd;stroke:none"
       d="m 609.12,226.2 c 0,13.12 10.64,23.76 23.76,23.76 13.12,0 23.76,-10.64 23.76,-23.76 0,-13.12 -10.64,-23.76 -23.76,-23.76 -13.12,0 -23.76,10.64 -23.76,23.76 z" /><path
       id="path326"
       style="fill:none;stroke:#000000;stroke-width:0.95999998;stroke-linecap:butt;stroke-linejoin:miter;stroke-miterlimit:10;stroke-dasharray:none;stroke-opacity:1"
       d="m 609.12,226.2 c 0,13.12 10.64,23.76 23.76,23.76 13.12,0 23.76,-10.64 23.76,-23.76 0,-13.12 -10.64,-23.76 -23.76,-23.76 -13.12,0 -23.76,10.64 -23.76,23.76 z" /><g
       id="g328"><g
         clip-path="url(#clipPath334)"
         id="g330"><text
           id="text338"
           style="font-variant:normal;font-weight:normal;font-size:18px;font-family:Calibri;-inkscape-font-specification:Calibri;writing-mode:lr-tb;fill:#ffffff;fill-opacity:1;fill-rule:nonzero;stroke:none"
           transform="matrix(1,0,0,-1,628.32,220.18)"><tspan
             id="tspan336"
             y="0"
             x="0">4</tspan></text>
</g></g><path
       id="path340"
       style="fill:none;stroke:#000000;stroke-width:0.47999999;stroke-linecap:butt;stroke-linejoin:miter;stroke-miterlimit:10;stroke-dasharray:none;stroke-opacity:1"
       d="m 632.83,250.03 -14.11,43.01" /><path
       id="path342"
       style="fill:#ffffff;fill-opacity:1;fill-rule:evenodd;stroke:none"
       d="m 180.18,84.374 h 61.899 v 54.975 H 180.18 Z" /><path
       id="path344"
       style="fill:#ffffff;fill-opacity:1;fill-rule:evenodd;stroke:none"
       d="m 242.08,84.374 h 61.899 v 54.975 H 242.08 Z" /><path
       id="path346"
       style="fill:#ffffff;fill-opacity:1;fill-rule:evenodd;stroke:none"
       d="m 303.98,84.374 h 61.899 v 54.975 H 303.98 Z" /><path
       id="path348"
       style="fill:#ffffff;fill-opacity:1;fill-rule:evenodd;stroke:none"
       d="m 365.88,84.374 h 61.899 v 54.975 H 365.88 Z" /><path
       id="path350"
       style="fill:#ffffff;fill-opacity:1;fill-rule:evenodd;stroke:none"
       d="m 427.78,84.374 h 61.899 v 54.975 H 427.78 Z" /><path
       id="path352"
       style="fill:#ffffff;fill-opacity:1;fill-rule:evenodd;stroke:none"
       d="m 489.68,84.374 h 61.899 v 54.975 H 489.68 Z" /><path
       id="path354"
       style="fill:#ffffff;fill-opacity:1;fill-rule:evenodd;stroke:none"
       d="m 551.58,84.374 h 61.899 v 54.975 H 551.58 Z" /><path
       id="path356"
       style="fill:#ffffff;fill-opacity:1;fill-rule:evenodd;stroke:none"
       d="m 613.48,84.374 h 61.899 v 54.975 H 613.48 Z" /><path
       id="path358"
       style="fill:#ffffff;fill-opacity:1;fill-rule:evenodd;stroke:none"
       d="m 675.38,84.374 h 61.899 v 54.975 H 675.38 Z" /><path
       id="path360"
       style="fill:#ffffff;fill-opacity:1;fill-rule:evenodd;stroke:none"
       d="m 737.28,84.374 h 61.899 v 54.975 H 737.28 Z" /><path
       id="path362"
       style="fill:none;stroke:#000000;stroke-width:1;stroke-linecap:butt;stroke-linejoin:round;stroke-miterlimit:10;stroke-dasharray:none;stroke-opacity:1"
       d="M 242.08,139.85 V 83.874" /><path
       id="path364"
       style="fill:none;stroke:#000000;stroke-width:1;stroke-linecap:butt;stroke-linejoin:round;stroke-miterlimit:10;stroke-dasharray:none;stroke-opacity:1"
       d="M 303.98,139.85 V 83.874" /><path
       id="path366"
       style="fill:none;stroke:#000000;stroke-width:1;stroke-linecap:butt;stroke-linejoin:round;stroke-miterlimit:10;stroke-dasharray:none;stroke-opacity:1"
       d="M 365.88,139.85 V 83.874" /><path
       id="path368"
       style="fill:none;stroke:#000000;stroke-width:1;stroke-linecap:butt;stroke-linejoin:round;stroke-miterlimit:10;stroke-dasharray:none;stroke-opacity:1"
       d="M 427.78,139.85 V 83.874" /><path
       id="path370"
       style="fill:none;stroke:#000000;stroke-width:1;stroke-linecap:butt;stroke-linejoin:round;stroke-miterlimit:10;stroke-dasharray:none;stroke-opacity:1"
       d="M 489.68,139.85 V 83.874" /><path
       id="path372"
       style="fill:none;stroke:#000000;stroke-width:1;stroke-linecap:butt;stroke-linejoin:round;stroke-miterlimit:10;stroke-dasharray:none;stroke-opacity:1"
       d="M 551.58,139.85 V 83.874" /><path
       id="path374"
       style="fill:none;stroke:#000000;stroke-width:1;stroke-linecap:butt;stroke-linejoin:round;stroke-miterlimit:10;stroke-dasharray:none;stroke-opacity:1"
       d="M 613.48,139.85 V 83.874" /><path
       id="path376"
       style="fill:none;stroke:#000000;stroke-width:1;stroke-linecap:butt;stroke-linejoin:round;stroke-miterlimit:10;stroke-dasharray:none;stroke-opacity:1"
       d="M 675.38,139.85 V 83.874" /><path
       id="path378"
       style="fill:none;stroke:#000000;stroke-width:1;stroke-linecap:butt;stroke-linejoin:round;stroke-miterlimit:10;stroke-dasharray:none;stroke-opacity:1"
       d="M 737.28,139.85 V 83.874" /><path
       id="path380"
       style="fill:none;stroke:#000000;stroke-width:1;stroke-linecap:butt;stroke-linejoin:round;stroke-miterlimit:10;stroke-dasharray:none;stroke-opacity:1"
       d="M 180.18,139.85 V 83.874" /><path
       id="path382"
       style="fill:none;stroke:#000000;stroke-width:1;stroke-linecap:butt;stroke-linejoin:round;stroke-miterlimit:10;stroke-dasharray:none;stroke-opacity:1"
       d="M 799.17,139.85 V 83.874" /><path
       id="path384"
       style="fill:none;stroke:#000000;stroke-width:1;stroke-linecap:butt;stroke-linejoin:round;stroke-miterlimit:10;stroke-dasharray:none;stroke-opacity:1"
       d="M 179.68,139.35 H 799.67" /><path
       id="path386"
       style="fill:none;stroke:#000000;stroke-width:1;stroke-linecap:butt;stroke-linejoin:round;stroke-miterlimit:10;stroke-dasharray:none;stroke-opacity:1"
       d="M 179.68,84.374 H 799.67" /><g
       id="g388"><g
         clip-path="url(#clipPath394)"
         id="g390"><text
           id="text398"
           style="font-variant:normal;font-weight:bold;font-size:32.04000092px;font-family:Calibri;-inkscape-font-specification:Calibri-Bold;writing-mode:lr-tb;fill:#000000;fill-opacity:1;fill-rule:nonzero;stroke:none"
           transform="matrix(1,0,0,-1,203.06,100.97)"><tspan
             id="tspan396"
             y="0"
             x="0">0</tspan></text>
</g></g><g
       id="g400"><g
         clip-path="url(#clipPath406)"
         id="g402"><text
           id="text410"
           style="font-variant:normal;font-weight:bold;font-size:32.04000092px;font-family:Calibri;-inkscape-font-specification:Calibri-Bold;writing-mode:lr-tb;fill:#000000;fill-opacity:1;fill-rule:nonzero;stroke:none"
           transform="matrix(1,0,0,-1,264.98,100.97)"><tspan
             id="tspan408"
             y="0"
             x="0">1</tspan></text>
</g></g><g
       id="g412"><g
         clip-path="url(#clipPath418)"
         id="g414"><text
           id="text422"
           style="font-variant:normal;font-weight:bold;font-size:32.04000092px;font-family:Calibri;-inkscape-font-specification:Calibri-Bold;writing-mode:lr-tb;fill:#000000;fill-opacity:1;fill-rule:nonzero;stroke:none"
           transform="matrix(1,0,0,-1,326.88,100.97)"><tspan
             id="tspan420"
             y="0"
             x="0">8</tspan></text>
</g></g><g
       id="g424"><g
         clip-path="url(#clipPath430)"
         id="g426"><text
           id="text434"
           style="font-variant:normal;font-weight:bold;font-size:32.04000092px;font-family:Calibri;-inkscape-font-specification:Calibri-Bold;writing-mode:lr-tb;fill:#000000;fill-opacity:1;fill-rule:nonzero;stroke:none"
           transform="matrix(1,0,0,-1,388.8,100.97)"><tspan
             id="tspan432"
             y="0"
             x="0">9</tspan></text>
</g></g><g
       id="g436"><g
         clip-path="url(#clipPath442)"
         id="g438"><text
           id="text446"
           style="font-variant:normal;font-weight:bold;font-size:32.04000092px;font-family:Calibri;-inkscape-font-specification:Calibri-Bold;writing-mode:lr-tb;fill:#000000;fill-opacity:1;fill-rule:nonzero;stroke:none"
           transform="matrix(1,0,0,-1,442.54,100.97)"><tspan
             id="tspan444"
             y="0"
             x="0">1</tspan></text>
</g></g><g
       id="g448"><g
         clip-path="url(#clipPath454)"
         id="g450"><text
           id="text458"
           style="font-variant:normal;font-weight:bold;font-size:32.04000092px;font-family:Calibri;-inkscape-font-specification:Calibri-Bold;writing-mode:lr-tb;fill:#000000;fill-opacity:1;fill-rule:nonzero;stroke:none"
           transform="matrix(1,0,0,-1,458.74,100.97)"><tspan
             id="tspan456"
             y="0"
             x="0">5</tspan></text>
</g></g><g
       id="g460"><g
         clip-path="url(#clipPath466)"
         id="g462"><text
           id="text470"
           style="font-variant:normal;font-weight:bold;font-size:32.04000092px;font-family:Calibri;-inkscape-font-specification:Calibri-Bold;writing-mode:lr-tb;fill:#000000;fill-opacity:1;fill-rule:nonzero;stroke:none"
           transform="matrix(1,0,0,-1,512.62,100.97)"><tspan
             id="tspan468"
             y="0"
             x="0">4</tspan></text>
</g></g><g
       id="g472"><g
         clip-path="url(#clipPath478)"
         id="g474"><text
           id="text482"
           style="font-variant:normal;font-weight:bold;font-size:32.04000092px;font-family:Calibri;-inkscape-font-specification:Calibri-Bold;writing-mode:lr-tb;fill:#000000;fill-opacity:1;fill-rule:nonzero;stroke:none"
           transform="matrix(1,0,0,-1,574.51,100.97)"><tspan
             id="tspan480"
             y="0"
             x="0">7</tspan></text>
</g></g><g
       id="g484"><g
         clip-path="url(#clipPath490)"
         id="g486"><text
           id="text494"
           style="font-variant:normal;font-weight:bold;font-size:32.04000092px;font-family:Calibri;-inkscape-font-specification:Calibri-Bold;writing-mode:lr-tb;fill:#000000;fill-opacity:1;fill-rule:nonzero;stroke:none"
           transform="matrix(1,0,0,-1,628.27,100.97)"><tspan
             id="tspan492"
             y="0"
             x="0">1</tspan></text>
</g></g><g
       id="g496"><g
         clip-path="url(#clipPath502)"
         id="g498"><text
           id="text506"
           style="font-variant:normal;font-weight:bold;font-size:32.04000092px;font-family:Calibri;-inkscape-font-specification:Calibri-Bold;writing-mode:lr-tb;fill:#000000;fill-opacity:1;fill-rule:nonzero;stroke:none"
           transform="matrix(1,0,0,-1,644.47,100.97)"><tspan
             id="tspan504"
             y="0"
             x="0">2</tspan></text>
</g></g><g
       id="g508"><g
         clip-path="url(#clipPath514)"
         id="g510"><text
           id="text518"
           style="font-variant:normal;font-weight:bold;font-size:32.04000092px;font-family:Calibri;-inkscape-font-specification:Calibri-Bold;writing-mode:lr-tb;fill:#000000;fill-opacity:1;fill-rule:nonzero;stroke:none"
           transform="matrix(1,0,0,-1,698.33,100.97)"><tspan
             id="tspan516"
             y="0"
             x="0">6</tspan></text>
</g></g><g
       id="g520"><g
         clip-path="url(#clipPath526)"
         id="g522"><text
           id="text530"
           style="font-variant:normal;font-weight:bold;font-size:32.04000092px;font-family:Calibri;-inkscape-font-specification:Calibri-Bold;writing-mode:lr-tb;fill:#000000;fill-opacity:1;fill-rule:nonzero;stroke:none"
           transform="matrix(1,0,0,-1,760.25,100.97)"><tspan
             id="tspan528"
             y="0"
             x="0">4</tspan></text>
</g></g><path
       id="path532"
       style="fill:none;stroke:#000000;stroke-width:6;stroke-linecap:butt;stroke-linejoin:round;stroke-miterlimit:10;stroke-dasharray:none;stroke-opacity:1"
       d="M 489.6,64.714 V 18.225" /><path
       id="path534"
       style="fill:none;stroke:#000000;stroke-width:6;stroke-linecap:butt;stroke-linejoin:round;stroke-miterlimit:10;stroke-dasharray:none;stroke-opacity:1"
       d="M 241.26,64.714 V 18.225" /><path
       id="path536"
       style="fill:none;stroke:#000000;stroke-width:6;stroke-linecap:butt;stroke-linejoin:round;stroke-miterlimit:10;stroke-dasharray:none;stroke-opacity:1"
       d="M 796.95,64.714 V 18.225" /><path
       id="path538"
       style="fill:none;stroke:#fcfcfc;stroke-width:6;stroke-linecap:butt;stroke-linejoin:round;stroke-miterlimit:10;stroke-dasharray:none;stroke-opacity:1"
       d="M 238.26,61.714 H 799.95" /><path
       id="path540"
       style="fill:none;stroke:#fcfcfc;stroke-width:6;stroke-linecap:butt;stroke-linejoin:round;stroke-miterlimit:10;stroke-dasharray:none;stroke-opacity:1"
       d="M 238.26,21.225 H 799.95" /><g
       id="g542"><g
         clip-path="url(#clipPath548)"
         id="g544"><text
           id="text552"
           style="font-variant:normal;font-weight:bold;font-size:24px;font-family:MalgunGothicBold;-inkscape-font-specification:MalgunGothicBold;writing-mode:lr-tb;fill:#000000;fill-opacity:1;fill-rule:nonzero;stroke:none"
           transform="matrix(1,0,0,-1,313.94,32.616)"><tspan
             id="tspan550"
             y="0"
             x="0 24">내부</tspan></text>
</g></g><g
       id="g554"><g
         clip-path="url(#clipPath560)"
         id="g556"><text
           id="text564"
           style="font-variant:normal;font-weight:bold;font-size:24px;font-family:MalgunGothicBold;-inkscape-font-specification:MalgunGothicBold;writing-mode:lr-tb;fill:#000000;fill-opacity:1;fill-rule:nonzero;stroke:none"
           transform="matrix(1,0,0,-1,369.02,32.616)"><tspan
             id="tspan562"
             y="0"
             x="0 24">노드</tspan></text>
</g></g><g
       id="g566"><g
         clip-path="url(#clipPath572)"
         id="g568"><text
           id="text576"
           style="font-variant:normal;font-weight:bold;font-size:24px;font-family:MalgunGothicBold;-inkscape-font-specification:MalgunGothicBold;writing-mode:lr-tb;fill:#000000;fill-opacity:1;fill-rule:nonzero;stroke:none"
           transform="matrix(1,0,0,-1,591.84,32.616)"><tspan
             id="tspan574"
             y="0"
             x="0">잎</tspan></text>
</g></g><g
       id="g578"><g
         clip-path="url(#clipPath584)"
         id="g580"><text
           id="text588"
           style="font-variant:normal;font-weight:bold;font-size:24px;font-family:MalgunGothicBold;-inkscape-font-specification:MalgunGothicBold;writing-mode:lr-tb;fill:#000000;fill-opacity:1;fill-rule:nonzero;stroke:none"
           transform="matrix(1,0,0,-1,622.92,32.616)"><tspan
             id="tspan586"
             y="0"
             x="0 24 48">노드들</tspan></text>
</g></g><path
       id="path590"
       style="fill:#000000;fill-opacity:1;fill-rule:nonzero;stroke:none"
       d="M 473.98,167.88 H 270.6 v -4.56 h 203.38 z m -201.1,4.56 -13.68,-6.84 13.68,-6.84 z" /><path
       id="path592"
       style="fill:#000000;fill-opacity:1;fill-rule:nonzero;stroke:none"
       d="m 446.04,335.88 h 69.05 v -4.56 h -69.05 z m 66.77,4.56 13.68,-6.84 -13.68,-6.84 z" /></g></svg>