<?xml version="1.0" encoding="UTF-8" standalone="no"?>
<svg
   xmlns:dc="http://purl.org/dc/elements/1.1/"
   xmlns:cc="http://creativecommons.org/ns#"
   xmlns:rdf="http://www.w3.org/1999/02/22-rdf-syntax-ns#"
   xmlns:svg="http://www.w3.org/2000/svg"
   xmlns="http://www.w3.org/2000/svg"
   viewBox="0 0 1280 720"
   width="100%"
   xml:space="preserve"
   id="svg2"
   version="1.1"><metadata
     id="metadata8"><rdf:RDF><cc:Work
         rdf:about=""><dc:format>image/svg+xml</dc:format><dc:type
           rdf:resource="http://purl.org/dc/dcmitype/StillImage" /></cc:Work></rdf:RDF></metadata><defs
     id="defs6"><clipPath
       id="clipPath18"
       clipPathUnits="userSpaceOnUse"><path
         style="clip-rule:evenodd"
         id="path16"
         d="M 0,1.2207e-4 H 960 V 540.00012 H 0 Z" /></clipPath><clipPath
       id="clipPath32"
       clipPathUnits="userSpaceOnUse"><path
         style="clip-rule:evenodd"
         id="path30"
         d="M 1.4305e-5,0 H 960.00001 V 540 H 1.4305e-5 Z" /></clipPath><clipPath
       id="clipPath48"
       clipPathUnits="userSpaceOnUse"><path
         style="clip-rule:evenodd"
         id="path46"
         d="M 1.4305e-5,0 H 960.00001 V 540 H 1.4305e-5 Z" /></clipPath><clipPath
       id="clipPath66"
       clipPathUnits="userSpaceOnUse"><path
         style="clip-rule:evenodd"
         id="path64"
         d="M 1.4305e-5,0 H 960.00001 V 540 H 1.4305e-5 Z" /></clipPath><clipPath
       id="clipPath84"
       clipPathUnits="userSpaceOnUse"><path
         style="clip-rule:evenodd"
         id="path82"
         d="M 1.4305e-5,0 H 960.00001 V 540 H 1.4305e-5 Z" /></clipPath><clipPath
       id="clipPath102"
       clipPathUnits="userSpaceOnUse"><path
         style="clip-rule:evenodd"
         id="path100"
         d="M 1.4305e-5,0 H 960.00001 V 540 H 1.4305e-5 Z" /></clipPath><clipPath
       id="clipPath120"
       clipPathUnits="userSpaceOnUse"><path
         style="clip-rule:evenodd"
         id="path118"
         d="M 1.4305e-5,0 H 960.00001 V 540 H 1.4305e-5 Z" /></clipPath><clipPath
       id="clipPath138"
       clipPathUnits="userSpaceOnUse"><path
         style="clip-rule:evenodd"
         id="path136"
         d="M 1.4305e-5,0 H 960.00001 V 540 H 1.4305e-5 Z" /></clipPath><clipPath
       id="clipPath156"
       clipPathUnits="userSpaceOnUse"><path
         style="clip-rule:evenodd"
         id="path154"
         d="M 1.4305e-5,0 H 960.00001 V 540 H 1.4305e-5 Z" /></clipPath><clipPath
       id="clipPath174"
       clipPathUnits="userSpaceOnUse"><path
         style="clip-rule:evenodd"
         id="path172"
         d="M 1.4305e-5,0 H 960.00001 V 540 H 1.4305e-5 Z" /></clipPath><clipPath
       id="clipPath192"
       clipPathUnits="userSpaceOnUse"><path
         style="clip-rule:evenodd"
         id="path190"
         d="M 1.4305e-5,0 H 960.00001 V 540 H 1.4305e-5 Z" /></clipPath><clipPath
       id="clipPath208"
       clipPathUnits="userSpaceOnUse"><path
         style="clip-rule:evenodd"
         id="path206"
         d="M 1.4305e-5,0 H 960.00001 V 540 H 1.4305e-5 Z" /></clipPath><clipPath
       id="clipPath226"
       clipPathUnits="userSpaceOnUse"><path
         style="clip-rule:evenodd"
         id="path224"
         d="M 1.4305e-5,0 H 960.00001 V 540 H 1.4305e-5 Z" /></clipPath><clipPath
       id="clipPath244"
       clipPathUnits="userSpaceOnUse"><path
         style="clip-rule:evenodd"
         id="path242"
         d="M 1.4305e-5,0 H 960.00001 V 540 H 1.4305e-5 Z" /></clipPath><clipPath
       id="clipPath262"
       clipPathUnits="userSpaceOnUse"><path
         style="clip-rule:evenodd"
         id="path260"
         d="M 1.4305e-5,0 H 960.00001 V 540 H 1.4305e-5 Z" /></clipPath><clipPath
       id="clipPath280"
       clipPathUnits="userSpaceOnUse"><path
         style="clip-rule:evenodd"
         id="path278"
         d="M 1.4305e-5,0 H 960.00001 V 540 H 1.4305e-5 Z" /></clipPath><clipPath
       id="clipPath298"
       clipPathUnits="userSpaceOnUse"><path
         style="clip-rule:evenodd"
         id="path296"
         d="M 1.4305e-5,0 H 960.00001 V 540 H 1.4305e-5 Z" /></clipPath><clipPath
       id="clipPath316"
       clipPathUnits="userSpaceOnUse"><path
         style="clip-rule:evenodd"
         id="path314"
         d="M 1.4305e-5,0 H 960.00001 V 540 H 1.4305e-5 Z" /></clipPath><clipPath
       id="clipPath334"
       clipPathUnits="userSpaceOnUse"><path
         style="clip-rule:evenodd"
         id="path332"
         d="M 1.4305e-5,0 H 960.00001 V 540 H 1.4305e-5 Z" /></clipPath><clipPath
       id="clipPath390"
       clipPathUnits="userSpaceOnUse"><path
         style="clip-rule:evenodd"
         id="path388"
         d="M 1.4305e-5,0 H 960.00001 V 540 H 1.4305e-5 Z" /></clipPath><clipPath
       id="clipPath402"
       clipPathUnits="userSpaceOnUse"><path
         style="clip-rule:evenodd"
         id="path400"
         d="M 1.4305e-5,0 H 960.00001 V 540 H 1.4305e-5 Z" /></clipPath><clipPath
       id="clipPath414"
       clipPathUnits="userSpaceOnUse"><path
         style="clip-rule:evenodd"
         id="path412"
         d="M 1.4305e-5,0 H 960.00001 V 540 H 1.4305e-5 Z" /></clipPath><clipPath
       id="clipPath426"
       clipPathUnits="userSpaceOnUse"><path
         style="clip-rule:evenodd"
         id="path424"
         d="m 426.72,0 h 62.04 v 243.72 h -62.04 z" /></clipPath><clipPath
       id="clipPath438"
       clipPathUnits="userSpaceOnUse"><path
         style="clip-rule:evenodd"
         id="path436"
         d="m 426.72,0 h 62.04 v 243.72 h -62.04 z" /></clipPath><clipPath
       id="clipPath450"
       clipPathUnits="userSpaceOnUse"><path
         style="clip-rule:evenodd"
         id="path448"
         d="M 1.4305e-5,0 H 960.00001 V 540 H 1.4305e-5 Z" /></clipPath><clipPath
       id="clipPath462"
       clipPathUnits="userSpaceOnUse"><path
         style="clip-rule:evenodd"
         id="path460"
         d="M 1.4305e-5,0 H 960.00001 V 540 H 1.4305e-5 Z" /></clipPath><clipPath
       id="clipPath474"
       clipPathUnits="userSpaceOnUse"><path
         style="clip-rule:evenodd"
         id="path472"
         d="m 612.48,0 h 62.04 v 243.72 h -62.04 z" /></clipPath><clipPath
       id="clipPath486"
       clipPathUnits="userSpaceOnUse"><path
         style="clip-rule:evenodd"
         id="path484"
         d="m 612.48,0 h 62.04 v 243.72 h -62.04 z" /></clipPath><clipPath
       id="clipPath498"
       clipPathUnits="userSpaceOnUse"><path
         style="clip-rule:evenodd"
         id="path496"
         d="M 1.4305e-5,0 H 960.00001 V 540 H 1.4305e-5 Z" /></clipPath><clipPath
       id="clipPath510"
       clipPathUnits="userSpaceOnUse"><path
         style="clip-rule:evenodd"
         id="path508"
         d="M 1.4305e-5,0 H 960.00001 V 540 H 1.4305e-5 Z" /></clipPath><clipPath
       id="clipPath532"
       clipPathUnits="userSpaceOnUse"><path
         style="clip-rule:evenodd"
         id="path530"
         d="M 1.4305e-5,0 H 960.00001 V 540 H 1.4305e-5 Z" /></clipPath><clipPath
       id="clipPath544"
       clipPathUnits="userSpaceOnUse"><path
         style="clip-rule:evenodd"
         id="path542"
         d="M 1.4305e-5,0 H 960.00001 V 540 H 1.4305e-5 Z" /></clipPath><clipPath
       id="clipPath556"
       clipPathUnits="userSpaceOnUse"><path
         style="clip-rule:evenodd"
         id="path554"
         d="M 1.4305e-5,0 H 960.00001 V 540 H 1.4305e-5 Z" /></clipPath><clipPath
       id="clipPath568"
       clipPathUnits="userSpaceOnUse"><path
         style="clip-rule:evenodd"
         id="path566"
         d="M 1.4305e-5,0 H 960.00001 V 540 H 1.4305e-5 Z" /></clipPath></defs><g
     transform="matrix(1.3333333,0,0,-1.3333333,0,720)"
     id="g10"><g
       id="g12"><g
         clip-path="url(#clipPath18)"
         id="g14"><path
           id="path20"
           style="fill:#fcfcfc;fill-opacity:1;fill-rule:evenodd;stroke:none"
           d="M 0,6.1035e-5 H 960 V 540.00006 H 0 Z" /></g></g><path
       id="path22"
       style="fill:#bfbfbf;fill-opacity:1;fill-rule:evenodd;stroke:none"
       d="m 237,472.44 c 0,13.12 10.64,23.76 23.76,23.76 13.12,0 23.76,-10.64 23.76,-23.76 0,-13.12 -10.64,-23.76 -23.76,-23.76 -13.12,0 -23.76,10.64 -23.76,23.76 z" /><path
       id="path24"
       style="fill:none;stroke:#000000;stroke-width:0.95999998;stroke-linecap:butt;stroke-linejoin:miter;stroke-miterlimit:10;stroke-dasharray:none;stroke-opacity:1"
       d="m 237,472.44 c 0,13.12 10.64,23.76 23.76,23.76 13.12,0 23.76,-10.64 23.76,-23.76 0,-13.12 -10.64,-23.76 -23.76,-23.76 -13.12,0 -23.76,10.64 -23.76,23.76 z" /><g
       id="g26"><g
         clip-path="url(#clipPath32)"
         id="g28"><text
           id="text36"
           style="font-variant:normal;font-weight:normal;font-size:18.02400017px;font-family:Calibri;-inkscape-font-specification:Calibri;writing-mode:lr-tb;fill:#ffffff;fill-opacity:1;fill-rule:nonzero;stroke:none"
           transform="matrix(1,0,0,-1,256.13,466.42)"><tspan
             id="tspan34"
             y="0"
             x="0">1</tspan></text>
</g></g><path
       id="path38"
       style="fill:#bfbfbf;fill-opacity:1;fill-rule:evenodd;stroke:none"
       d="m 164.4,391.08 c 0,13.12 10.64,23.76 23.76,23.76 13.12,0 23.76,-10.64 23.76,-23.76 0,-13.12 -10.64,-23.76 -23.76,-23.76 -13.12,0 -23.76,10.64 -23.76,23.76 z" /><path
       id="path40"
       style="fill:none;stroke:#000000;stroke-width:0.95999998;stroke-linecap:butt;stroke-linejoin:miter;stroke-miterlimit:10;stroke-dasharray:none;stroke-opacity:1"
       d="m 164.4,391.08 c 0,13.12 10.64,23.76 23.76,23.76 13.12,0 23.76,-10.64 23.76,-23.76 0,-13.12 -10.64,-23.76 -23.76,-23.76 -13.12,0 -23.76,10.64 -23.76,23.76 z" /><g
       id="g42"><g
         clip-path="url(#clipPath48)"
         id="g44"><text
           id="text52"
           style="font-variant:normal;font-weight:normal;font-size:18px;font-family:Calibri;-inkscape-font-specification:Calibri;writing-mode:lr-tb;fill:#ffffff;fill-opacity:1;fill-rule:nonzero;stroke:none"
           transform="matrix(1,0,0,-1,183.48,385.08)"><tspan
             id="tspan50"
             y="0"
             x="0">8</tspan></text>
</g></g><path
       id="path54"
       style="fill:none;stroke:#000000;stroke-width:0.47999999;stroke-linecap:butt;stroke-linejoin:miter;stroke-miterlimit:10;stroke-dasharray:none;stroke-opacity:1"
       d="m 204.96,407.92 39.03,47.72" /><path
       id="path56"
       style="fill:#bfbfbf;fill-opacity:1;fill-rule:evenodd;stroke:none"
       d="m 309.6,391.08 c 0,13.12 10.64,23.76 23.76,23.76 13.12,0 23.76,-10.64 23.76,-23.76 0,-13.12 -10.64,-23.76 -23.76,-23.76 -13.12,0 -23.76,10.64 -23.76,23.76 z" /><path
       id="path58"
       style="fill:none;stroke:#000000;stroke-width:0.95999998;stroke-linecap:butt;stroke-linejoin:miter;stroke-miterlimit:10;stroke-dasharray:none;stroke-opacity:1"
       d="m 309.6,391.08 c 0,13.12 10.64,23.76 23.76,23.76 13.12,0 23.76,-10.64 23.76,-23.76 0,-13.12 -10.64,-23.76 -23.76,-23.76 -13.12,0 -23.76,10.64 -23.76,23.76 z" /><g
       id="g60"><g
         clip-path="url(#clipPath66)"
         id="g62"><text
           id="text70"
           style="font-variant:normal;font-weight:normal;font-size:18px;font-family:Calibri;-inkscape-font-specification:Calibri;writing-mode:lr-tb;fill:#ffffff;fill-opacity:1;fill-rule:nonzero;stroke:none"
           transform="matrix(1,0,0,-1,328.75,385.08)"><tspan
             id="tspan68"
             y="0"
             x="0">9</tspan></text>
</g></g><path
       id="path72"
       style="fill:none;stroke:#000000;stroke-width:0.47999999;stroke-linecap:butt;stroke-linejoin:miter;stroke-miterlimit:10;stroke-dasharray:none;stroke-opacity:1"
       d="m 316.59,407.92 -39.03,47.72" /><path
       id="path74"
       style="fill:#548235;fill-opacity:1;fill-rule:evenodd;stroke:none"
       d="m 127.56,309.84 c 0,13.12 10.64,23.76 23.76,23.76 13.12,0 23.76,-10.64 23.76,-23.76 0,-13.12 -10.64,-23.76 -23.76,-23.76 -13.12,0 -23.76,10.64 -23.76,23.76 z" /><path
       id="path76"
       style="fill:none;stroke:#000000;stroke-width:0.95999998;stroke-linecap:butt;stroke-linejoin:miter;stroke-miterlimit:10;stroke-dasharray:none;stroke-opacity:1"
       d="m 127.56,309.84 c 0,13.12 10.64,23.76 23.76,23.76 13.12,0 23.76,-10.64 23.76,-23.76 0,-13.12 -10.64,-23.76 -23.76,-23.76 -13.12,0 -23.76,10.64 -23.76,23.76 z" /><g
       id="g78"><g
         clip-path="url(#clipPath84)"
         id="g80"><text
           id="text88"
           style="font-variant:normal;font-weight:normal;font-size:18px;font-family:Calibri;-inkscape-font-specification:Calibri;writing-mode:lr-tb;fill:#ffffff;fill-opacity:1;fill-rule:nonzero;stroke:none"
           transform="matrix(1,0,0,-1,142.18,303.77)"><tspan
             id="tspan86"
             y="0"
             x="0 9.1440001">15</tspan></text>
</g></g><path
       id="path90"
       style="fill:none;stroke:#000000;stroke-width:0.47999999;stroke-linecap:butt;stroke-linejoin:miter;stroke-miterlimit:10;stroke-dasharray:none;stroke-opacity:1"
       d="m 151.32,333.52 19.95,40.76" /><path
       id="path92"
       style="fill:#bfbfbf;fill-opacity:1;fill-rule:evenodd;stroke:none"
       d="m 195.36,309.84 c 0,13.12 10.64,23.76 23.76,23.76 13.12,0 23.76,-10.64 23.76,-23.76 0,-13.12 -10.64,-23.76 -23.76,-23.76 -13.12,0 -23.76,10.64 -23.76,23.76 z" /><path
       id="path94"
       style="fill:none;stroke:#000000;stroke-width:0.95999998;stroke-linecap:butt;stroke-linejoin:miter;stroke-miterlimit:10;stroke-dasharray:none;stroke-opacity:1"
       d="m 195.36,309.84 c 0,13.12 10.64,23.76 23.76,23.76 13.12,0 23.76,-10.64 23.76,-23.76 0,-13.12 -10.64,-23.76 -23.76,-23.76 -13.12,0 -23.76,10.64 -23.76,23.76 z" /><g
       id="g96"><g
         clip-path="url(#clipPath102)"
         id="g98"><text
           id="text106"
           style="font-variant:normal;font-weight:normal;font-size:18px;font-family:Calibri;-inkscape-font-specification:Calibri;writing-mode:lr-tb;fill:#ffffff;fill-opacity:1;fill-rule:nonzero;stroke:none"
           transform="matrix(1,0,0,-1,214.54,303.77)"><tspan
             id="tspan104"
             y="0"
             x="0">4</tspan></text>
</g></g><path
       id="path108"
       style="fill:none;stroke:#000000;stroke-width:0.47999999;stroke-linecap:butt;stroke-linejoin:miter;stroke-miterlimit:10;stroke-dasharray:none;stroke-opacity:1"
       d="m 219.2,333.52 -14.24,40.76" /><path
       id="path110"
       style="fill:#bfbfbf;fill-opacity:1;fill-rule:evenodd;stroke:none"
       d="m 278.52,309.84 c 0,13.12 10.64,23.76 23.76,23.76 13.12,0 23.76,-10.64 23.76,-23.76 0,-13.12 -10.64,-23.76 -23.76,-23.76 -13.12,0 -23.76,10.64 -23.76,23.76 z" /><path
       id="path112"
       style="fill:none;stroke:#000000;stroke-width:0.95999998;stroke-linecap:butt;stroke-linejoin:miter;stroke-miterlimit:10;stroke-dasharray:none;stroke-opacity:1"
       d="m 278.52,309.84 c 0,13.12 10.64,23.76 23.76,23.76 13.12,0 23.76,-10.64 23.76,-23.76 0,-13.12 -10.64,-23.76 -23.76,-23.76 -13.12,0 -23.76,10.64 -23.76,23.76 z" /><g
       id="g114"><g
         clip-path="url(#clipPath120)"
         id="g116"><text
           id="text124"
           style="font-variant:normal;font-weight:normal;font-size:18px;font-family:Calibri;-inkscape-font-specification:Calibri;writing-mode:lr-tb;fill:#ffffff;fill-opacity:1;fill-rule:nonzero;stroke:none"
           transform="matrix(1,0,0,-1,297.7,303.77)"><tspan
             id="tspan122"
             y="0"
             x="0">7</tspan></text>
</g></g><path
       id="path126"
       style="fill:none;stroke:#000000;stroke-width:0.47999999;stroke-linecap:butt;stroke-linejoin:miter;stroke-miterlimit:10;stroke-dasharray:none;stroke-opacity:1"
       d="m 302.28,333.52 14.24,40.76" /><path
       id="path128"
       style="fill:#bfbfbf;fill-opacity:1;fill-rule:evenodd;stroke:none"
       d="m 346.32,309.84 c 0,13.12 10.64,23.76 23.76,23.76 13.12,0 23.76,-10.64 23.76,-23.76 0,-13.12 -10.64,-23.76 -23.76,-23.76 -13.12,0 -23.76,10.64 -23.76,23.76 z" /><path
       id="path130"
       style="fill:none;stroke:#000000;stroke-width:0.95999998;stroke-linecap:butt;stroke-linejoin:miter;stroke-miterlimit:10;stroke-dasharray:none;stroke-opacity:1"
       d="m 346.32,309.84 c 0,13.12 10.64,23.76 23.76,23.76 13.12,0 23.76,-10.64 23.76,-23.76 0,-13.12 -10.64,-23.76 -23.76,-23.76 -13.12,0 -23.76,10.64 -23.76,23.76 z" /><g
       id="g132"><g
         clip-path="url(#clipPath138)"
         id="g134"><text
           id="text142"
           style="font-variant:normal;font-weight:normal;font-size:18px;font-family:Calibri;-inkscape-font-specification:Calibri;writing-mode:lr-tb;fill:#ffffff;fill-opacity:1;fill-rule:nonzero;stroke:none"
           transform="matrix(1,0,0,-1,360.94,303.77)"><tspan
             id="tspan140"
             y="0"
             x="0 9.1199999">12</tspan></text>
</g></g><path
       id="path144"
       style="fill:none;stroke:#000000;stroke-width:0.47999999;stroke-linecap:butt;stroke-linejoin:miter;stroke-miterlimit:10;stroke-dasharray:none;stroke-opacity:1"
       d="m 370.11,333.52 -19.95,40.76" /><path
       id="path146"
       style="fill:#bfbfbf;fill-opacity:1;fill-rule:evenodd;stroke:none"
       d="m 90.72,226.2 c 0,13.12 10.64,23.76 23.76,23.76 13.12,0 23.76,-10.64 23.76,-23.76 0,-13.12 -10.64,-23.76 -23.76,-23.76 -13.12,0 -23.76,10.64 -23.76,23.76 z" /><path
       id="path148"
       style="fill:none;stroke:#000000;stroke-width:0.95999998;stroke-linecap:butt;stroke-linejoin:miter;stroke-miterlimit:10;stroke-dasharray:none;stroke-opacity:1"
       d="m 90.72,226.2 c 0,13.12 10.64,23.76 23.76,23.76 13.12,0 23.76,-10.64 23.76,-23.76 0,-13.12 -10.64,-23.76 -23.76,-23.76 -13.12,0 -23.76,10.64 -23.76,23.76 z" /><g
       id="g150"><g
         clip-path="url(#clipPath156)"
         id="g152"><text
           id="text160"
           style="font-variant:normal;font-weight:normal;font-size:18px;font-family:Calibri;-inkscape-font-specification:Calibri;writing-mode:lr-tb;fill:#ffffff;fill-opacity:1;fill-rule:nonzero;stroke:none"
           transform="matrix(1,0,0,-1,109.87,220.18)"><tspan
             id="tspan158"
             y="0"
             x="0">6</tspan></text>
</g></g><path
       id="path162"
       style="fill:none;stroke:#000000;stroke-width:0.47999999;stroke-linecap:butt;stroke-linejoin:miter;stroke-miterlimit:10;stroke-dasharray:none;stroke-opacity:1"
       d="m 114.48,250.03 20.08,43.01" /><path
       id="path164"
       style="fill:#bfbfbf;fill-opacity:1;fill-rule:evenodd;stroke:none"
       d="m 158.52,226.2 c 0,13.12 10.64,23.76 23.76,23.76 13.12,0 23.76,-10.64 23.76,-23.76 0,-13.12 -10.64,-23.76 -23.76,-23.76 -13.12,0 -23.76,10.64 -23.76,23.76 z" /><path
       id="path166"
       style="fill:none;stroke:#000000;stroke-width:0.95999998;stroke-linecap:butt;stroke-linejoin:miter;stroke-miterlimit:10;stroke-dasharray:none;stroke-opacity:1"
       d="m 158.52,226.2 c 0,13.12 10.64,23.76 23.76,23.76 13.12,0 23.76,-10.64 23.76,-23.76 0,-13.12 -10.64,-23.76 -23.76,-23.76 -13.12,0 -23.76,10.64 -23.76,23.76 z" /><g
       id="g168"><g
         clip-path="url(#clipPath174)"
         id="g170"><text
           id="text178"
           style="font-variant:normal;font-weight:normal;font-size:18px;font-family:Calibri;-inkscape-font-specification:Calibri;writing-mode:lr-tb;fill:#ffffff;fill-opacity:1;fill-rule:nonzero;stroke:none"
           transform="matrix(1,0,0,-1,177.65,220.18)"><tspan
             id="tspan176"
             y="0"
             x="0">4</tspan></text>
</g></g><path
       id="path180"
       style="fill:none;stroke:#000000;stroke-width:0.47999999;stroke-linecap:butt;stroke-linejoin:miter;stroke-miterlimit:10;stroke-dasharray:none;stroke-opacity:1"
       d="m 182.23,250.03 -14.11,43.01" /><path
       id="path182"
       style="fill:#bfbfbf;fill-opacity:1;fill-rule:evenodd;stroke:none"
       d="m 687.6,472.44 c 0,13.12 10.64,23.76 23.76,23.76 13.12,0 23.76,-10.64 23.76,-23.76 0,-13.12 -10.64,-23.76 -23.76,-23.76 -13.12,0 -23.76,10.64 -23.76,23.76 z" /><path
       id="path184"
       style="fill:none;stroke:#000000;stroke-width:0.95999998;stroke-linecap:butt;stroke-linejoin:miter;stroke-miterlimit:10;stroke-dasharray:none;stroke-opacity:1"
       d="m 687.6,472.44 c 0,13.12 10.64,23.76 23.76,23.76 13.12,0 23.76,-10.64 23.76,-23.76 0,-13.12 -10.64,-23.76 -23.76,-23.76 -13.12,0 -23.76,10.64 -23.76,23.76 z" /><g
       id="g186"><g
         clip-path="url(#clipPath192)"
         id="g188"><text
           id="text196"
           style="font-variant:normal;font-weight:normal;font-size:18.02400017px;font-family:Calibri;-inkscape-font-specification:Calibri;writing-mode:lr-tb;fill:#ffffff;fill-opacity:1;fill-rule:nonzero;stroke:none"
           transform="matrix(1,0,0,-1,706.78,466.42)"><tspan
             id="tspan194"
             y="0"
             x="0">1</tspan></text>
</g></g><path
       id="path198"
       style="fill:#bfbfbf;fill-opacity:1;fill-rule:evenodd;stroke:none"
       d="m 615,391.08 c 0,13.12 10.64,23.76 23.76,23.76 13.12,0 23.76,-10.64 23.76,-23.76 0,-13.12 -10.64,-23.76 -23.76,-23.76 -13.12,0 -23.76,10.64 -23.76,23.76 z" /><path
       id="path200"
       style="fill:none;stroke:#000000;stroke-width:0.95999998;stroke-linecap:butt;stroke-linejoin:miter;stroke-miterlimit:10;stroke-dasharray:none;stroke-opacity:1"
       d="m 615,391.08 c 0,13.12 10.64,23.76 23.76,23.76 13.12,0 23.76,-10.64 23.76,-23.76 0,-13.12 -10.64,-23.76 -23.76,-23.76 -13.12,0 -23.76,10.64 -23.76,23.76 z" /><g
       id="g202"><g
         clip-path="url(#clipPath208)"
         id="g204"><text
           id="text212"
           style="font-variant:normal;font-weight:normal;font-size:18px;font-family:Calibri;-inkscape-font-specification:Calibri;writing-mode:lr-tb;fill:#ffffff;fill-opacity:1;fill-rule:nonzero;stroke:none"
           transform="matrix(1,0,0,-1,634.15,385.08)"><tspan
             id="tspan210"
             y="0"
             x="0">8</tspan></text>
</g></g><path
       id="path214"
       style="fill:none;stroke:#000000;stroke-width:0.47999999;stroke-linecap:butt;stroke-linejoin:miter;stroke-miterlimit:10;stroke-dasharray:none;stroke-opacity:1"
       d="m 655.56,407.92 39.03,47.72" /><path
       id="path216"
       style="fill:#548235;fill-opacity:1;fill-rule:evenodd;stroke:none"
       d="m 760.2,391.08 c 0,13.12 10.64,23.76 23.76,23.76 13.12,0 23.76,-10.64 23.76,-23.76 0,-13.12 -10.64,-23.76 -23.76,-23.76 -13.12,0 -23.76,10.64 -23.76,23.76 z" /><path
       id="path218"
       style="fill:none;stroke:#000000;stroke-width:0.95999998;stroke-linecap:butt;stroke-linejoin:miter;stroke-miterlimit:10;stroke-dasharray:none;stroke-opacity:1"
       d="m 760.2,391.08 c 0,13.12 10.64,23.76 23.76,23.76 13.12,0 23.76,-10.64 23.76,-23.76 0,-13.12 -10.64,-23.76 -23.76,-23.76 -13.12,0 -23.76,10.64 -23.76,23.76 z" /><g
       id="g220"><g
         clip-path="url(#clipPath226)"
         id="g222"><text
           id="text230"
           style="font-variant:normal;font-weight:normal;font-size:18px;font-family:Calibri;-inkscape-font-specification:Calibri;writing-mode:lr-tb;fill:#ffffff;fill-opacity:1;fill-rule:nonzero;stroke:none"
           transform="matrix(1,0,0,-1,779.42,385.08)"><tspan
             id="tspan228"
             y="0"
             x="0">9</tspan></text>
</g></g><path
       id="path232"
       style="fill:none;stroke:#000000;stroke-width:0.47999999;stroke-linecap:butt;stroke-linejoin:miter;stroke-miterlimit:10;stroke-dasharray:none;stroke-opacity:1"
       d="m 767.19,407.92 -39.03,47.72" /><path
       id="path234"
       style="fill:#bfbfbf;fill-opacity:1;fill-rule:evenodd;stroke:none"
       d="m 578.28,309.84 c 0,13.12 10.61,23.76 23.7,23.76 13.09,0 23.7,-10.64 23.7,-23.76 0,-13.12 -10.61,-23.76 -23.7,-23.76 -13.09,0 -23.7,10.64 -23.7,23.76 z" /><path
       id="path236"
       style="fill:none;stroke:#000000;stroke-width:0.95999998;stroke-linecap:butt;stroke-linejoin:miter;stroke-miterlimit:10;stroke-dasharray:none;stroke-opacity:1"
       d="m 578.28,309.84 c 0,13.12 10.61,23.76 23.7,23.76 13.09,0 23.7,-10.64 23.7,-23.76 0,-13.12 -10.61,-23.76 -23.7,-23.76 -13.09,0 -23.7,10.64 -23.7,23.76 z" /><g
       id="g238"><g
         clip-path="url(#clipPath244)"
         id="g240"><text
           id="text248"
           style="font-variant:normal;font-weight:normal;font-size:18px;font-family:Calibri;-inkscape-font-specification:Calibri;writing-mode:lr-tb;fill:#ffffff;fill-opacity:1;fill-rule:nonzero;stroke:none"
           transform="matrix(1,0,0,-1,592.85,303.77)"><tspan
             id="tspan246"
             y="0"
             x="0 9.1199999">15</tspan></text>
</g></g><path
       id="path250"
       style="fill:none;stroke:#000000;stroke-width:0.47999999;stroke-linecap:butt;stroke-linejoin:miter;stroke-miterlimit:10;stroke-dasharray:none;stroke-opacity:1"
       d="m 601.92,333.52 19.95,40.76" /><path
       id="path252"
       style="fill:#bfbfbf;fill-opacity:1;fill-rule:evenodd;stroke:none"
       d="m 645.96,309.84 c 0,13.12 10.64,23.76 23.76,23.76 13.12,0 23.76,-10.64 23.76,-23.76 0,-13.12 -10.64,-23.76 -23.76,-23.76 -13.12,0 -23.76,10.64 -23.76,23.76 z" /><path
       id="path254"
       style="fill:none;stroke:#000000;stroke-width:0.95999998;stroke-linecap:butt;stroke-linejoin:miter;stroke-miterlimit:10;stroke-dasharray:none;stroke-opacity:1"
       d="m 645.96,309.84 c 0,13.12 10.64,23.76 23.76,23.76 13.12,0 23.76,-10.64 23.76,-23.76 0,-13.12 -10.64,-23.76 -23.76,-23.76 -13.12,0 -23.76,10.64 -23.76,23.76 z" /><g
       id="g256"><g
         clip-path="url(#clipPath262)"
         id="g258"><text
           id="text266"
           style="font-variant:normal;font-weight:normal;font-size:18px;font-family:Calibri;-inkscape-font-specification:Calibri;writing-mode:lr-tb;fill:#ffffff;fill-opacity:1;fill-rule:nonzero;stroke:none"
           transform="matrix(1,0,0,-1,665.21,303.77)"><tspan
             id="tspan264"
             y="0"
             x="0">4</tspan></text>
</g></g><path
       id="path268"
       style="fill:none;stroke:#000000;stroke-width:0.47999999;stroke-linecap:butt;stroke-linejoin:miter;stroke-miterlimit:10;stroke-dasharray:none;stroke-opacity:1"
       d="m 669.8,333.52 -14.24,40.76" /><path
       id="path270"
       style="fill:#bfbfbf;fill-opacity:1;fill-rule:evenodd;stroke:none"
       d="m 729.12,309.84 c 0,13.12 10.64,23.76 23.76,23.76 13.12,0 23.76,-10.64 23.76,-23.76 0,-13.12 -10.64,-23.76 -23.76,-23.76 -13.12,0 -23.76,10.64 -23.76,23.76 z" /><path
       id="path272"
       style="fill:none;stroke:#000000;stroke-width:0.95999998;stroke-linecap:butt;stroke-linejoin:miter;stroke-miterlimit:10;stroke-dasharray:none;stroke-opacity:1"
       d="m 729.12,309.84 c 0,13.12 10.64,23.76 23.76,23.76 13.12,0 23.76,-10.64 23.76,-23.76 0,-13.12 -10.64,-23.76 -23.76,-23.76 -13.12,0 -23.76,10.64 -23.76,23.76 z" /><g
       id="g274"><g
         clip-path="url(#clipPath280)"
         id="g276"><text
           id="text284"
           style="font-variant:normal;font-weight:normal;font-size:18px;font-family:Calibri;-inkscape-font-specification:Calibri;writing-mode:lr-tb;fill:#ffffff;fill-opacity:1;fill-rule:nonzero;stroke:none"
           transform="matrix(1,0,0,-1,748.37,303.77)"><tspan
             id="tspan282"
             y="0"
             x="0">7</tspan></text>
</g></g><path
       id="path286"
       style="fill:none;stroke:#000000;stroke-width:0.47999999;stroke-linecap:butt;stroke-linejoin:miter;stroke-miterlimit:10;stroke-dasharray:none;stroke-opacity:1"
       d="m 752.88,333.52 14.24,40.76" /><path
       id="path288"
       style="fill:#bfbfbf;fill-opacity:1;fill-rule:evenodd;stroke:none"
       d="m 796.92,309.84 c 0,13.12 10.64,23.76 23.76,23.76 13.12,0 23.76,-10.64 23.76,-23.76 0,-13.12 -10.64,-23.76 -23.76,-23.76 -13.12,0 -23.76,10.64 -23.76,23.76 z" /><path
       id="path290"
       style="fill:none;stroke:#000000;stroke-width:0.95999998;stroke-linecap:butt;stroke-linejoin:miter;stroke-miterlimit:10;stroke-dasharray:none;stroke-opacity:1"
       d="m 796.92,309.84 c 0,13.12 10.64,23.76 23.76,23.76 13.12,0 23.76,-10.64 23.76,-23.76 0,-13.12 -10.64,-23.76 -23.76,-23.76 -13.12,0 -23.76,10.64 -23.76,23.76 z" /><g
       id="g292"><g
         clip-path="url(#clipPath298)"
         id="g294"><text
           id="text302"
           style="font-variant:normal;font-weight:normal;font-size:18px;font-family:Calibri;-inkscape-font-specification:Calibri;writing-mode:lr-tb;fill:#ffffff;fill-opacity:1;fill-rule:nonzero;stroke:none"
           transform="matrix(1,0,0,-1,811.61,303.77)"><tspan
             id="tspan300"
             y="0"
             x="0 9.1199999">12</tspan></text>
</g></g><path
       id="path304"
       style="fill:none;stroke:#000000;stroke-width:0.47999999;stroke-linecap:butt;stroke-linejoin:miter;stroke-miterlimit:10;stroke-dasharray:none;stroke-opacity:1"
       d="m 820.71,333.52 -19.95,40.76" /><path
       id="path306"
       style="fill:#bfbfbf;fill-opacity:1;fill-rule:evenodd;stroke:none"
       d="m 541.32,226.2 c 0,13.12 10.64,23.76 23.76,23.76 13.12,0 23.76,-10.64 23.76,-23.76 0,-13.12 -10.64,-23.76 -23.76,-23.76 -13.12,0 -23.76,10.64 -23.76,23.76 z" /><path
       id="path308"
       style="fill:none;stroke:#000000;stroke-width:0.95999998;stroke-linecap:butt;stroke-linejoin:miter;stroke-miterlimit:10;stroke-dasharray:none;stroke-opacity:1"
       d="m 541.32,226.2 c 0,13.12 10.64,23.76 23.76,23.76 13.12,0 23.76,-10.64 23.76,-23.76 0,-13.12 -10.64,-23.76 -23.76,-23.76 -13.12,0 -23.76,10.64 -23.76,23.76 z" /><g
       id="g310"><g
         clip-path="url(#clipPath316)"
         id="g312"><text
           id="text320"
           style="font-variant:normal;font-weight:normal;font-size:18px;font-family:Calibri;-inkscape-font-specification:Calibri;writing-mode:lr-tb;fill:#ffffff;fill-opacity:1;fill-rule:nonzero;stroke:none"
           transform="matrix(1,0,0,-1,560.52,220.18)"><tspan
             id="tspan318"
             y="0"
             x="0">6</tspan></text>
</g></g><path
       id="path322"
       style="fill:none;stroke:#000000;stroke-width:0.47999999;stroke-linecap:butt;stroke-linejoin:miter;stroke-miterlimit:10;stroke-dasharray:none;stroke-opacity:1"
       d="m 565.08,250.03 20.08,43.01" /><path
       id="path324"
       style="fill:#bfbfbf;fill-opacity:1;fill-rule:evenodd;stroke:none"
       d="m 609.12,226.2 c 0,13.12 10.64,23.76 23.76,23.76 13.12,0 23.76,-10.64 23.76,-23.76 0,-13.12 -10.64,-23.76 -23.76,-23.76 -13.12,0 -23.76,10.64 -23.76,23.76 z" /><path
       id="path326"
       style="fill:none;stroke:#000000;stroke-width:0.95999998;stroke-linecap:butt;stroke-linejoin:miter;stroke-miterlimit:10;stroke-dasharray:none;stroke-opacity:1"
       d="m 609.12,226.2 c 0,13.12 10.64,23.76 23.76,23.76 13.12,0 23.76,-10.64 23.76,-23.76 0,-13.12 -10.64,-23.76 -23.76,-23.76 -13.12,0 -23.76,10.64 -23.76,23.76 z" /><g
       id="g328"><g
         clip-path="url(#clipPath334)"
         id="g330"><text
           id="text338"
           style="font-variant:normal;font-weight:normal;font-size:18px;font-family:Calibri;-inkscape-font-specification:Calibri;writing-mode:lr-tb;fill:#ffffff;fill-opacity:1;fill-rule:nonzero;stroke:none"
           transform="matrix(1,0,0,-1,628.32,220.18)"><tspan
             id="tspan336"
             y="0"
             x="0">4</tspan></text>
</g></g><path
       id="path340"
       style="fill:none;stroke:#000000;stroke-width:0.47999999;stroke-linecap:butt;stroke-linejoin:miter;stroke-miterlimit:10;stroke-dasharray:none;stroke-opacity:1"
       d="m 632.83,250.03 -14.11,43.01" /><path
       id="path342"
       style="fill:#ffffff;fill-opacity:1;fill-rule:evenodd;stroke:none"
       d="m 241.11,81.831 h 61.899 v 54.975 H 241.11 Z" /><path
       id="path344"
       style="fill:#ffffff;fill-opacity:1;fill-rule:evenodd;stroke:none"
       d="m 303.01,81.831 h 61.899 v 54.975 H 303.01 Z" /><path
       id="path346"
       style="fill:#ffffff;fill-opacity:1;fill-rule:evenodd;stroke:none"
       d="m 364.91,81.831 h 61.899 v 54.975 H 364.91 Z" /><path
       id="path348"
       style="fill:#ffffff;fill-opacity:1;fill-rule:evenodd;stroke:none"
       d="m 426.81,81.831 h 61.899 v 54.975 H 426.81 Z" /><path
       id="path350"
       style="fill:#ffffff;fill-opacity:1;fill-rule:evenodd;stroke:none"
       d="m 488.71,81.831 h 61.899 v 54.975 H 488.71 Z" /><path
       id="path352"
       style="fill:#ffffff;fill-opacity:1;fill-rule:evenodd;stroke:none"
       d="m 550.61,81.831 h 61.899 v 54.975 H 550.61 Z" /><path
       id="path354"
       style="fill:#ffffff;fill-opacity:1;fill-rule:evenodd;stroke:none"
       d="m 612.51,81.831 h 61.899 v 54.975 H 612.51 Z" /><path
       id="path356"
       style="fill:#ffffff;fill-opacity:1;fill-rule:evenodd;stroke:none"
       d="m 674.41,81.831 h 61.899 v 54.975 H 674.41 Z" /><path
       id="path358"
       style="fill:#ffffff;fill-opacity:1;fill-rule:evenodd;stroke:none"
       d="m 736.31,81.831 h 61.899 v 54.975 H 736.31 Z" /><path
       id="path360"
       style="fill:none;stroke:#000000;stroke-width:1;stroke-linecap:butt;stroke-linejoin:round;stroke-miterlimit:10;stroke-dasharray:none;stroke-opacity:1"
       d="M 303.01,137.31 V 81.331" /><path
       id="path362"
       style="fill:none;stroke:#000000;stroke-width:1;stroke-linecap:butt;stroke-linejoin:round;stroke-miterlimit:10;stroke-dasharray:none;stroke-opacity:1"
       d="M 364.91,137.31 V 81.331" /><path
       id="path364"
       style="fill:none;stroke:#000000;stroke-width:1;stroke-linecap:butt;stroke-linejoin:round;stroke-miterlimit:10;stroke-dasharray:none;stroke-opacity:1"
       d="M 426.81,137.31 V 81.331" /><path
       id="path366"
       style="fill:none;stroke:#000000;stroke-width:1;stroke-linecap:butt;stroke-linejoin:round;stroke-miterlimit:10;stroke-dasharray:none;stroke-opacity:1"
       d="M 488.71,137.31 V 81.331" /><path
       id="path368"
       style="fill:none;stroke:#000000;stroke-width:1;stroke-linecap:butt;stroke-linejoin:round;stroke-miterlimit:10;stroke-dasharray:none;stroke-opacity:1"
       d="M 550.61,137.31 V 81.331" /><path
       id="path370"
       style="fill:none;stroke:#000000;stroke-width:1;stroke-linecap:butt;stroke-linejoin:round;stroke-miterlimit:10;stroke-dasharray:none;stroke-opacity:1"
       d="M 612.51,137.31 V 81.331" /><path
       id="path372"
       style="fill:none;stroke:#000000;stroke-width:1;stroke-linecap:butt;stroke-linejoin:round;stroke-miterlimit:10;stroke-dasharray:none;stroke-opacity:1"
       d="M 674.41,137.31 V 81.331" /><path
       id="path374"
       style="fill:none;stroke:#000000;stroke-width:1;stroke-linecap:butt;stroke-linejoin:round;stroke-miterlimit:10;stroke-dasharray:none;stroke-opacity:1"
       d="M 736.31,137.31 V 81.331" /><path
       id="path376"
       style="fill:none;stroke:#000000;stroke-width:1;stroke-linecap:butt;stroke-linejoin:round;stroke-miterlimit:10;stroke-dasharray:none;stroke-opacity:1"
       d="M 241.11,137.31 V 81.331" /><path
       id="path378"
       style="fill:none;stroke:#000000;stroke-width:1;stroke-linecap:butt;stroke-linejoin:round;stroke-miterlimit:10;stroke-dasharray:none;stroke-opacity:1"
       d="M 798.21,137.31 V 81.331" /><path
       id="path380"
       style="fill:none;stroke:#000000;stroke-width:1;stroke-linecap:butt;stroke-linejoin:round;stroke-miterlimit:10;stroke-dasharray:none;stroke-opacity:1"
       d="m 240.61,136.81 h 558.1" /><path
       id="path382"
       style="fill:none;stroke:#000000;stroke-width:1;stroke-linecap:butt;stroke-linejoin:round;stroke-miterlimit:10;stroke-dasharray:none;stroke-opacity:1"
       d="m 240.61,81.831 h 558.1" /><g
       id="g384"><g
         clip-path="url(#clipPath390)"
         id="g386"><text
           id="text394"
           style="font-variant:normal;font-weight:bold;font-size:32.04000092px;font-family:Calibri;-inkscape-font-specification:Calibri-Bold;writing-mode:lr-tb;fill:#000000;fill-opacity:1;fill-rule:nonzero;stroke:none"
           transform="matrix(1,0,0,-1,264.02,98.424)"><tspan
             id="tspan392"
             y="0"
             x="0">1</tspan></text>
</g></g><g
       id="g396"><g
         clip-path="url(#clipPath402)"
         id="g398"><text
           id="text406"
           style="font-variant:normal;font-weight:bold;font-size:32.04000092px;font-family:Calibri;-inkscape-font-specification:Calibri-Bold;writing-mode:lr-tb;fill:#000000;fill-opacity:1;fill-rule:nonzero;stroke:none"
           transform="matrix(1,0,0,-1,325.92,98.424)"><tspan
             id="tspan404"
             y="0"
             x="0">8</tspan></text>
</g></g><g
       id="g408"><g
         clip-path="url(#clipPath414)"
         id="g410"><text
           id="text418"
           style="font-variant:normal;font-weight:bold;font-size:32.04000092px;font-family:Calibri;-inkscape-font-specification:Calibri-Bold;writing-mode:lr-tb;fill:#000000;fill-opacity:1;fill-rule:nonzero;stroke:none"
           transform="matrix(1,0,0,-1,387.84,98.424)"><tspan
             id="tspan416"
             y="0"
             x="0">9</tspan></text>
</g></g><g
       id="g420"><g
         clip-path="url(#clipPath426)"
         id="g422"><text
           id="text430"
           style="font-variant:normal;font-weight:bold;font-size:32.04000092px;font-family:Calibri;-inkscape-font-specification:Calibri-Bold;writing-mode:lr-tb;fill:#000000;fill-opacity:1;fill-rule:nonzero;stroke:none"
           transform="matrix(1,0,0,-1,441.58,98.424)"><tspan
             id="tspan428"
             y="0"
             x="0">1</tspan></text>
</g></g><g
       id="g432"><g
         clip-path="url(#clipPath438)"
         id="g434"><text
           id="text442"
           style="font-variant:normal;font-weight:bold;font-size:32.04000092px;font-family:Calibri;-inkscape-font-specification:Calibri-Bold;writing-mode:lr-tb;fill:#000000;fill-opacity:1;fill-rule:nonzero;stroke:none"
           transform="matrix(1,0,0,-1,457.78,98.424)"><tspan
             id="tspan440"
             y="0"
             x="0">5</tspan></text>
</g></g><g
       id="g444"><g
         clip-path="url(#clipPath450)"
         id="g446"><text
           id="text454"
           style="font-variant:normal;font-weight:bold;font-size:32.04000092px;font-family:Calibri;-inkscape-font-specification:Calibri-Bold;writing-mode:lr-tb;fill:#000000;fill-opacity:1;fill-rule:nonzero;stroke:none"
           transform="matrix(1,0,0,-1,511.63,98.424)"><tspan
             id="tspan452"
             y="0"
             x="0">4</tspan></text>
</g></g><g
       id="g456"><g
         clip-path="url(#clipPath462)"
         id="g458"><text
           id="text466"
           style="font-variant:normal;font-weight:bold;font-size:32.04000092px;font-family:Calibri;-inkscape-font-specification:Calibri-Bold;writing-mode:lr-tb;fill:#000000;fill-opacity:1;fill-rule:nonzero;stroke:none"
           transform="matrix(1,0,0,-1,573.55,98.424)"><tspan
             id="tspan464"
             y="0"
             x="0">7</tspan></text>
</g></g><g
       id="g468"><g
         clip-path="url(#clipPath474)"
         id="g470"><text
           id="text478"
           style="font-variant:normal;font-weight:bold;font-size:32.04000092px;font-family:Calibri;-inkscape-font-specification:Calibri-Bold;writing-mode:lr-tb;fill:#000000;fill-opacity:1;fill-rule:nonzero;stroke:none"
           transform="matrix(1,0,0,-1,627.29,98.424)"><tspan
             id="tspan476"
             y="0"
             x="0">1</tspan></text>
</g></g><g
       id="g480"><g
         clip-path="url(#clipPath486)"
         id="g482"><text
           id="text490"
           style="font-variant:normal;font-weight:bold;font-size:32.04000092px;font-family:Calibri;-inkscape-font-specification:Calibri-Bold;writing-mode:lr-tb;fill:#000000;fill-opacity:1;fill-rule:nonzero;stroke:none"
           transform="matrix(1,0,0,-1,643.49,98.424)"><tspan
             id="tspan488"
             y="0"
             x="0">2</tspan></text>
</g></g><g
       id="g492"><g
         clip-path="url(#clipPath498)"
         id="g494"><text
           id="text502"
           style="font-variant:normal;font-weight:bold;font-size:32.04000092px;font-family:Calibri;-inkscape-font-specification:Calibri-Bold;writing-mode:lr-tb;fill:#000000;fill-opacity:1;fill-rule:nonzero;stroke:none"
           transform="matrix(1,0,0,-1,697.37,98.424)"><tspan
             id="tspan500"
             y="0"
             x="0">6</tspan></text>
</g></g><g
       id="g504"><g
         clip-path="url(#clipPath510)"
         id="g506"><text
           id="text514"
           style="font-variant:normal;font-weight:bold;font-size:32.04000092px;font-family:Calibri;-inkscape-font-specification:Calibri-Bold;writing-mode:lr-tb;fill:#000000;fill-opacity:1;fill-rule:nonzero;stroke:none"
           transform="matrix(1,0,0,-1,759.26,98.424)"><tspan
             id="tspan512"
             y="0"
             x="0">4</tspan></text>
</g></g><path
       id="path516"
       style="fill:none;stroke:#000000;stroke-width:6;stroke-linecap:butt;stroke-linejoin:round;stroke-miterlimit:10;stroke-dasharray:none;stroke-opacity:1"
       d="M 489.6,64.714 V 18.225" /><path
       id="path518"
       style="fill:none;stroke:#000000;stroke-width:6;stroke-linecap:butt;stroke-linejoin:round;stroke-miterlimit:10;stroke-dasharray:none;stroke-opacity:1"
       d="M 241.26,64.714 V 18.225" /><path
       id="path520"
       style="fill:none;stroke:#000000;stroke-width:6;stroke-linecap:butt;stroke-linejoin:round;stroke-miterlimit:10;stroke-dasharray:none;stroke-opacity:1"
       d="M 796.95,64.714 V 18.225" /><path
       id="path522"
       style="fill:none;stroke:#fcfcfc;stroke-width:6;stroke-linecap:butt;stroke-linejoin:round;stroke-miterlimit:10;stroke-dasharray:none;stroke-opacity:1"
       d="M 238.26,61.714 H 799.95" /><path
       id="path524"
       style="fill:none;stroke:#fcfcfc;stroke-width:6;stroke-linecap:butt;stroke-linejoin:round;stroke-miterlimit:10;stroke-dasharray:none;stroke-opacity:1"
       d="M 238.26,21.225 H 799.95" /><g
       id="g526"><g
         clip-path="url(#clipPath532)"
         id="g528"><text
           id="text536"
           style="font-variant:normal;font-weight:bold;font-size:24px;font-family:MalgunGothicBold;-inkscape-font-specification:MalgunGothicBold;writing-mode:lr-tb;fill:#000000;fill-opacity:1;fill-rule:nonzero;stroke:none"
           transform="matrix(1,0,0,-1,313.94,32.616)"><tspan
             id="tspan534"
             y="0"
             x="0 24">내부</tspan></text>
</g></g><g
       id="g538"><g
         clip-path="url(#clipPath544)"
         id="g540"><text
           id="text548"
           style="font-variant:normal;font-weight:bold;font-size:24px;font-family:MalgunGothicBold;-inkscape-font-specification:MalgunGothicBold;writing-mode:lr-tb;fill:#000000;fill-opacity:1;fill-rule:nonzero;stroke:none"
           transform="matrix(1,0,0,-1,369.02,32.616)"><tspan
             id="tspan546"
             y="0"
             x="0 24">노드</tspan></text>
</g></g><g
       id="g550"><g
         clip-path="url(#clipPath556)"
         id="g552"><text
           id="text560"
           style="font-variant:normal;font-weight:bold;font-size:24px;font-family:MalgunGothicBold;-inkscape-font-specification:MalgunGothicBold;writing-mode:lr-tb;fill:#000000;fill-opacity:1;fill-rule:nonzero;stroke:none"
           transform="matrix(1,0,0,-1,591.84,32.616)"><tspan
             id="tspan558"
             y="0"
             x="0">잎</tspan></text>
</g></g><g
       id="g562"><g
         clip-path="url(#clipPath568)"
         id="g564"><text
           id="text572"
           style="font-variant:normal;font-weight:bold;font-size:24px;font-family:MalgunGothicBold;-inkscape-font-specification:MalgunGothicBold;writing-mode:lr-tb;fill:#000000;fill-opacity:1;fill-rule:nonzero;stroke:none"
           transform="matrix(1,0,0,-1,622.92,32.616)"><tspan
             id="tspan570"
             y="0"
             x="0 24 48">노드들</tspan></text>
</g></g><path
       id="path574"
       style="fill:#000000;fill-opacity:1;fill-rule:nonzero;stroke:none"
       d="M 473.98,167.88 H 270.6 v -4.56 h 203.38 z m -201.1,4.56 -13.68,-6.84 13.68,-6.84 z" /><path
       id="path576"
       style="fill:#000000;fill-opacity:1;fill-rule:nonzero;stroke:none"
       d="m 446.04,335.88 h 69.05 v -4.56 h -69.05 z m 66.77,4.56 13.68,-6.84 -13.68,-6.84 z" /></g></svg>