<?xml version="1.0" encoding="UTF-8" standalone="no"?>
<svg
   xmlns:dc="http://purl.org/dc/elements/1.1/"
   xmlns:cc="http://creativecommons.org/ns#"
   xmlns:rdf="http://www.w3.org/1999/02/22-rdf-syntax-ns#"
   xmlns:svg="http://www.w3.org/2000/svg"
   xmlns="http://www.w3.org/2000/svg"
   viewBox="0 0 1280 720"
   width="100%"
   xml:space="preserve"
   id="svg2"
   version="1.1"><metadata
     id="metadata8"><rdf:RDF><cc:Work
         rdf:about=""><dc:format>image/svg+xml</dc:format><dc:type
           rdf:resource="http://purl.org/dc/dcmitype/StillImage" /></cc:Work></rdf:RDF></metadata><defs
     id="defs6"><clipPath
       id="clipPath18"
       clipPathUnits="userSpaceOnUse"><path
         style="clip-rule:evenodd"
         id="path16"
         d="M 0,1.2207e-4 H 960 V 540.00012 H 0 Z" /></clipPath><clipPath
       id="clipPath32"
       clipPathUnits="userSpaceOnUse"><path
         style="clip-rule:evenodd"
         id="path30"
         d="M 1.4305e-5,0 H 960.00001 V 540 H 1.4305e-5 Z" /></clipPath><clipPath
       id="clipPath48"
       clipPathUnits="userSpaceOnUse"><path
         style="clip-rule:evenodd"
         id="path46"
         d="M 1.4305e-5,0 H 960.00001 V 540 H 1.4305e-5 Z" /></clipPath><clipPath
       id="clipPath66"
       clipPathUnits="userSpaceOnUse"><path
         style="clip-rule:evenodd"
         id="path64"
         d="M 1.4305e-5,0 H 960.00001 V 540 H 1.4305e-5 Z" /></clipPath><clipPath
       id="clipPath84"
       clipPathUnits="userSpaceOnUse"><path
         style="clip-rule:evenodd"
         id="path82"
         d="M 1.4305e-5,0 H 960.00001 V 540 H 1.4305e-5 Z" /></clipPath><clipPath
       id="clipPath102"
       clipPathUnits="userSpaceOnUse"><path
         style="clip-rule:evenodd"
         id="path100"
         d="M 1.4305e-5,0 H 960.00001 V 540 H 1.4305e-5 Z" /></clipPath><clipPath
       id="clipPath120"
       clipPathUnits="userSpaceOnUse"><path
         style="clip-rule:evenodd"
         id="path118"
         d="M 1.4305e-5,0 H 960.00001 V 540 H 1.4305e-5 Z" /></clipPath><clipPath
       id="clipPath138"
       clipPathUnits="userSpaceOnUse"><path
         style="clip-rule:evenodd"
         id="path136"
         d="M 1.4305e-5,0 H 960.00001 V 540 H 1.4305e-5 Z" /></clipPath><clipPath
       id="clipPath156"
       clipPathUnits="userSpaceOnUse"><path
         style="clip-rule:evenodd"
         id="path154"
         d="M 1.4305e-5,0 H 960.00001 V 540 H 1.4305e-5 Z" /></clipPath><clipPath
       id="clipPath174"
       clipPathUnits="userSpaceOnUse"><path
         style="clip-rule:evenodd"
         id="path172"
         d="M 1.4305e-5,0 H 960.00001 V 540 H 1.4305e-5 Z" /></clipPath><clipPath
       id="clipPath234"
       clipPathUnits="userSpaceOnUse"><path
         style="clip-rule:evenodd"
         id="path232"
         d="M 1.4305e-5,0 H 960.00001 V 540 H 1.4305e-5 Z" /></clipPath><clipPath
       id="clipPath246"
       clipPathUnits="userSpaceOnUse"><path
         style="clip-rule:evenodd"
         id="path244"
         d="m 232.32,0 h 62.04 v 245.28 h -62.04 z" /></clipPath><clipPath
       id="clipPath258"
       clipPathUnits="userSpaceOnUse"><path
         style="clip-rule:evenodd"
         id="path256"
         d="M 1.4305e-5,0 H 960.00001 V 540 H 1.4305e-5 Z" /></clipPath><clipPath
       id="clipPath270"
       clipPathUnits="userSpaceOnUse"><path
         style="clip-rule:evenodd"
         id="path268"
         d="M 356.16,0 H 418.2 V 245.28 H 356.16 Z" /></clipPath><clipPath
       id="clipPath282"
       clipPathUnits="userSpaceOnUse"><path
         style="clip-rule:evenodd"
         id="path280"
         d="M 1.4305e-5,0 H 960.00001 V 540 H 1.4305e-5 Z" /></clipPath><clipPath
       id="clipPath294"
       clipPathUnits="userSpaceOnUse"><path
         style="clip-rule:evenodd"
         id="path292"
         d="M 1.4305e-5,0 H 960.00001 V 540 H 1.4305e-5 Z" /></clipPath><clipPath
       id="clipPath306"
       clipPathUnits="userSpaceOnUse"><path
         style="clip-rule:evenodd"
         id="path304"
         d="M 1.4305e-5,0 H 960.00001 V 540 H 1.4305e-5 Z" /></clipPath><clipPath
       id="clipPath318"
       clipPathUnits="userSpaceOnUse"><path
         style="clip-rule:evenodd"
         id="path316"
         d="M 1.4305e-5,0 H 960.00001 V 540 H 1.4305e-5 Z" /></clipPath><clipPath
       id="clipPath330"
       clipPathUnits="userSpaceOnUse"><path
         style="clip-rule:evenodd"
         id="path328"
         d="M 1.4305e-5,0 H 960.00001 V 540 H 1.4305e-5 Z" /></clipPath><clipPath
       id="clipPath342"
       clipPathUnits="userSpaceOnUse"><path
         style="clip-rule:evenodd"
         id="path340"
         d="M 1.4305e-5,0 H 960.00001 V 540 H 1.4305e-5 Z" /></clipPath><clipPath
       id="clipPath364"
       clipPathUnits="userSpaceOnUse"><path
         style="clip-rule:evenodd"
         id="path362"
         d="M 1.4305e-5,0 H 960.00001 V 540 H 1.4305e-5 Z" /></clipPath><clipPath
       id="clipPath376"
       clipPathUnits="userSpaceOnUse"><path
         style="clip-rule:evenodd"
         id="path374"
         d="M 1.4305e-5,0 H 960.00001 V 540 H 1.4305e-5 Z" /></clipPath><clipPath
       id="clipPath388"
       clipPathUnits="userSpaceOnUse"><path
         style="clip-rule:evenodd"
         id="path386"
         d="M 1.4305e-5,0 H 960.00001 V 540 H 1.4305e-5 Z" /></clipPath><clipPath
       id="clipPath400"
       clipPathUnits="userSpaceOnUse"><path
         style="clip-rule:evenodd"
         id="path398"
         d="M 1.4305e-5,0 H 960.00001 V 540 H 1.4305e-5 Z" /></clipPath></defs><g
     transform="matrix(1.3333333,0,0,-1.3333333,0,720)"
     id="g10"><g
       id="g12"><g
         clip-path="url(#clipPath18)"
         id="g14"><path
           id="path20"
           style="fill:#ffffff;fill-opacity:1;fill-rule:evenodd;stroke:none"
           d="M 0,6.1035e-5 H 960 V 540.00006 H 0 Z" /></g></g><path
       id="path22"
       style="fill:#bfbfbf;fill-opacity:1;fill-rule:evenodd;stroke:none"
       d="m 455.88,477.36 c 0,13.12 10.64,23.76 23.76,23.76 13.12,0 23.76,-10.64 23.76,-23.76 0,-13.12 -10.64,-23.76 -23.76,-23.76 -13.12,0 -23.76,10.64 -23.76,23.76 z" /><path
       id="path24"
       style="fill:none;stroke:#000000;stroke-width:0.95999998;stroke-linecap:butt;stroke-linejoin:miter;stroke-miterlimit:10;stroke-dasharray:none;stroke-opacity:1"
       d="m 455.88,477.36 c 0,13.12 10.64,23.76 23.76,23.76 13.12,0 23.76,-10.64 23.76,-23.76 0,-13.12 -10.64,-23.76 -23.76,-23.76 -13.12,0 -23.76,10.64 -23.76,23.76 z" /><g
       id="g26"><g
         clip-path="url(#clipPath32)"
         id="g28"><text
           id="text36"
           style="font-variant:normal;font-weight:normal;font-size:18.02400017px;font-family:Calibri;-inkscape-font-specification:Calibri;writing-mode:lr-tb;fill:#000000;fill-opacity:1;fill-rule:nonzero;stroke:none"
           transform="matrix(1,0,0,-1,470.5,471.34)"><tspan
             id="tspan34"
             y="0"
             x="0 9.1199684">15</tspan></text>
</g></g><path
       id="path38"
       style="fill:#bfbfbf;fill-opacity:1;fill-rule:evenodd;stroke:none"
       d="m 383.28,396 c 0,13.12 10.64,23.76 23.76,23.76 13.12,0 23.76,-10.64 23.76,-23.76 0,-13.12 -10.64,-23.76 -23.76,-23.76 -13.12,0 -23.76,10.64 -23.76,23.76 z" /><path
       id="path40"
       style="fill:none;stroke:#000000;stroke-width:0.95999998;stroke-linecap:butt;stroke-linejoin:miter;stroke-miterlimit:10;stroke-dasharray:none;stroke-opacity:1"
       d="m 383.28,396 c 0,13.12 10.64,23.76 23.76,23.76 13.12,0 23.76,-10.64 23.76,-23.76 0,-13.12 -10.64,-23.76 -23.76,-23.76 -13.12,0 -23.76,10.64 -23.76,23.76 z" /><g
       id="g42"><g
         clip-path="url(#clipPath48)"
         id="g44"><text
           id="text52"
           style="font-variant:normal;font-weight:normal;font-size:18px;font-family:Calibri;-inkscape-font-specification:Calibri;writing-mode:lr-tb;fill:#000000;fill-opacity:1;fill-rule:nonzero;stroke:none"
           transform="matrix(1,0,0,-1,402.43,390)"><tspan
             id="tspan50"
             y="0"
             x="0">8</tspan></text>
</g></g><path
       id="path54"
       style="fill:none;stroke:#000000;stroke-width:0.47999999;stroke-linecap:butt;stroke-linejoin:miter;stroke-miterlimit:10;stroke-dasharray:none;stroke-opacity:1"
       d="m 423.84,412.84 39.03,47.72" /><path
       id="path56"
       style="fill:#bfbfbf;fill-opacity:1;fill-rule:evenodd;stroke:none"
       d="m 528.48,396 c 0,13.12 10.64,23.76 23.76,23.76 13.12,0 23.76,-10.64 23.76,-23.76 0,-13.12 -10.64,-23.76 -23.76,-23.76 -13.12,0 -23.76,10.64 -23.76,23.76 z" /><path
       id="path58"
       style="fill:none;stroke:#000000;stroke-width:0.95999998;stroke-linecap:butt;stroke-linejoin:miter;stroke-miterlimit:10;stroke-dasharray:none;stroke-opacity:1"
       d="m 528.48,396 c 0,13.12 10.64,23.76 23.76,23.76 13.12,0 23.76,-10.64 23.76,-23.76 0,-13.12 -10.64,-23.76 -23.76,-23.76 -13.12,0 -23.76,10.64 -23.76,23.76 z" /><g
       id="g60"><g
         clip-path="url(#clipPath66)"
         id="g62"><text
           id="text70"
           style="font-variant:normal;font-weight:normal;font-size:18px;font-family:Calibri;-inkscape-font-specification:Calibri;writing-mode:lr-tb;fill:#000000;fill-opacity:1;fill-rule:nonzero;stroke:none"
           transform="matrix(1,0,0,-1,543.12,390)"><tspan
             id="tspan68"
             y="0"
             x="0 9.1199999">12</tspan></text>
</g></g><path
       id="path72"
       style="fill:none;stroke:#000000;stroke-width:0.47999999;stroke-linecap:butt;stroke-linejoin:miter;stroke-miterlimit:10;stroke-dasharray:none;stroke-opacity:1"
       d="m 535.47,412.84 -39.03,47.72" /><path
       id="path74"
       style="fill:#bfbfbf;fill-opacity:1;fill-rule:evenodd;stroke:none"
       d="m 346.56,314.76 c 0,13.12 10.64,23.76 23.76,23.76 13.12,0 23.76,-10.64 23.76,-23.76 0,-13.12 -10.64,-23.76 -23.76,-23.76 -13.12,0 -23.76,10.64 -23.76,23.76 z" /><path
       id="path76"
       style="fill:none;stroke:#000000;stroke-width:0.95999998;stroke-linecap:butt;stroke-linejoin:miter;stroke-miterlimit:10;stroke-dasharray:none;stroke-opacity:1"
       d="m 346.56,314.76 c 0,13.12 10.64,23.76 23.76,23.76 13.12,0 23.76,-10.64 23.76,-23.76 0,-13.12 -10.64,-23.76 -23.76,-23.76 -13.12,0 -23.76,10.64 -23.76,23.76 z" /><g
       id="g78"><g
         clip-path="url(#clipPath84)"
         id="g80"><text
           id="text88"
           style="font-variant:normal;font-weight:normal;font-size:18px;font-family:Calibri;-inkscape-font-specification:Calibri;writing-mode:lr-tb;fill:#000000;fill-opacity:1;fill-rule:nonzero;stroke:none"
           transform="matrix(1,0,0,-1,365.69,308.69)"><tspan
             id="tspan86"
             y="0"
             x="0">6</tspan></text>
</g></g><path
       id="path90"
       style="fill:none;stroke:#000000;stroke-width:0.47999999;stroke-linecap:butt;stroke-linejoin:miter;stroke-miterlimit:10;stroke-dasharray:none;stroke-opacity:1"
       d="m 370.32,338.44 19.95,40.76" /><path
       id="path92"
       style="fill:#bfbfbf;fill-opacity:1;fill-rule:evenodd;stroke:none"
       d="m 414.36,314.76 c 0,13.12 10.61,23.76 23.7,23.76 13.09,0 23.7,-10.64 23.7,-23.76 0,-13.12 -10.61,-23.76 -23.7,-23.76 -13.09,0 -23.7,10.64 -23.7,23.76 z" /><path
       id="path94"
       style="fill:none;stroke:#000000;stroke-width:0.95999998;stroke-linecap:butt;stroke-linejoin:miter;stroke-miterlimit:10;stroke-dasharray:none;stroke-opacity:1"
       d="m 414.36,314.76 c 0,13.12 10.61,23.76 23.7,23.76 13.09,0 23.7,-10.64 23.7,-23.76 0,-13.12 -10.61,-23.76 -23.7,-23.76 -13.09,0 -23.7,10.64 -23.7,23.76 z" /><g
       id="g96"><g
         clip-path="url(#clipPath102)"
         id="g98"><text
           id="text106"
           style="font-variant:normal;font-weight:normal;font-size:18px;font-family:Calibri;-inkscape-font-specification:Calibri;writing-mode:lr-tb;fill:#000000;fill-opacity:1;fill-rule:nonzero;stroke:none"
           transform="matrix(1,0,0,-1,433.46,308.69)"><tspan
             id="tspan104"
             y="0"
             x="0">4</tspan></text>
</g></g><path
       id="path108"
       style="fill:none;stroke:#000000;stroke-width:0.47999999;stroke-linecap:butt;stroke-linejoin:miter;stroke-miterlimit:10;stroke-dasharray:none;stroke-opacity:1"
       d="M 438.08,338.44 423.84,379.2" /><path
       id="path110"
       style="fill:#bfbfbf;fill-opacity:1;fill-rule:evenodd;stroke:none"
       d="m 497.52,314.76 c 0,13.12 10.61,23.76 23.7,23.76 13.09,0 23.7,-10.64 23.7,-23.76 0,-13.12 -10.61,-23.76 -23.7,-23.76 -13.09,0 -23.7,10.64 -23.7,23.76 z" /><path
       id="path112"
       style="fill:none;stroke:#000000;stroke-width:0.95999998;stroke-linecap:butt;stroke-linejoin:miter;stroke-miterlimit:10;stroke-dasharray:none;stroke-opacity:1"
       d="m 497.52,314.76 c 0,13.12 10.61,23.76 23.7,23.76 13.09,0 23.7,-10.64 23.7,-23.76 0,-13.12 -10.61,-23.76 -23.7,-23.76 -13.09,0 -23.7,10.64 -23.7,23.76 z" /><g
       id="g114"><g
         clip-path="url(#clipPath120)"
         id="g116"><text
           id="text124"
           style="font-variant:normal;font-weight:normal;font-size:18px;font-family:Calibri;-inkscape-font-specification:Calibri;writing-mode:lr-tb;fill:#000000;fill-opacity:1;fill-rule:nonzero;stroke:none"
           transform="matrix(1,0,0,-1,516.65,308.69)"><tspan
             id="tspan122"
             y="0"
             x="0">7</tspan></text>
</g></g><path
       id="path126"
       style="fill:none;stroke:#000000;stroke-width:0.47999999;stroke-linecap:butt;stroke-linejoin:miter;stroke-miterlimit:10;stroke-dasharray:none;stroke-opacity:1"
       d="M 521.16,338.44 535.4,379.2" /><path
       id="path128"
       style="fill:#bfbfbf;fill-opacity:1;fill-rule:evenodd;stroke:none"
       d="m 565.2,314.76 c 0,13.12 10.64,23.76 23.76,23.76 13.12,0 23.76,-10.64 23.76,-23.76 0,-13.12 -10.64,-23.76 -23.76,-23.76 -13.12,0 -23.76,10.64 -23.76,23.76 z" /><path
       id="path130"
       style="fill:none;stroke:#000000;stroke-width:0.95999998;stroke-linecap:butt;stroke-linejoin:miter;stroke-miterlimit:10;stroke-dasharray:none;stroke-opacity:1"
       d="m 565.2,314.76 c 0,13.12 10.64,23.76 23.76,23.76 13.12,0 23.76,-10.64 23.76,-23.76 0,-13.12 -10.64,-23.76 -23.76,-23.76 -13.12,0 -23.76,10.64 -23.76,23.76 z" /><g
       id="g132"><g
         clip-path="url(#clipPath138)"
         id="g134"><text
           id="text142"
           style="font-variant:normal;font-weight:normal;font-size:18px;font-family:Calibri;-inkscape-font-specification:Calibri;writing-mode:lr-tb;fill:#000000;fill-opacity:1;fill-rule:nonzero;stroke:none"
           transform="matrix(1,0,0,-1,584.42,308.69)"><tspan
             id="tspan140"
             y="0"
             x="0">9</tspan></text>
</g></g><path
       id="path144"
       style="fill:none;stroke:#000000;stroke-width:0.47999999;stroke-linecap:butt;stroke-linejoin:miter;stroke-miterlimit:10;stroke-dasharray:none;stroke-opacity:1"
       d="M 588.99,338.44 569.04,379.2" /><path
       id="path146"
       style="fill:#bfbfbf;fill-opacity:1;fill-rule:evenodd;stroke:none"
       d="m 309.6,231.12 c 0,13.12 10.64,23.76 23.76,23.76 13.12,0 23.76,-10.64 23.76,-23.76 0,-13.12 -10.64,-23.76 -23.76,-23.76 -13.12,0 -23.76,10.64 -23.76,23.76 z" /><path
       id="path148"
       style="fill:none;stroke:#000000;stroke-width:0.95999998;stroke-linecap:butt;stroke-linejoin:miter;stroke-miterlimit:10;stroke-dasharray:none;stroke-opacity:1"
       d="m 309.6,231.12 c 0,13.12 10.64,23.76 23.76,23.76 13.12,0 23.76,-10.64 23.76,-23.76 0,-13.12 -10.64,-23.76 -23.76,-23.76 -13.12,0 -23.76,10.64 -23.76,23.76 z" /><g
       id="g150"><g
         clip-path="url(#clipPath156)"
         id="g152"><text
           id="text160"
           style="font-variant:normal;font-weight:normal;font-size:18.02400017px;font-family:Calibri;-inkscape-font-specification:Calibri;writing-mode:lr-tb;fill:#000000;fill-opacity:1;fill-rule:nonzero;stroke:none"
           transform="matrix(1,0,0,-1,328.8,225.12)"><tspan
             id="tspan158"
             y="0"
             x="0">1</tspan></text>
</g></g><path
       id="path162"
       style="fill:none;stroke:#000000;stroke-width:0.47999999;stroke-linecap:butt;stroke-linejoin:miter;stroke-miterlimit:10;stroke-dasharray:none;stroke-opacity:1"
       d="m 333.36,254.95 20.08,43.01" /><path
       id="path164"
       style="fill:#bfbfbf;fill-opacity:1;fill-rule:evenodd;stroke:none"
       d="m 377.4,231.12 c 0,13.12 10.64,23.76 23.76,23.76 13.12,0 23.76,-10.64 23.76,-23.76 0,-13.12 -10.64,-23.76 -23.76,-23.76 -13.12,0 -23.76,10.64 -23.76,23.76 z" /><path
       id="path166"
       style="fill:none;stroke:#000000;stroke-width:0.95999998;stroke-linecap:butt;stroke-linejoin:miter;stroke-miterlimit:10;stroke-dasharray:none;stroke-opacity:1"
       d="m 377.4,231.12 c 0,13.12 10.64,23.76 23.76,23.76 13.12,0 23.76,-10.64 23.76,-23.76 0,-13.12 -10.64,-23.76 -23.76,-23.76 -13.12,0 -23.76,10.64 -23.76,23.76 z" /><g
       id="g168"><g
         clip-path="url(#clipPath174)"
         id="g170"><text
           id="text178"
           style="font-variant:normal;font-weight:normal;font-size:18.02400017px;font-family:Calibri;-inkscape-font-specification:Calibri;writing-mode:lr-tb;fill:#000000;fill-opacity:1;fill-rule:nonzero;stroke:none"
           transform="matrix(1,0,0,-1,396.6,225.12)"><tspan
             id="tspan176"
             y="0"
             x="0">4</tspan></text>
</g></g><path
       id="path180"
       style="fill:none;stroke:#000000;stroke-width:0.47999999;stroke-linecap:butt;stroke-linejoin:miter;stroke-miterlimit:10;stroke-dasharray:none;stroke-opacity:1"
       d="m 401.23,254.95 -14.11,43.01" /><path
       id="path182"
       style="fill:#ffffff;fill-opacity:1;fill-rule:evenodd;stroke:none"
       d="m 170.5,83.319 h 61.899 v 54.975 H 170.5 Z" /><path
       id="path184"
       style="fill:#ffffff;fill-opacity:1;fill-rule:evenodd;stroke:none"
       d="m 232.4,83.319 h 61.899 v 54.975 H 232.4 Z" /><path
       id="path186"
       style="fill:#ffffff;fill-opacity:1;fill-rule:evenodd;stroke:none"
       d="m 294.3,83.319 h 61.899 v 54.975 H 294.3 Z" /><path
       id="path188"
       style="fill:#ffffff;fill-opacity:1;fill-rule:evenodd;stroke:none"
       d="m 356.2,83.319 h 61.899 v 54.975 H 356.2 Z" /><path
       id="path190"
       style="fill:#ffffff;fill-opacity:1;fill-rule:evenodd;stroke:none"
       d="m 418.1,83.319 h 61.899 v 54.975 H 418.1 Z" /><path
       id="path192"
       style="fill:#ffffff;fill-opacity:1;fill-rule:evenodd;stroke:none"
       d="m 480,83.319 h 61.899 v 54.975 H 480 Z" /><path
       id="path194"
       style="fill:#ffffff;fill-opacity:1;fill-rule:evenodd;stroke:none"
       d="m 541.9,83.319 h 61.899 v 54.975 H 541.9 Z" /><path
       id="path196"
       style="fill:#ffffff;fill-opacity:1;fill-rule:evenodd;stroke:none"
       d="m 603.8,83.319 h 61.899 v 54.975 H 603.8 Z" /><path
       id="path198"
       style="fill:#ffffff;fill-opacity:1;fill-rule:evenodd;stroke:none"
       d="m 665.7,83.319 h 61.899 v 54.975 H 665.7 Z" /><path
       id="path200"
       style="fill:#ffffff;fill-opacity:1;fill-rule:evenodd;stroke:none"
       d="m 727.6,83.319 h 61.899 v 54.975 H 727.6 Z" /><path
       id="path202"
       style="fill:none;stroke:#000000;stroke-width:1;stroke-linecap:butt;stroke-linejoin:round;stroke-miterlimit:10;stroke-dasharray:none;stroke-opacity:1"
       d="M 232.4,138.79 V 82.819" /><path
       id="path204"
       style="fill:none;stroke:#000000;stroke-width:1;stroke-linecap:butt;stroke-linejoin:round;stroke-miterlimit:10;stroke-dasharray:none;stroke-opacity:1"
       d="M 294.3,138.79 V 82.819" /><path
       id="path206"
       style="fill:none;stroke:#000000;stroke-width:1;stroke-linecap:butt;stroke-linejoin:round;stroke-miterlimit:10;stroke-dasharray:none;stroke-opacity:1"
       d="M 356.2,138.79 V 82.819" /><path
       id="path208"
       style="fill:none;stroke:#000000;stroke-width:1;stroke-linecap:butt;stroke-linejoin:round;stroke-miterlimit:10;stroke-dasharray:none;stroke-opacity:1"
       d="M 418.1,138.79 V 82.819" /><path
       id="path210"
       style="fill:none;stroke:#000000;stroke-width:1;stroke-linecap:butt;stroke-linejoin:round;stroke-miterlimit:10;stroke-dasharray:none;stroke-opacity:1"
       d="M 480,138.79 V 82.819" /><path
       id="path212"
       style="fill:none;stroke:#000000;stroke-width:1;stroke-linecap:butt;stroke-linejoin:round;stroke-miterlimit:10;stroke-dasharray:none;stroke-opacity:1"
       d="M 541.9,138.79 V 82.819" /><path
       id="path214"
       style="fill:none;stroke:#000000;stroke-width:1;stroke-linecap:butt;stroke-linejoin:round;stroke-miterlimit:10;stroke-dasharray:none;stroke-opacity:1"
       d="M 603.8,138.79 V 82.819" /><path
       id="path216"
       style="fill:none;stroke:#000000;stroke-width:1;stroke-linecap:butt;stroke-linejoin:round;stroke-miterlimit:10;stroke-dasharray:none;stroke-opacity:1"
       d="M 665.7,138.79 V 82.819" /><path
       id="path218"
       style="fill:none;stroke:#000000;stroke-width:1;stroke-linecap:butt;stroke-linejoin:round;stroke-miterlimit:10;stroke-dasharray:none;stroke-opacity:1"
       d="M 727.6,138.79 V 82.819" /><path
       id="path220"
       style="fill:none;stroke:#000000;stroke-width:1;stroke-linecap:butt;stroke-linejoin:round;stroke-miterlimit:10;stroke-dasharray:none;stroke-opacity:1"
       d="M 170.5,138.79 V 82.819" /><path
       id="path222"
       style="fill:none;stroke:#000000;stroke-width:1;stroke-linecap:butt;stroke-linejoin:round;stroke-miterlimit:10;stroke-dasharray:none;stroke-opacity:1"
       d="M 789.5,138.79 V 82.819" /><path
       id="path224"
       style="fill:none;stroke:#000000;stroke-width:1;stroke-linecap:butt;stroke-linejoin:round;stroke-miterlimit:10;stroke-dasharray:none;stroke-opacity:1"
       d="M 170,138.29 H 790" /><path
       id="path226"
       style="fill:none;stroke:#000000;stroke-width:1;stroke-linecap:butt;stroke-linejoin:round;stroke-miterlimit:10;stroke-dasharray:none;stroke-opacity:1"
       d="M 170,83.319 H 790" /><g
       id="g228"><g
         clip-path="url(#clipPath234)"
         id="g230"><text
           id="text238"
           style="font-variant:normal;font-weight:bold;font-size:32.04000092px;font-family:Calibri;-inkscape-font-specification:Calibri-Bold;writing-mode:lr-tb;fill:#000000;fill-opacity:1;fill-rule:nonzero;stroke:none"
           transform="matrix(1,0,0,-1,193.39,99.912)"><tspan
             id="tspan236"
             y="0"
             x="0">0</tspan></text>
</g></g><g
       id="g240"><g
         clip-path="url(#clipPath246)"
         id="g242"><text
           id="text250"
           style="font-variant:normal;font-weight:bold;font-size:32.04000092px;font-family:Calibri;-inkscape-font-specification:Calibri-Bold;writing-mode:lr-tb;fill:#000000;fill-opacity:1;fill-rule:nonzero;stroke:none"
           transform="matrix(1,0,0,-1,247.13,99.912)"><tspan
             id="tspan248"
             y="0"
             x="0 16.22398">15</tspan></text>
</g></g><g
       id="g252"><g
         clip-path="url(#clipPath258)"
         id="g254"><text
           id="text262"
           style="font-variant:normal;font-weight:bold;font-size:32.04000092px;font-family:Calibri;-inkscape-font-specification:Calibri-Bold;writing-mode:lr-tb;fill:#000000;fill-opacity:1;fill-rule:nonzero;stroke:none"
           transform="matrix(1,0,0,-1,317.21,99.912)"><tspan
             id="tspan260"
             y="0"
             x="0">8</tspan></text>
</g></g><g
       id="g264"><g
         clip-path="url(#clipPath270)"
         id="g266"><text
           id="text274"
           style="font-variant:normal;font-weight:bold;font-size:32.04000092px;font-family:Calibri;-inkscape-font-specification:Calibri-Bold;writing-mode:lr-tb;fill:#000000;fill-opacity:1;fill-rule:nonzero;stroke:none"
           transform="matrix(1,0,0,-1,370.94,99.912)"><tspan
             id="tspan272"
             y="0"
             x="0 16.19998">12</tspan></text>
</g></g><g
       id="g276"><g
         clip-path="url(#clipPath282)"
         id="g278"><text
           id="text286"
           style="font-variant:normal;font-weight:bold;font-size:32.04000092px;font-family:Calibri;-inkscape-font-specification:Calibri-Bold;writing-mode:lr-tb;fill:#000000;fill-opacity:1;fill-rule:nonzero;stroke:none"
           transform="matrix(1,0,0,-1,441.02,99.912)"><tspan
             id="tspan284"
             y="0"
             x="0">6</tspan></text>
</g></g><g
       id="g288"><g
         clip-path="url(#clipPath294)"
         id="g290"><text
           id="text298"
           style="font-variant:normal;font-weight:bold;font-size:32.04000092px;font-family:Calibri;-inkscape-font-specification:Calibri-Bold;writing-mode:lr-tb;fill:#000000;fill-opacity:1;fill-rule:nonzero;stroke:none"
           transform="matrix(1,0,0,-1,502.92,99.912)"><tspan
             id="tspan296"
             y="0"
             x="0">4</tspan></text>
</g></g><g
       id="g300"><g
         clip-path="url(#clipPath306)"
         id="g302"><text
           id="text310"
           style="font-variant:normal;font-weight:bold;font-size:32.04000092px;font-family:Calibri;-inkscape-font-specification:Calibri-Bold;writing-mode:lr-tb;fill:#000000;fill-opacity:1;fill-rule:nonzero;stroke:none"
           transform="matrix(1,0,0,-1,564.84,99.912)"><tspan
             id="tspan308"
             y="0"
             x="0">7</tspan></text>
</g></g><g
       id="g312"><g
         clip-path="url(#clipPath318)"
         id="g314"><text
           id="text322"
           style="font-variant:normal;font-weight:bold;font-size:32.04000092px;font-family:Calibri;-inkscape-font-specification:Calibri-Bold;writing-mode:lr-tb;fill:#000000;fill-opacity:1;fill-rule:nonzero;stroke:none"
           transform="matrix(1,0,0,-1,626.74,99.912)"><tspan
             id="tspan320"
             y="0"
             x="0">9</tspan></text>
</g></g><g
       id="g324"><g
         clip-path="url(#clipPath330)"
         id="g326"><text
           id="text334"
           style="font-variant:normal;font-weight:bold;font-size:32.04000092px;font-family:Calibri;-inkscape-font-specification:Calibri-Bold;writing-mode:lr-tb;fill:#000000;fill-opacity:1;fill-rule:nonzero;stroke:none"
           transform="matrix(1,0,0,-1,688.66,99.912)"><tspan
             id="tspan332"
             y="0"
             x="0">1</tspan></text>
</g></g><g
       id="g336"><g
         clip-path="url(#clipPath342)"
         id="g338"><text
           id="text346"
           style="font-variant:normal;font-weight:bold;font-size:32.04000092px;font-family:Calibri;-inkscape-font-specification:Calibri-Bold;writing-mode:lr-tb;fill:#000000;fill-opacity:1;fill-rule:nonzero;stroke:none"
           transform="matrix(1,0,0,-1,750.55,99.912)"><tspan
             id="tspan344"
             y="0"
             x="0">4</tspan></text>
</g></g><path
       id="path348"
       style="fill:none;stroke:#000000;stroke-width:6;stroke-linecap:butt;stroke-linejoin:round;stroke-miterlimit:10;stroke-dasharray:none;stroke-opacity:1"
       d="M 479.71,70.159 V 23.669" /><path
       id="path350"
       style="fill:none;stroke:#000000;stroke-width:6;stroke-linecap:butt;stroke-linejoin:round;stroke-miterlimit:10;stroke-dasharray:none;stroke-opacity:1"
       d="M 231.37,70.159 V 26.669" /><path
       id="path352"
       style="fill:none;stroke:#000000;stroke-width:6;stroke-linecap:butt;stroke-linejoin:round;stroke-miterlimit:10;stroke-dasharray:none;stroke-opacity:1"
       d="M 787.05,70.159 V 23.669" /><path
       id="path354"
       style="fill:none;stroke:#ffffff;stroke-width:6;stroke-linecap:butt;stroke-linejoin:round;stroke-miterlimit:10;stroke-dasharray:none;stroke-opacity:1"
       d="M 228.37,67.159 H 790.05" /><path
       id="path356"
       style="fill:none;stroke:#ffffff;stroke-width:6;stroke-linecap:butt;stroke-linejoin:round;stroke-miterlimit:10;stroke-dasharray:none;stroke-opacity:1"
       d="M 476.71,26.669 H 790.05" /><g
       id="g358"><g
         clip-path="url(#clipPath364)"
         id="g360"><text
           id="text368"
           style="font-variant:normal;font-weight:bold;font-size:24.02400017px;font-family:MalgunGothicBold;-inkscape-font-specification:MalgunGothicBold;writing-mode:lr-tb;fill:#000000;fill-opacity:1;fill-rule:nonzero;stroke:none"
           transform="matrix(1,0,0,-1,304.03,38.064)"><tspan
             id="tspan366"
             y="0"
             x="0 24">내부</tspan></text>
</g></g><g
       id="g370"><g
         clip-path="url(#clipPath376)"
         id="g372"><text
           id="text380"
           style="font-variant:normal;font-weight:bold;font-size:24.02400017px;font-family:MalgunGothicBold;-inkscape-font-specification:MalgunGothicBold;writing-mode:lr-tb;fill:#000000;fill-opacity:1;fill-rule:nonzero;stroke:none"
           transform="matrix(1,0,0,-1,359.14,38.064)"><tspan
             id="tspan378"
             y="0"
             x="0 24">노드</tspan></text>
</g></g><g
       id="g382"><g
         clip-path="url(#clipPath388)"
         id="g384"><text
           id="text392"
           style="font-variant:normal;font-weight:bold;font-size:24.02400017px;font-family:MalgunGothicBold;-inkscape-font-specification:MalgunGothicBold;writing-mode:lr-tb;fill:#000000;fill-opacity:1;fill-rule:nonzero;stroke:none"
           transform="matrix(1,0,0,-1,581.93,38.064)"><tspan
             id="tspan390"
             y="0"
             x="0">잎</tspan></text>
</g></g><g
       id="g394"><g
         clip-path="url(#clipPath400)"
         id="g396"><text
           id="text404"
           style="font-variant:normal;font-weight:bold;font-size:24.02400017px;font-family:MalgunGothicBold;-inkscape-font-specification:MalgunGothicBold;writing-mode:lr-tb;fill:#000000;fill-opacity:1;fill-rule:nonzero;stroke:none"
           transform="matrix(1,0,0,-1,613.03,38.064)"><tspan
             id="tspan402"
             y="0"
             x="0 24 48">노드들</tspan></text>
</g></g></g></svg>