<?xml version="1.0" encoding="UTF-8" standalone="no"?>
<svg
        xmlns:dc="http://purl.org/dc/elements/1.1/"
        xmlns:cc="http://creativecommons.org/ns#"
        xmlns:rdf="http://www.w3.org/1999/02/22-rdf-syntax-ns#"
        xmlns:svg="http://www.w3.org/2000/svg"
        xmlns="http://www.w3.org/2000/svg"
        viewBox="0 0 1280 720"
        width="100%"
        xml:space="preserve"
        id="svg2"
        version="1.1"><metadata
     id="metadata8"><rdf:RDF><cc:Work
         rdf:about=""><dc:format>image/svg+xml</dc:format><dc:type
        rdf:resource="http://purl.org/dc/dcmitype/StillImage"/></cc:Work></rdf:RDF></metadata>
    <defs
            id="defs6">
        <clipPath
       id="clipPath18"
       clipPathUnits="userSpaceOnUse"><path
         style="clip-rule:evenodd"
         id="path16"
         d="M 0,1.2207e-4 H 960 V 540.00012 H 0 Z" /></clipPath>
        <clipPath
                id="clipPath32"
                clipPathUnits="userSpaceOnUse"><path
         style="clip-rule:evenodd"
         id="path30"
         d="M 1.4305e-5,0 H 960.00001 V 540 H 1.4305e-5 Z" /></clipPath>
        <clipPath
                id="clipPath48"
                clipPathUnits="userSpaceOnUse"><path
         style="clip-rule:evenodd"
         id="path46"
         d="M 1.4305e-5,0 H 960.00001 V 540 H 1.4305e-5 Z" /></clipPath>
        <clipPath
                id="clipPath66"
                clipPathUnits="userSpaceOnUse"><path
         style="clip-rule:evenodd"
         id="path64"
         d="M 1.4305e-5,0 H 960.00001 V 540 H 1.4305e-5 Z" /></clipPath>
        <clipPath
                id="clipPath84"
                clipPathUnits="userSpaceOnUse"><path
         style="clip-rule:evenodd"
         id="path82"
         d="M 1.4305e-5,0 H 960.00001 V 540 H 1.4305e-5 Z" /></clipPath>
        <clipPath
                id="clipPath102"
                clipPathUnits="userSpaceOnUse"><path
         style="clip-rule:evenodd"
         id="path100"
         d="M 1.4305e-5,0 H 960.00001 V 540 H 1.4305e-5 Z" /></clipPath>
        <clipPath
                id="clipPath120"
                clipPathUnits="userSpaceOnUse"><path
         style="clip-rule:evenodd"
         id="path118"
         d="M 1.4305e-5,0 H 960.00001 V 540 H 1.4305e-5 Z" /></clipPath>
        <clipPath
                id="clipPath138"
                clipPathUnits="userSpaceOnUse"><path
         style="clip-rule:evenodd"
         id="path136"
         d="M 1.4305e-5,0 H 960.00001 V 540 H 1.4305e-5 Z" /></clipPath>
        <clipPath
                id="clipPath154"
                clipPathUnits="userSpaceOnUse"><path
         style="clip-rule:evenodd"
         id="path152"
         d="M 1.4305e-5,0 H 960.00001 V 540 H 1.4305e-5 Z" /></clipPath>
        <clipPath
                id="clipPath172"
                clipPathUnits="userSpaceOnUse"><path
         style="clip-rule:evenodd"
         id="path170"
         d="M 1.4305e-5,0 H 960.00001 V 540 H 1.4305e-5 Z" /></clipPath>
        <clipPath
                id="clipPath190"
                clipPathUnits="userSpaceOnUse"><path
         style="clip-rule:evenodd"
         id="path188"
         d="M 1.4305e-5,0 H 960.00001 V 540 H 1.4305e-5 Z" /></clipPath>
        <clipPath
                id="clipPath208"
                clipPathUnits="userSpaceOnUse"><path
         style="clip-rule:evenodd"
         id="path206"
         d="M 1.4305e-5,0 H 960.00001 V 540 H 1.4305e-5 Z" /></clipPath>
        <clipPath
                id="clipPath226"
                clipPathUnits="userSpaceOnUse"><path
         style="clip-rule:evenodd"
         id="path224"
         d="M 1.4305e-5,0 H 960.00001 V 540 H 1.4305e-5 Z" /></clipPath>
        <clipPath
                id="clipPath244"
                clipPathUnits="userSpaceOnUse"><path
         style="clip-rule:evenodd"
         id="path242"
         d="M 1.4305e-5,0 H 960.00001 V 540 H 1.4305e-5 Z" /></clipPath>
        <clipPath
                id="clipPath260"
                clipPathUnits="userSpaceOnUse"><path
         style="clip-rule:evenodd"
         id="path258"
         d="M 1.4305e-5,0 H 960.00001 V 540 H 1.4305e-5 Z" /></clipPath>
        <clipPath
                id="clipPath278"
                clipPathUnits="userSpaceOnUse"><path
         style="clip-rule:evenodd"
         id="path276"
         d="M 1.4305e-5,0 H 960.00001 V 540 H 1.4305e-5 Z" /></clipPath>
        <clipPath
                id="clipPath296"
                clipPathUnits="userSpaceOnUse"><path
         style="clip-rule:evenodd"
         id="path294"
         d="M 1.4305e-5,0 H 960.00001 V 540 H 1.4305e-5 Z" /></clipPath>
        <clipPath
                id="clipPath314"
                clipPathUnits="userSpaceOnUse"><path
         style="clip-rule:evenodd"
         id="path312"
         d="M 1.4305e-5,0 H 960.00001 V 540 H 1.4305e-5 Z" /></clipPath>
        <clipPath
                id="clipPath332"
                clipPathUnits="userSpaceOnUse"><path
         style="clip-rule:evenodd"
         id="path330"
         d="M 1.4305e-5,0 H 960.00001 V 540 H 1.4305e-5 Z" /></clipPath>
        <clipPath
                id="clipPath346"
                clipPathUnits="userSpaceOnUse"><path
         style="clip-rule:evenodd"
         id="path344"
         d="M 1.4305e-5,0 H 960.00001 V 540 H 1.4305e-5 Z" /></clipPath>
        <clipPath
                id="clipPath364"
                clipPathUnits="userSpaceOnUse"><path
         style="clip-rule:evenodd"
         id="path362"
         d="M 1.4305e-5,0 H 960.00001 V 540 H 1.4305e-5 Z" /></clipPath>
        <clipPath
                id="clipPath376"
                clipPathUnits="userSpaceOnUse"><path
         style="clip-rule:evenodd"
         id="path374"
         d="M 1.4305e-5,0 H 960.00001 V 540 H 1.4305e-5 Z" /></clipPath>
        <clipPath
                id="clipPath388"
                clipPathUnits="userSpaceOnUse"><path
         style="clip-rule:evenodd"
         id="path386"
         d="M 1.4305e-5,0 H 960.00001 V 540 H 1.4305e-5 Z" /></clipPath>
        <clipPath
                id="clipPath400"
                clipPathUnits="userSpaceOnUse"><path
         style="clip-rule:evenodd"
         id="path398"
         d="M 1.4305e-5,0 H 960.00001 V 540 H 1.4305e-5 Z" /></clipPath>
        <clipPath
                id="clipPath412"
                clipPathUnits="userSpaceOnUse"><path
         style="clip-rule:evenodd"
         id="path410"
         d="M 1.4305e-5,0 H 960.00001 V 540 H 1.4305e-5 Z" /></clipPath>
        <clipPath
                id="clipPath424"
                clipPathUnits="userSpaceOnUse"><path
         style="clip-rule:evenodd"
         id="path422"
         d="M 1.4305e-5,0 H 960.00001 V 540 H 1.4305e-5 Z" /></clipPath></defs>
    <g
            transform="matrix(1.3333333,0,0,-1.3333333,0,720)"
            id="g10"><g
       id="g12"><g
         clip-path="url(#clipPath18)"
         id="g14"><path
           id="path20"
           style="fill:#fcfcfc;fill-opacity:1;fill-rule:evenodd;stroke:none"
           d="M 0,6.1035e-5 H 960 V 540.00006 H 0 Z" /></g></g>
        <path
                id="path22"
                style="fill:#bfbfbf;fill-opacity:1;fill-rule:evenodd;stroke:none"
                d="m 456.24,377.76 c 0,13.12 10.64,23.76 23.76,23.76 13.12,0 23.76,-10.64 23.76,-23.76 0,-13.12 -10.64,-23.76 -23.76,-23.76 -13.12,0 -23.76,10.64 -23.76,23.76 z"/>
        <path
                id="path24"
                style="fill:none;stroke:#000000;stroke-width:0.95999998;stroke-linecap:butt;stroke-linejoin:miter;stroke-miterlimit:10;stroke-dasharray:none;stroke-opacity:1"
                d="m 456.24,377.76 c 0,13.12 10.64,23.76 23.76,23.76 13.12,0 23.76,-10.64 23.76,-23.76 0,-13.12 -10.64,-23.76 -23.76,-23.76 -13.12,0 -23.76,10.64 -23.76,23.76 z"/>
        <g
                id="g26"><g
         clip-path="url(#clipPath32)"
         id="g28"><text
           id="text36"
           style="font-variant:normal;font-weight:normal;font-size:18px;font-family:Calibri;-inkscape-font-specification:Calibri;writing-mode:lr-tb;fill:#ffffff;fill-opacity:1;fill-rule:nonzero;stroke:none"
           transform="matrix(1,0,0,-1,475.42,371.69)"><tspan
             id="tspan34"
             y="0"
             x="0">8</tspan></text>
</g></g>
        <path
                id="path38"
                style="fill:#bfbfbf;fill-opacity:1;fill-rule:evenodd;stroke:none"
                d="m 383.64,296.4 c 0,13.12 10.64,23.76 23.76,23.76 13.12,0 23.76,-10.64 23.76,-23.76 0,-13.12 -10.64,-23.76 -23.76,-23.76 -13.12,0 -23.76,10.64 -23.76,23.76 z"/>
        <path
                id="path40"
                style="fill:none;stroke:#000000;stroke-width:0.95999998;stroke-linecap:butt;stroke-linejoin:miter;stroke-miterlimit:10;stroke-dasharray:none;stroke-opacity:1"
                d="m 383.64,296.4 c 0,13.12 10.64,23.76 23.76,23.76 13.12,0 23.76,-10.64 23.76,-23.76 0,-13.12 -10.64,-23.76 -23.76,-23.76 -13.12,0 -23.76,10.64 -23.76,23.76 z"/>
        <g
                id="g42"><g
         clip-path="url(#clipPath48)"
         id="g44"><text
           id="text52"
           style="font-variant:normal;font-weight:normal;font-size:18px;font-family:Calibri;-inkscape-font-specification:Calibri;writing-mode:lr-tb;fill:#ffffff;fill-opacity:1;fill-rule:nonzero;stroke:none"
           transform="matrix(1,0,0,-1,402.79,290.35)"><tspan
             id="tspan50"
             y="0"
             x="0">6</tspan></text>
</g></g>
        <path
                id="path54"
                style="fill:none;stroke:#000000;stroke-width:0.47999999;stroke-linecap:butt;stroke-linejoin:miter;stroke-miterlimit:10;stroke-dasharray:none;stroke-opacity:1"
                d="m 424.2,313.24 39.03,47.72"/>
        <path
                id="path56"
                style="fill:#bfbfbf;fill-opacity:1;fill-rule:evenodd;stroke:none"
                d="m 528.84,296.4 c 0,13.12 10.64,23.76 23.76,23.76 13.12,0 23.76,-10.64 23.76,-23.76 0,-13.12 -10.64,-23.76 -23.76,-23.76 -13.12,0 -23.76,10.64 -23.76,23.76 z"/>
        <path
                id="path58"
                style="fill:none;stroke:#000000;stroke-width:0.95999998;stroke-linecap:butt;stroke-linejoin:miter;stroke-miterlimit:10;stroke-dasharray:none;stroke-opacity:1"
                d="m 528.84,296.4 c 0,13.12 10.64,23.76 23.76,23.76 13.12,0 23.76,-10.64 23.76,-23.76 0,-13.12 -10.64,-23.76 -23.76,-23.76 -13.12,0 -23.76,10.64 -23.76,23.76 z"/>
        <g
                id="g60"><g
         clip-path="url(#clipPath66)"
         id="g62"><text
           id="text70"
           style="font-variant:normal;font-weight:normal;font-size:18px;font-family:Calibri;-inkscape-font-specification:Calibri;writing-mode:lr-tb;fill:#ffffff;fill-opacity:1;fill-rule:nonzero;stroke:none"
           transform="matrix(1,0,0,-1,548.04,290.35)"><tspan
             id="tspan68"
             y="0"
             x="0">4</tspan></text>
</g></g>
        <path
                id="path72"
                style="fill:none;stroke:#000000;stroke-width:0.47999999;stroke-linecap:butt;stroke-linejoin:miter;stroke-miterlimit:10;stroke-dasharray:none;stroke-opacity:1"
                d="M 535.83,313.24 496.8,360.96"/>
        <path
                id="path74"
                style="fill:#bfbfbf;fill-opacity:1;fill-rule:evenodd;stroke:none"
                d="m 346.92,215.1 c 0,13.09 10.64,23.7 23.76,23.7 13.12,0 23.76,-10.61 23.76,-23.7 0,-13.09 -10.64,-23.7 -23.76,-23.7 -13.12,0 -23.76,10.61 -23.76,23.7 z"/>
        <path
                id="path76"
                style="fill:none;stroke:#000000;stroke-width:0.95999998;stroke-linecap:butt;stroke-linejoin:miter;stroke-miterlimit:10;stroke-dasharray:none;stroke-opacity:1"
                d="m 346.92,215.1 c 0,13.09 10.64,23.7 23.76,23.7 13.12,0 23.76,-10.61 23.76,-23.7 0,-13.09 -10.64,-23.7 -23.76,-23.7 -13.12,0 -23.76,10.61 -23.76,23.7 z"/>
        <g
                id="g78"><g
         clip-path="url(#clipPath84)"
         id="g80"><text
           id="text88"
           style="font-variant:normal;font-weight:normal;font-size:18px;font-family:Calibri;-inkscape-font-specification:Calibri;writing-mode:lr-tb;fill:#ffffff;fill-opacity:1;fill-rule:nonzero;stroke:none"
           transform="matrix(1,0,0,-1,366.05,209.04)"><tspan
             id="tspan86"
             y="0"
             x="0">7</tspan></text>
</g></g>
        <path
                id="path90"
                style="fill:none;stroke:#000000;stroke-width:0.47999999;stroke-linecap:butt;stroke-linejoin:miter;stroke-miterlimit:10;stroke-dasharray:none;stroke-opacity:1"
                d="m 370.68,238.84 19.95,40.76"/>
        <path
                id="path92"
                style="fill:#bfbfbf;fill-opacity:1;fill-rule:evenodd;stroke:none"
                d="m 414.72,215.1 c 0,13.09 10.61,23.7 23.7,23.7 13.09,0 23.7,-10.61 23.7,-23.7 0,-13.09 -10.61,-23.7 -23.7,-23.7 -13.09,0 -23.7,10.61 -23.7,23.7 z"/>
        <path
                id="path94"
                style="fill:none;stroke:#000000;stroke-width:0.95999998;stroke-linecap:butt;stroke-linejoin:miter;stroke-miterlimit:10;stroke-dasharray:none;stroke-opacity:1"
                d="m 414.72,215.1 c 0,13.09 10.61,23.7 23.7,23.7 13.09,0 23.7,-10.61 23.7,-23.7 0,-13.09 -10.61,-23.7 -23.7,-23.7 -13.09,0 -23.7,10.61 -23.7,23.7 z"/>
        <g
                id="g96"><g
         clip-path="url(#clipPath102)"
         id="g98"><text
           id="text106"
           style="font-variant:normal;font-weight:normal;font-size:18px;font-family:Calibri;-inkscape-font-specification:Calibri;writing-mode:lr-tb;fill:#ffffff;fill-opacity:1;fill-rule:nonzero;stroke:none"
           transform="matrix(1,0,0,-1,433.82,209.04)"><tspan
             id="tspan104"
             y="0"
             x="0">2</tspan></text>
</g></g>
        <path
                id="path108"
                style="fill:none;stroke:#000000;stroke-width:0.47999999;stroke-linecap:butt;stroke-linejoin:miter;stroke-miterlimit:10;stroke-dasharray:none;stroke-opacity:1"
                d="M 438.44,238.84 424.2,279.6"/>
        <path
                id="path110"
                style="fill:#bfbfbf;fill-opacity:1;fill-rule:evenodd;stroke:none"
                d="m 497.88,215.1 c 0,13.09 10.61,23.7 23.7,23.7 13.09,0 23.7,-10.61 23.7,-23.7 0,-13.09 -10.61,-23.7 -23.7,-23.7 -13.09,0 -23.7,10.61 -23.7,23.7 z"/>
        <path
                id="path112"
                style="fill:none;stroke:#000000;stroke-width:0.95999998;stroke-linecap:butt;stroke-linejoin:miter;stroke-miterlimit:10;stroke-dasharray:none;stroke-opacity:1"
                d="m 497.88,215.1 c 0,13.09 10.61,23.7 23.7,23.7 13.09,0 23.7,-10.61 23.7,-23.7 0,-13.09 -10.61,-23.7 -23.7,-23.7 -13.09,0 -23.7,10.61 -23.7,23.7 z"/>
        <g
                id="g114"><g
         clip-path="url(#clipPath120)"
         id="g116"><text
           id="text124"
           style="font-variant:normal;font-weight:normal;font-size:18px;font-family:Calibri;-inkscape-font-specification:Calibri;writing-mode:lr-tb;fill:#ffffff;fill-opacity:1;fill-rule:nonzero;stroke:none"
           transform="matrix(1,0,0,-1,517.01,209.04)"><tspan
             id="tspan122"
             y="0"
             x="0">3</tspan></text>
</g></g>
        <path
                id="path126"
                style="fill:none;stroke:#000000;stroke-width:0.47999999;stroke-linecap:butt;stroke-linejoin:miter;stroke-miterlimit:10;stroke-dasharray:none;stroke-opacity:1"
                d="m 521.64,238.84 14.24,40.76"/>
        <path
                id="path128"
                style="fill:#bfbfbf;fill-opacity:1;fill-rule:evenodd;stroke:none"
                d="m 169.92,377.76 c 0,13.12 10.64,23.76 23.76,23.76 13.12,0 23.76,-10.64 23.76,-23.76 0,-13.12 -10.64,-23.76 -23.76,-23.76 -13.12,0 -23.76,10.64 -23.76,23.76 z"/>
        <path
                id="path130"
                style="fill:none;stroke:#000000;stroke-width:0.95999998;stroke-linecap:butt;stroke-linejoin:miter;stroke-miterlimit:10;stroke-dasharray:none;stroke-opacity:1"
                d="m 169.92,377.76 c 0,13.12 10.64,23.76 23.76,23.76 13.12,0 23.76,-10.64 23.76,-23.76 0,-13.12 -10.64,-23.76 -23.76,-23.76 -13.12,0 -23.76,10.64 -23.76,23.76 z"/>
        <g
                id="g132"><g
         clip-path="url(#clipPath138)"
         id="g134"><text
           id="text142"
           style="font-variant:normal;font-weight:normal;font-size:18px;font-family:Calibri;-inkscape-font-specification:Calibri;writing-mode:lr-tb;fill:#ffffff;fill-opacity:1;fill-rule:nonzero;stroke:none"
           transform="matrix(1,0,0,-1,189.1,371.69)"><tspan
             id="tspan140"
             y="0"
             x="0">8</tspan></text>
</g></g>
        <path
                id="path144"
                style="fill:#bfbfbf;fill-opacity:1;fill-rule:evenodd;stroke:none"
                d="m 97.32,296.4 c 0,13.12 10.64,23.76 23.76,23.76 13.12,0 23.76,-10.64 23.76,-23.76 0,-13.12 -10.64,-23.76 -23.76,-23.76 -13.12,0 -23.76,10.64 -23.76,23.76 z"/>
        <path
                id="path146"
                style="fill:none;stroke:#000000;stroke-width:0.95999998;stroke-linecap:butt;stroke-linejoin:miter;stroke-miterlimit:10;stroke-dasharray:none;stroke-opacity:1"
                d="m 97.32,296.4 c 0,13.12 10.64,23.76 23.76,23.76 13.12,0 23.76,-10.64 23.76,-23.76 0,-13.12 -10.64,-23.76 -23.76,-23.76 -13.12,0 -23.76,10.64 -23.76,23.76 z"/>
        <g
                id="g148"><g
         clip-path="url(#clipPath154)"
         id="g150"><text
           id="text158"
           style="font-variant:normal;font-weight:normal;font-size:18px;font-family:Calibri;-inkscape-font-specification:Calibri;writing-mode:lr-tb;fill:#ffffff;fill-opacity:1;fill-rule:nonzero;stroke:none"
           transform="matrix(1,0,0,-1,116.45,290.35)"><tspan
             id="tspan156"
             y="0"
             x="0">7</tspan></text>
</g></g>
        <path
                id="path160"
                style="fill:none;stroke:#000000;stroke-width:0.47999999;stroke-linecap:butt;stroke-linejoin:miter;stroke-miterlimit:10;stroke-dasharray:none;stroke-opacity:1"
                d="m 137.88,313.24 39.03,47.72"/>
        <path
                id="path162"
                style="fill:#bfbfbf;fill-opacity:1;fill-rule:evenodd;stroke:none"
                d="m 242.52,296.4 c 0,13.12 10.64,23.76 23.76,23.76 13.12,0 23.76,-10.64 23.76,-23.76 0,-13.12 -10.64,-23.76 -23.76,-23.76 -13.12,0 -23.76,10.64 -23.76,23.76 z"/>
        <path
                id="path164"
                style="fill:none;stroke:#000000;stroke-width:0.95999998;stroke-linecap:butt;stroke-linejoin:miter;stroke-miterlimit:10;stroke-dasharray:none;stroke-opacity:1"
                d="m 242.52,296.4 c 0,13.12 10.64,23.76 23.76,23.76 13.12,0 23.76,-10.64 23.76,-23.76 0,-13.12 -10.64,-23.76 -23.76,-23.76 -13.12,0 -23.76,10.64 -23.76,23.76 z"/>
        <g
                id="g166"><g
         clip-path="url(#clipPath172)"
         id="g168"><text
           id="text176"
           style="font-variant:normal;font-weight:normal;font-size:18px;font-family:Calibri;-inkscape-font-specification:Calibri;writing-mode:lr-tb;fill:#ffffff;fill-opacity:1;fill-rule:nonzero;stroke:none"
           transform="matrix(1,0,0,-1,261.72,290.35)"><tspan
             id="tspan174"
             y="0"
             x="0">4</tspan></text>
</g></g>
        <path
                id="path178"
                style="fill:none;stroke:#000000;stroke-width:0.47999999;stroke-linecap:butt;stroke-linejoin:miter;stroke-miterlimit:10;stroke-dasharray:none;stroke-opacity:1"
                d="m 249.51,313.24 -39.03,47.72"/>
        <path
                id="path180"
                style="fill:#bfbfbf;fill-opacity:1;fill-rule:evenodd;stroke:none"
                d="m 128.4,215.1 c 0,13.09 10.64,23.7 23.76,23.7 13.12,0 23.76,-10.61 23.76,-23.7 0,-13.09 -10.64,-23.7 -23.76,-23.7 -13.12,0 -23.76,10.61 -23.76,23.7 z"/>
        <path
                id="path182"
                style="fill:none;stroke:#000000;stroke-width:0.95999998;stroke-linecap:butt;stroke-linejoin:miter;stroke-miterlimit:10;stroke-dasharray:none;stroke-opacity:1"
                d="m 128.4,215.1 c 0,13.09 10.64,23.7 23.76,23.7 13.12,0 23.76,-10.61 23.76,-23.7 0,-13.09 -10.64,-23.7 -23.76,-23.7 -13.12,0 -23.76,10.61 -23.76,23.7 z"/>
        <g
                id="g184"><g
         clip-path="url(#clipPath190)"
         id="g186"><text
           id="text194"
           style="font-variant:normal;font-weight:normal;font-size:18px;font-family:Calibri;-inkscape-font-specification:Calibri;writing-mode:lr-tb;fill:#ffffff;fill-opacity:1;fill-rule:nonzero;stroke:none"
           transform="matrix(1,0,0,-1,147.5,209.04)"><tspan
             id="tspan192"
             y="0"
             x="0">2</tspan></text>
</g></g>
        <path
                id="path196"
                style="fill:none;stroke:#000000;stroke-width:0.47999999;stroke-linecap:butt;stroke-linejoin:miter;stroke-miterlimit:10;stroke-dasharray:none;stroke-opacity:1"
                d="M 152.12,238.84 137.88,279.6"/>
        <path
                id="path198"
                style="fill:#bfbfbf;fill-opacity:1;fill-rule:evenodd;stroke:none"
                d="m 211.56,215.1 c 0,13.09 10.64,23.7 23.76,23.7 13.12,0 23.76,-10.61 23.76,-23.7 0,-13.09 -10.64,-23.7 -23.76,-23.7 -13.12,0 -23.76,10.61 -23.76,23.7 z"/>
        <path
                id="path200"
                style="fill:none;stroke:#000000;stroke-width:0.95999998;stroke-linecap:butt;stroke-linejoin:miter;stroke-miterlimit:10;stroke-dasharray:none;stroke-opacity:1"
                d="m 211.56,215.1 c 0,13.09 10.64,23.7 23.76,23.7 13.12,0 23.76,-10.61 23.76,-23.7 0,-13.09 -10.64,-23.7 -23.76,-23.7 -13.12,0 -23.76,10.61 -23.76,23.7 z"/>
        <g
                id="g202"><g
         clip-path="url(#clipPath208)"
         id="g204"><text
           id="text212"
           style="font-variant:normal;font-weight:normal;font-size:18px;font-family:Calibri;-inkscape-font-specification:Calibri;writing-mode:lr-tb;fill:#ffffff;fill-opacity:1;fill-rule:nonzero;stroke:none"
           transform="matrix(1,0,0,-1,230.66,209.04)"><tspan
             id="tspan210"
             y="0"
             x="0">3</tspan></text>
</g></g>
        <path
                id="path214"
                style="fill:none;stroke:#000000;stroke-width:0.47999999;stroke-linecap:butt;stroke-linejoin:miter;stroke-miterlimit:10;stroke-dasharray:none;stroke-opacity:1"
                d="m 235.32,238.84 14.24,40.76"/>
        <path
                id="path216"
                style="fill:#bfbfbf;fill-opacity:1;fill-rule:evenodd;stroke:none"
                d="m 279.36,214.86 c 0,13.09 10.61,23.7 23.7,23.7 13.09,0 23.7,-10.61 23.7,-23.7 0,-13.09 -10.61,-23.7 -23.7,-23.7 -13.09,0 -23.7,10.61 -23.7,23.7 z"/>
        <path
                id="path218"
                style="fill:none;stroke:#000000;stroke-width:0.95999998;stroke-linecap:butt;stroke-linejoin:miter;stroke-miterlimit:10;stroke-dasharray:none;stroke-opacity:1"
                d="m 279.36,214.86 c 0,13.09 10.61,23.7 23.7,23.7 13.09,0 23.7,-10.61 23.7,-23.7 0,-13.09 -10.61,-23.7 -23.7,-23.7 -13.09,0 -23.7,10.61 -23.7,23.7 z"/>
        <g
                id="g220"><g
         clip-path="url(#clipPath226)"
         id="g222"><text
           id="text230"
           style="font-variant:normal;font-weight:normal;font-size:18px;font-family:Calibri;-inkscape-font-specification:Calibri;writing-mode:lr-tb;fill:#ffffff;fill-opacity:1;fill-rule:nonzero;stroke:none"
           transform="matrix(1,0,0,-1,298.46,208.8)"><tspan
             id="tspan228"
             y="0"
             x="0">1</tspan></text>
</g></g>
        <path
                id="path232"
                style="fill:none;stroke:#000000;stroke-width:0.47999999;stroke-linecap:butt;stroke-linejoin:miter;stroke-miterlimit:10;stroke-dasharray:none;stroke-opacity:1"
                d="M 303.03,238.59 283.08,279.6"/>
        <path
                id="path234"
                style="fill:#bfbfbf;fill-opacity:1;fill-rule:evenodd;stroke:none"
                d="m 742.56,377.76 c 0,13.12 10.64,23.76 23.76,23.76 13.12,0 23.76,-10.64 23.76,-23.76 0,-13.12 -10.64,-23.76 -23.76,-23.76 -13.12,0 -23.76,10.64 -23.76,23.76 z"/>
        <path
                id="path236"
                style="fill:none;stroke:#000000;stroke-width:0.95999998;stroke-linecap:butt;stroke-linejoin:miter;stroke-miterlimit:10;stroke-dasharray:none;stroke-opacity:1"
                d="m 742.56,377.76 c 0,13.12 10.64,23.76 23.76,23.76 13.12,0 23.76,-10.64 23.76,-23.76 0,-13.12 -10.64,-23.76 -23.76,-23.76 -13.12,0 -23.76,10.64 -23.76,23.76 z"/>
        <g
                id="g238"><g
         clip-path="url(#clipPath244)"
         id="g240"><text
           id="text248"
           style="font-variant:normal;font-weight:normal;font-size:18px;font-family:Calibri;-inkscape-font-specification:Calibri;writing-mode:lr-tb;fill:#ffffff;fill-opacity:1;fill-rule:nonzero;stroke:none"
           transform="matrix(1,0,0,-1,761.76,371.69)"><tspan
             id="tspan246"
             y="0"
             x="0">8</tspan></text>
</g></g>
        <path
                id="path250"
                style="fill:#bfbfbf;fill-opacity:1;fill-rule:evenodd;stroke:none"
                d="m 669.96,296.4 c 0,13.12 10.64,23.76 23.76,23.76 13.12,0 23.76,-10.64 23.76,-23.76 0,-13.12 -10.64,-23.76 -23.76,-23.76 -13.12,0 -23.76,10.64 -23.76,23.76 z"/>
        <path
                id="path252"
                style="fill:none;stroke:#000000;stroke-width:0.95999998;stroke-linecap:butt;stroke-linejoin:miter;stroke-miterlimit:10;stroke-dasharray:none;stroke-opacity:1"
                d="m 669.96,296.4 c 0,13.12 10.64,23.76 23.76,23.76 13.12,0 23.76,-10.64 23.76,-23.76 0,-13.12 -10.64,-23.76 -23.76,-23.76 -13.12,0 -23.76,10.64 -23.76,23.76 z"/>
        <g
                id="g254"><g
         clip-path="url(#clipPath260)"
         id="g256"><text
           id="text264"
           style="font-variant:normal;font-weight:normal;font-size:18px;font-family:Calibri;-inkscape-font-specification:Calibri;writing-mode:lr-tb;fill:#ffffff;fill-opacity:1;fill-rule:nonzero;stroke:none"
           transform="matrix(1,0,0,-1,689.14,290.35)"><tspan
             id="tspan262"
             y="0"
             x="0">7</tspan></text>
</g></g>
        <path
                id="path266"
                style="fill:none;stroke:#000000;stroke-width:0.47999999;stroke-linecap:butt;stroke-linejoin:miter;stroke-miterlimit:10;stroke-dasharray:none;stroke-opacity:1"
                d="m 710.52,313.24 39.03,47.72"/>
        <path
                id="path268"
                style="fill:#bfbfbf;fill-opacity:1;fill-rule:evenodd;stroke:none"
                d="m 815.16,296.4 c 0,13.12 10.64,23.76 23.76,23.76 13.12,0 23.76,-10.64 23.76,-23.76 0,-13.12 -10.64,-23.76 -23.76,-23.76 -13.12,0 -23.76,10.64 -23.76,23.76 z"/>
        <path
                id="path270"
                style="fill:none;stroke:#000000;stroke-width:0.95999998;stroke-linecap:butt;stroke-linejoin:miter;stroke-miterlimit:10;stroke-dasharray:none;stroke-opacity:1"
                d="m 815.16,296.4 c 0,13.12 10.64,23.76 23.76,23.76 13.12,0 23.76,-10.64 23.76,-23.76 0,-13.12 -10.64,-23.76 -23.76,-23.76 -13.12,0 -23.76,10.64 -23.76,23.76 z"/>
        <g
                id="g272"><g
         clip-path="url(#clipPath278)"
         id="g274"><text
           id="text282"
           style="font-variant:normal;font-weight:normal;font-size:18px;font-family:Calibri;-inkscape-font-specification:Calibri;writing-mode:lr-tb;fill:#ffffff;fill-opacity:1;fill-rule:nonzero;stroke:none"
           transform="matrix(1,0,0,-1,834.38,290.35)"><tspan
             id="tspan280"
             y="0"
             x="0">4</tspan></text>
</g></g>
        <path
                id="path284"
                style="fill:none;stroke:#000000;stroke-width:0.47999999;stroke-linecap:butt;stroke-linejoin:miter;stroke-miterlimit:10;stroke-dasharray:none;stroke-opacity:1"
                d="m 822.15,313.24 -39.03,47.72"/>
        <path
                id="path286"
                style="fill:#bfbfbf;fill-opacity:1;fill-rule:evenodd;stroke:none"
                d="m 633.24,215.1 c 0,13.09 10.61,23.7 23.7,23.7 13.09,0 23.7,-10.61 23.7,-23.7 0,-13.09 -10.61,-23.7 -23.7,-23.7 -13.09,0 -23.7,10.61 -23.7,23.7 z"/>
        <path
                id="path288"
                style="fill:none;stroke:#000000;stroke-width:0.95999998;stroke-linecap:butt;stroke-linejoin:miter;stroke-miterlimit:10;stroke-dasharray:none;stroke-opacity:1"
                d="m 633.24,215.1 c 0,13.09 10.61,23.7 23.7,23.7 13.09,0 23.7,-10.61 23.7,-23.7 0,-13.09 -10.61,-23.7 -23.7,-23.7 -13.09,0 -23.7,10.61 -23.7,23.7 z"/>
        <g
                id="g290"><g
         clip-path="url(#clipPath296)"
         id="g292"><text
           id="text300"
           style="font-variant:normal;font-weight:normal;font-size:18px;font-family:Calibri;-inkscape-font-specification:Calibri;writing-mode:lr-tb;fill:#ffffff;fill-opacity:1;fill-rule:nonzero;stroke:none"
           transform="matrix(1,0,0,-1,652.37,209.04)"><tspan
             id="tspan298"
             y="0"
             x="0">5</tspan></text>
</g></g>
        <path
                id="path302"
                style="fill:none;stroke:#000000;stroke-width:0.47999999;stroke-linecap:butt;stroke-linejoin:miter;stroke-miterlimit:10;stroke-dasharray:none;stroke-opacity:1"
                d="m 656.88,238.84 19.95,40.76"/>
        <path
                id="path304"
                style="fill:#bfbfbf;fill-opacity:1;fill-rule:evenodd;stroke:none"
                d="m 700.92,215.1 c 0,13.09 10.64,23.7 23.76,23.7 13.12,0 23.76,-10.61 23.76,-23.7 0,-13.09 -10.64,-23.7 -23.76,-23.7 -13.12,0 -23.76,10.61 -23.76,23.7 z"/>
        <path
                id="path306"
                style="fill:none;stroke:#000000;stroke-width:0.95999998;stroke-linecap:butt;stroke-linejoin:miter;stroke-miterlimit:10;stroke-dasharray:none;stroke-opacity:1"
                d="m 700.92,215.1 c 0,13.09 10.64,23.7 23.76,23.7 13.12,0 23.76,-10.61 23.76,-23.7 0,-13.09 -10.64,-23.7 -23.76,-23.7 -13.12,0 -23.76,10.61 -23.76,23.7 z"/>
        <g
                id="g308"><g
         clip-path="url(#clipPath314)"
         id="g310"><text
           id="text318"
           style="font-variant:normal;font-weight:normal;font-size:18px;font-family:Calibri;-inkscape-font-specification:Calibri;writing-mode:lr-tb;fill:#ffffff;fill-opacity:1;fill-rule:nonzero;stroke:none"
           transform="matrix(1,0,0,-1,720.17,209.04)"><tspan
             id="tspan316"
             y="0"
             x="0">2</tspan></text>
</g></g>
        <path
                id="path320"
                style="fill:none;stroke:#000000;stroke-width:0.47999999;stroke-linecap:butt;stroke-linejoin:miter;stroke-miterlimit:10;stroke-dasharray:none;stroke-opacity:1"
                d="M 724.76,238.84 710.52,279.6"/>
        <path
                id="path322"
                style="fill:#bfbfbf;fill-opacity:1;fill-rule:evenodd;stroke:none"
                d="m 784.08,215.1 c 0,13.09 10.64,23.7 23.76,23.7 13.12,0 23.76,-10.61 23.76,-23.7 0,-13.09 -10.64,-23.7 -23.76,-23.7 -13.12,0 -23.76,10.61 -23.76,23.7 z"/>
        <path
                id="path324"
                style="fill:none;stroke:#000000;stroke-width:0.95999998;stroke-linecap:butt;stroke-linejoin:miter;stroke-miterlimit:10;stroke-dasharray:none;stroke-opacity:1"
                d="m 784.08,215.1 c 0,13.09 10.64,23.7 23.76,23.7 13.12,0 23.76,-10.61 23.76,-23.7 0,-13.09 -10.64,-23.7 -23.76,-23.7 -13.12,0 -23.76,10.61 -23.76,23.7 z"/>
        <g
                id="g326"><g
         clip-path="url(#clipPath332)"
         id="g328"><text
           id="text336"
           style="font-variant:normal;font-weight:normal;font-size:18px;font-family:Calibri;-inkscape-font-specification:Calibri;writing-mode:lr-tb;fill:#ffffff;fill-opacity:1;fill-rule:nonzero;stroke:none"
           transform="matrix(1,0,0,-1,803.33,209.04)"><tspan
             id="tspan334"
             y="0"
             x="0">3</tspan></text>
</g></g>
        <path
                id="path338"
                style="fill:none;stroke:#000000;stroke-width:0.47999999;stroke-linecap:butt;stroke-linejoin:miter;stroke-miterlimit:10;stroke-dasharray:none;stroke-opacity:1"
                d="m 807.84,238.84 14.24,40.76"/>
        <g
                id="g340"><g
         clip-path="url(#clipPath346)"
         id="g342"><text
           id="text350"
           style="font-variant:normal;font-weight:normal;font-size:18px;font-family:MalgunGothicRegular;-inkscape-font-specification:MalgunGothicRegular;writing-mode:lr-tb;fill:#000000;fill-opacity:1;fill-rule:nonzero;stroke:none"
           transform="matrix(1,0,0,-1,201.36,114.02)"><tspan
             id="tspan348"
             y="0"
             x="0">잎</tspan></text>
</g></g>
        <path
                id="path352"
                style="fill:#4472c4;fill-opacity:1;fill-rule:nonzero;stroke:none"
                d="m 197.43,134.38 -26.27,33.69 0.79,0.61 26.27,-33.68 z m -27.63,31.36 -1.32,6.58 6.06,-2.89 z"/>
        <path
                id="path354"
                style="fill:#4472c4;fill-opacity:1;fill-rule:nonzero;stroke:none"
                d="m 210.96,134.59 9.71,33.27 -0.96,0.28 -9.71,-33.27 z m 11.83,31.61 -1.2,6.6 -4.56,-4.92 z"/>
        <path
                id="path356"
                style="fill:#4472c4;fill-opacity:1;fill-rule:nonzero;stroke:none"
                d="m 227.11,129.11 50.89,40.2 -0.62,0.78 -50.89,-40.2 z m 51.65,37.62 2.85,6.07 -6.56,-1.37 z"/>
        <g
                id="g358"><g
         clip-path="url(#clipPath364)"
         id="g360"><text
           id="text368"
           style="font-variant:normal;font-weight:normal;font-size:18px;font-family:MalgunGothicRegular;-inkscape-font-specification:MalgunGothicRegular;writing-mode:lr-tb;fill:#000000;fill-opacity:1;fill-rule:nonzero;stroke:none"
           transform="matrix(1,0,0,-1,224.18,377.26)"><tspan
             id="tspan366"
             y="0"
             x="0 18">뿌리</tspan></text>
</g></g>
        <g
                id="g370"><g
         clip-path="url(#clipPath376)"
         id="g372"><text
           id="text380"
           style="font-variant:normal;font-weight:normal;font-size:18px;font-family:Calibri;-inkscape-font-specification:Calibri;writing-mode:lr-tb;fill:#000000;fill-opacity:1;fill-rule:nonzero;stroke:none"
           transform="matrix(1,0,0,-1,264.26,377.26)"><tspan
             id="tspan378"
             y="0"
             x="0">(</tspan></text>
</g></g>
        <g
                id="g382"><g
         clip-path="url(#clipPath388)"
         id="g384"><text
           id="text392"
           style="font-variant:normal;font-weight:normal;font-size:18px;font-family:Calibri;-inkscape-font-specification:Calibri;writing-mode:lr-tb;fill:#000000;fill-opacity:1;fill-rule:nonzero;stroke:none"
           transform="matrix(1,0,0,-1,269.66,377.26)"><tspan
             id="tspan390"
             y="0"
             x="0 5.994 15.48 24.966 30.996">root)</tspan></text>
</g></g>
        <g
                id="g394"><g
         clip-path="url(#clipPath400)"
         id="g396"><text
           id="text404"
           style="font-variant:normal;font-weight:normal;font-size:18px;font-family:Calibri;-inkscape-font-specification:Calibri;writing-mode:lr-tb;fill:#000000;fill-opacity:1;fill-rule:nonzero;stroke:none"
           transform="matrix(1,0,0,-1,188.42,75.792)"><tspan
             id="tspan402"
             y="0"
             x="0">A</tspan></text>
</g></g>
        <g
                id="g406"><g
         clip-path="url(#clipPath412)"
         id="g408"><text
           id="text416"
           style="font-variant:normal;font-weight:normal;font-size:18px;font-family:Calibri;-inkscape-font-specification:Calibri;writing-mode:lr-tb;fill:#000000;fill-opacity:1;fill-rule:nonzero;stroke:none"
           transform="matrix(1,0,0,-1,475.08,75.792)"><tspan
             id="tspan414"
             y="0"
             x="0">B</tspan></text>
</g></g>
        <g
                id="g418"><g
         clip-path="url(#clipPath424)"
         id="g420"><text
           id="text428"
           style="font-variant:normal;font-weight:normal;font-size:18px;font-family:Calibri;-inkscape-font-specification:Calibri;writing-mode:lr-tb;fill:#000000;fill-opacity:1;fill-rule:nonzero;stroke:none"
           transform="matrix(1,0,0,-1,761.09,75.792)"><tspan
             id="tspan426"
             y="0"
             x="0">C</tspan></text>
</g></g></g></svg>